<?xml version="1.0" encoding="UTF-8"?>
<svg width="150px" height="142px" viewBox="0 0 150 142" version="1.1" xmlns="http://www.w3.org/2000/svg" xmlns:xlink="http://www.w3.org/1999/xlink">
    <!-- Generator: Sketch 55 (78076) - https://sketchapp.com -->
    <title>logo</title>
    <desc>Created with Sketch.</desc>
    <g id="自定义搜索门户列表-0521" stroke="none" stroke-width="1" fill="none" fill-rule="evenodd">
        <g id="logo" transform="translate(0.000000, -4.000000)">
            <rect id="矩形备份-2" fill-opacity="0" fill="#D8D8D8" opacity="0" x="0" y="0" width="150" height="150"></rect>
            <g id="logofin-01" transform="translate(0.000000, 4.000000)" fill-rule="nonzero">
                <polygon id="路径" fill="#E94E53" points="90.9069767 53.0232558 90.9069767 50.9302326 15.0697674 56.6511628 15.0697674 58.8139535"></polygon>
                <polygon id="路径" fill="#E94E53" points="92.2325581 46.6744186 94.1860465 45.8372093 81.0697674 17.9302326 79.1162791 18.627907"></polygon>
                <polygon id="路径" fill="#E94E53" points="141.069767 59.7906977 140.930233 57.627907 101.581395 51.0697674 101.023256 53.1627907"></polygon>
                <polygon id="路径" fill="#E94E53" points="37.5348837 121.046512 34.0465116 122.581395 9.34883721 60.6976744 10.744186 59.7209302"></polygon>
                <polygon id="路径" fill="#E94E53" points="92.8604651 55.6046512 44.7209302 122.302326 47.4418605 125.023256 94.4651163 56.6511628"></polygon>
                <polygon id="路径" fill="#266DB6" points="8.37209302 56.0232558 69.627907 12.9069767 72 17.9302326 11.8604651 57.3488372"></polygon>
                <polygon id="路径" fill="#266DB6" points="50.4418605 129.55814 141.348837 62.7906977 140.023256 60.9767442 46.3953488 124.255814"></polygon>
                <circle id="椭圆形" fill="#266DB6" cx="143.302326" cy="59.5116279" r="6.34883721"></circle>
                <circle id="椭圆形" fill="#266DB6" cx="8.37209302" cy="58.0465116" r="8.37209302"></circle>
                <circle id="椭圆形" fill="#E94E53" cx="96.3488372" cy="51.1395349" r="6.90697674"></circle>
                <polygon id="路径" fill="#266DB6" points="72 19.255814 38.9302326 119.162791 46.1162791 121.395349 78.1395349 19.255814"></polygon>
                <circle id="椭圆形" fill="#266DB6" cx="76.9534884" cy="11.4418605" r="10.8139535"></circle>
                <circle id="椭圆形" fill="#266DB6" cx="39.627907" cy="129.55814" r="12.2790698"></circle>
            </g>
        </g>
    </g>
</svg>