<?xml version="1.0" standalone="no"?><!DOCTYPE svg PUBLIC "-//W3C//DTD SVG 1.1//EN" "http://www.w3.org/Graphics/SVG/1.1/DTD/svg11.dtd"><svg t="1539869245943" class="icon" style="" viewBox="0 0 1024 1024" version="1.1" xmlns="http://www.w3.org/2000/svg" p-id="1934" xmlns:xlink="http://www.w3.org/1999/xlink" width="32" height="32"><defs><style type="text/css"></style></defs><path d="M796.759 606.875v-151.8c0-139.149-128.141-252.999-284.759-252.999-156.617 0-284.759 113.849-284.759 252.999v151.8c0 64.037-85.428 164.449-85.428 215.049h740.373c0.001-75.9-85.427-147.914-85.427-215.049z" p-id="1935" fill="#bdbdbd"></path><path d="M520.609 133.204m-68.872 0a68.872 68.872 0 1 0 137.744 0 68.872 68.872 0 1 0-137.744 0Z" p-id="1936" fill="#bdbdbd"></path><path d="M506.619 959.667c57.055 0 103.308-46.253 103.308-103.308H403.311c0 57.056 46.253 103.308 103.308 103.308z" p-id="1937" fill="#bdbdbd"></path></svg>