<?xml version="1.0" encoding="UTF-8"?>
<svg width="16px" height="18px" viewBox="0 0 16 18" version="1.1" xmlns="http://www.w3.org/2000/svg" xmlns:xlink="http://www.w3.org/1999/xlink">
    <!-- Generator: Sketch 51.3 (57544) - http://www.bohemiancoding.com/sketch -->
    <title>icon_graphic_normal</title>
    <desc>Created with Sketch.</desc>
    <defs></defs>
    <g id="系统管理员" stroke="none" stroke-width="1" fill="none" fill-rule="evenodd">
        <g id="快捷跳转板块" transform="translate(-631.000000, -502.000000)">
            <g id="Group-6" transform="translate(594.000000, 347.000000)">
                <g id="icon_graphic_normal" transform="translate(31.000000, 150.000000)">
                    <g fill-rule="evenodd">
                        <rect id="Rectangle-4" fill="#FFFFFF" opacity="0" x="0" y="0" width="28" height="28"></rect>
                        <path d="M13.2443114,13.0891065 L11.7490737,9.8593782 C12.7889135,8.81934357 12.8653687,7.15045657 11.9250394,6.01834851 C10.9847101,4.88624045 9.34064526,4.66780631 8.14113929,5.51561105 C6.94163331,6.36341579 6.58601887,7.99521307 7.32267426,9.27127684 C8.05932966,10.5473406 9.64301176,11.042851 10.9676005,10.4117195 L12.6029579,13.9455671 L10.5914401,18.2903996 C9.39897143,18.1044134 8.26036228,18.8581336 7.95651198,20.0346318 C7.65266167,21.2111299 8.28224266,22.4283496 9.41346553,22.8514775 C10.5446884,23.2746054 11.8101995,22.7662348 12.3420654,21.6750247 C12.8739314,20.5838146 12.499434,19.2641248 11.475417,18.6210465 L13.5809749,14.0753626 L17.2861549,14.4420112 L17.2861549,14.4732758 C17.2864978,15.4217659 17.9829067,16.2238812 18.9159563,16.350461 C19.8490059,16.4770409 20.7312145,15.8890847 20.9805836,14.9744711 C21.2299526,14.0598574 20.7696489,13.1003876 19.9033379,12.7290299 C19.0370268,12.3576723 18.0316272,12.6888457 17.5504076,13.504073 L13.243371,13.0891065 L13.2443114,13.0891065 Z" id="Shape" fill="#249CFF" fill-rule="nonzero"></path>
                    </g>
                    <path d="" id="Path-2" stroke="#979797"></path>
                </g>
            </g>
        </g>
    </g>
</svg>