<?xml version="1.0" encoding="UTF-8"?>
<svg width="16px" height="16px" viewBox="0 0 16 16" version="1.1" xmlns="http://www.w3.org/2000/svg" xmlns:xlink="http://www.w3.org/1999/xlink">
    <!-- Generator: Sketch 51.3 (57544) - http://www.bohemiancoding.com/sketch -->
    <title>icon_event_normal</title>
    <desc>Created with Sketch.</desc>
    <defs></defs>
    <g id="系统管理员" stroke="none" stroke-width="1" fill="none" fill-rule="evenodd">
        <g id="快捷跳转板块" transform="translate(-712.000000, -434.000000)">
            <g id="Group-6" transform="translate(594.000000, 347.000000)">
                <g id="icon_event_normal" transform="translate(112.000000, 81.000000)">
                    <g>
                        <rect id="Rectangle-2" stroke="#979797" stroke-width="1.75" fill="#D8D8D8" opacity="0" x="0.875" y="0.875" width="26.25" height="26.25"></rect>
                        <path d="M21.4545455,12 L6.54545455,12 C6.25454545,12 6,12.2333333 6,12.5 L6,20.6666667 C6,21.4 6.65454545,22 7.45454545,22 L20.5454545,22 C21.3454545,22 22,21.4 22,20.6666667 L22,12.5 C22,12.2333333 21.7454545,12 21.4545455,12 Z M11.4545455,19.48 C11.4545455,19.6976 11.3090909,19.8426667 11.0909091,19.8426667 L9.63636364,19.8426667 C9.41818182,19.8426667 9.27272727,19.6976 9.27272727,19.48 L9.27272727,18.0293333 C9.27272727,17.8117333 9.41818182,17.6666667 9.63636364,17.6666667 L11.0909091,17.6666667 C11.3090909,17.6666667 11.4545455,17.8117333 11.4545455,18.0293333 L11.4545455,19.48 Z M11.4545455,16.1466667 C11.4545455,16.3642667 11.3090909,16.5093334 11.0909091,16.5093334 L9.63636364,16.5093334 C9.41818182,16.5093334 9.27272727,16.3642667 9.27272727,16.1466667 L9.27272727,14.696 C9.27272727,14.4784 9.41818182,14.3333333 9.63636364,14.3333333 L11.0909091,14.3333333 C11.3090909,14.3333333 11.4545455,14.4784 11.4545455,14.696 L11.4545455,16.1466667 Z M15.0909091,19.48 C15.0909091,19.6976 14.9454545,19.8426667 14.7272727,19.8426667 L13.2727273,19.8426667 C13.0545455,19.8426667 12.9090909,19.6976 12.9090909,19.48 L12.9090909,18.0293333 C12.9090909,17.8117333 13.0545455,17.6666667 13.2727273,17.6666667 L14.7272727,17.6666667 C14.9454545,17.6666667 15.0909091,17.8117333 15.0909091,18.0293333 L15.0909091,19.48 Z M15.0909091,16.1466667 C15.0909091,16.3642667 14.9454545,16.5093334 14.7272727,16.5093334 L13.2727273,16.5093334 C13.0545455,16.5093334 12.9090909,16.3642667 12.9090909,16.1466667 L12.9090909,14.696 C12.9090909,14.4784 13.0545455,14.3333333 13.2727273,14.3333333 L14.7272727,14.3333333 C14.9454545,14.3333333 15.0909091,14.4784 15.0909091,14.696 L15.0909091,16.1466667 Z M18.7272727,19.48 C18.7272727,19.6976 18.5818182,19.8426667 18.3636364,19.8426667 L16.9090909,19.8426667 C16.6909091,19.8426667 16.5454545,19.6976 16.5454545,19.48 L16.5454545,18.0293333 C16.5454545,17.8117333 16.6909091,17.6666667 16.9090909,17.6666667 L18.3636364,17.6666667 C18.5818182,17.6666667 18.7272727,17.8117333 18.7272727,18.0293333 L18.7272727,19.48 Z M18.7272727,16.1466667 C18.7272727,16.3642667 18.5818182,16.5093334 18.3636364,16.5093334 L16.9090909,16.5093334 C16.6909091,16.5093334 16.5454545,16.3642667 16.5454545,16.1466667 L16.5454545,14.696 C16.5454545,14.4784 16.6909091,14.3333333 16.9090909,14.3333333 L18.3636364,14.3333333 C18.5818182,14.3333333 18.7272727,14.4784 18.7272727,14.696 L18.7272727,16.1466667 Z M20.5454545,7.66666667 L18.7272727,7.66666667 L18.7272727,7 C18.7272727,6.46666667 18.2545455,6 17.6363636,6 C17.0545455,6 16.5454545,6.43333333 16.5454545,7 L16.5454545,7.66666667 L11.4545455,7.66666667 L11.4545455,7 C11.4545455,6.46666667 10.9818182,6 10.3636364,6 C9.78181818,6 9.27272727,6.43333333 9.27272727,7 L9.27272727,7.66666667 L7.45454545,7.66666667 C6.65454545,7.66666667 6,8.26666667 6,9 L6,9.83333333 C6,10.1 6.25454545,10.3333333 6.54545455,10.3333333 L21.4545455,10.3333333 C21.7454545,10.3333333 22,10.1 22,9.83333333 L22,9 C22,8.26666667 21.3454545,7.66666667 20.5454545,7.66666667 Z" id="Mask" fill="#249CFF"></path>
                    </g>
                </g>
            </g>
        </g>
    </g>
</svg>