
<svg width="16px" height="20px" viewBox="0 0 16 20" version="1.1" xmlns="http://www.w3.org/2000/svg" xmlns:xlink="http://www.w3.org/1999/xlink">
    <!-- Generator: Sketch 51.1 (57501) - http://www.bohemiancoding.com/sketch -->
    <desc>Created with Sketch.</desc>
    <defs></defs>
    <g id="登录" stroke="none" stroke-width="1" fill="none" fill-rule="evenodd">
        <g id="快捷跳转板块" transform="translate(-1095.000000, -566.000000)">
            <g id="Group-7" transform="translate(1089.000000, 562.000000)">
                <g>
                    <rect id="Rectangle-7" fill="#F5F5F5" opacity="0" x="0" y="0" width="28" height="28"></rect>
                    <g id="我的日志" transform="translate(4.000000, 4.000000)" fill-rule="nonzero">
                        <rect id="Rectangle-path" fill="#000000" opacity="0" x="0" y="0" width="20" height="20"></rect>
                        <path d="M16.6333853,0 L3.31045242,0 C2.59282371,0 2,0.592823711 2,1.34165367 L2,18.6583463 C2,19.375975 2.59282371,20 3.34165367,20 L16.6333853,20 C17.351014,20 17.975039,19.4071763 17.975039,18.6583463 L17.975039,1.34165367 C17.975039,0.592823711 17.3822153,0 16.6333853,0 Z M5.3153228,19.9946442 L4.03607162,19.9946442 L4.03607162,0.000686645508 L5.3153228,0.000686645508 L5.3153228,19.9946442 Z M14.5429017,5.49141965 L13.201248,4.149766 L11.8595944,5.49141965 L11.8595944,1.4976599 L14.5117005,1.4976599 L14.5117005,5.49141965 L14.5429017,5.49141965 Z M9.85983504,15.9382914 C9.85983504,13.6988548 11.6767364,11.8819534 13.9161731,11.8819534 C16.1556097,11.8819534 17.9725111,13.6988548 17.9725111,15.9382914 C17.9725111,18.1777281 16.1556097,19.9946295 13.9161731,19.9946295 C11.6767364,19.9946295 9.85983504,18.1777281 9.85983504,15.9382914 Z" id="Combined-Shape" fill="#249CFF"></path>
                        <path d="M16.9728816,15.4026322 C16.9495656,15.2713967 16.8239926,15.1374965 16.6930901,15.1085181 L16.5954962,15.0858683 C16.3580507,15.0139605 16.1570445,14.8540611 16.0335817,14.6388681 C15.9088513,14.4215419 15.8717987,14.1647947 15.9299922,13.9210698 L15.9606361,13.8288052 C15.9999401,13.7009005 15.9489781,13.5246985 15.846721,13.4370971 C15.846721,13.4370971 15.7547895,13.3591552 15.4969816,13.209267 C15.2381745,13.0600448 15.1272572,13.0184092 15.1272572,13.0184092 C15.001351,12.9721104 14.825149,13.0164107 14.7332175,13.1146708 L14.6652682,13.1879495 C14.4859332,13.3593539 14.2471701,13.4546204 13.999098,13.4537514 C13.7497385,13.4543871 13.5098552,13.3582666 13.3299301,13.1856179 L13.2649785,13.1146708 C13.1740463,13.0164107 12.996845,12.9727766 12.8706058,13.0184092 C12.8706058,13.0184092 12.758023,13.0600448 12.499549,13.209267 C12.2407419,13.3604876 12.1498097,13.4384295 12.1498097,13.4384295 C12.0478856,13.5250316 11.9969236,13.6995682 12.0362277,13.8288052 L12.0642068,13.922069 C12.1220993,14.1654434 12.0851809,14.4217289 11.9609504,14.6388681 C11.8373253,14.8556826 11.6346786,15.0163201 11.395372,15.0872006 L11.3011089,15.1085181 C11.172205,15.1384957 11.0452996,15.2707305 11.0213174,15.4026322 C11.0213174,15.4026322 11,15.5208774 11,15.8213201 C11,16.1217629 11.0213174,16.2400081 11.0213174,16.2400081 C11.0446334,16.3725759 11.1702065,16.5051438 11.3011089,16.5341222 L11.3930404,16.5554396 C11.6330011,16.6261452 11.8360602,16.7873981 11.959285,17.0051045 C12.0881889,17.2309362 12.1191659,17.4880779 12.0628745,17.7229028 L12.0362277,17.8138351 C11.9969236,17.9417397 12.0478857,18.1179417 12.1501428,18.2055431 C12.1501428,18.2055431 12.2420743,18.283485 12.4998821,18.4333733 C12.7586892,18.5832616 12.8699396,18.6242311 12.8699396,18.6242311 C12.9955127,18.6705299 13.1720478,18.6262296 13.2639793,18.5279695 L13.3282647,18.4583547 C13.7029401,18.0997741 14.2936143,18.1000678 14.6679329,18.4590209 L14.7322183,18.5289687 C14.8228174,18.6268957 15.0000187,18.6705299 15.1262579,18.6248972 C15.1262579,18.6248972 15.2388407,18.5832616 15.4976478,18.4340395 C15.7561218,18.2841512 15.846721,18.2062093 15.846721,18.2062093 C15.9489781,18.1199403 15.9999401,17.9437382 15.9606361,17.8145012 L15.9326569,17.7199051 C15.8747188,17.477404 15.9116579,17.2219285 16.0359133,17.0057707 C16.1599409,16.7887521 16.3626853,16.6277492 16.6021579,16.5561058 L16.6944225,16.5347884 C16.8233264,16.5048107 16.9502318,16.3725759 16.9742139,16.2406742 C16.9742139,16.2406742 16.9955314,16.122429 16.9955314,15.8219863 C16.994199,15.5215436 16.9728816,15.4026322 16.9728816,15.4026322 Z M12.8402482,15.8973101 C12.8392752,15.5793216 12.9647543,15.2739899 13.1890441,15.0485755 C13.413334,14.8231611 13.7180343,14.6961565 14.0360237,14.6955391 C14.695199,14.6955391 15.2311329,15.2334715 15.2311329,15.8986424 C15.2298006,16.562481 14.6948659,17.1004134 14.0356906,17.1004134 C13.3761821,17.1007465 12.8402482,16.562481 12.8402482,15.8973101 Z" id="Shape" fill="#249CFF"></path>
                    </g>
                </g>
            </g>
        </g>
    </g>
</svg>
