<?xml version="1.0" encoding="UTF-8"?>
<svg width="17px" height="17px" viewBox="0 0 17 17" version="1.1" xmlns="http://www.w3.org/2000/svg" xmlns:xlink="http://www.w3.org/1999/xlink">
    <!-- Generator: Sketch 51.3 (57544) - http://www.bohemiancoding.com/sketch -->
    <title>icon_storage_normal</title>
    <desc>Created with Sketch.</desc>
    <defs></defs>
    <g id="登录" stroke="none" stroke-width="1" fill="none" fill-rule="evenodd">
        <g id="快捷跳转板块" transform="translate(-292.000000, -168.000000)">
            <g id="icon_storage_normal" transform="translate(286.000000, 162.000000)">
                <g>
                    <rect id="Rectangle-4" fill="#FFFFFF" opacity="0" x="0" y="0" width="28" height="28"></rect>
                    <g id="--存储网关" transform="translate(6.000000, 6.000000)" fill="#249CFF" fill-rule="nonzero">
                        <path d="M16.8500319,3.80305656 C16.0282066,2.97785207 14.7954687,1.74004534 13.1518182,0.0896363636 C13.0925859,0.03315503 13.0142007,0.00113853309 12.9323636,0 L0.309090909,0 C0.138384714,0 0,0.138384714 0,0.309090909 L0,16.6909091 C0,16.8616153 0.138384714,17 0.309090909,17 L16.6909091,17 C16.8616153,17 17,16.8616153 17,16.6909091 C17,8.29182647 17,4.09228516 17,4.09228516 C17,4.09228516 17,3.9371254 16.8500319,3.80305656 Z M5.13636364,2.16363636 L5.37272727,2.16363636 C5.64886965,2.16363636 5.87272727,2.38749399 5.87272727,2.66363636 L5.87272727,4.13636364 C5.87272727,4.41250601 6.0965849,4.63636364 6.37272727,4.63636364 L9.7,4.63636364 C9.97614237,4.63636364 10.2,4.41250601 10.2,4.13636364 L10.2,2.66363636 C10.2,2.38749399 10.4238576,2.16363636 10.7,2.16363636 L10.9363636,2.16363636 C11.212506,2.16363636 11.4363636,2.38749399 11.4363636,2.66363636 L11.4363636,5.56363636 C11.4363636,5.73434256 11.2979789,5.87272727 11.1272727,5.87272727 L4.94545455,5.87272727 C4.77474835,5.87272727 4.63636364,5.73434256 4.63636364,5.56363636 L4.63636364,2.66363636 C4.63636364,2.38749399 4.86022126,2.16363636 5.13636364,2.16363636 Z M4.53436364,9.11818182 C4.53436364,8.94747562 4.67274835,8.80909091 4.84345455,8.80909091 L8.47527273,8.80909091 C8.64597892,8.80909091 8.78436364,8.94747562 8.78436364,9.11818182 L8.78436364,9.73636364 C8.78436364,9.90706983 8.64597892,10.0454545 8.47527273,10.0454545 L4.84036364,10.0454545 C4.66965744,10.0454545 4.53127273,9.90706983 4.53127273,9.73636364 L4.53436364,9.11818182 Z M12.4656364,12.4934545 C12.4656364,12.6641607 12.3272516,12.8025455 12.1565455,12.8025455 L4.84036364,12.8025455 C4.66965744,12.8025455 4.53127273,12.6641607 4.53127273,12.4934545 L4.53127273,11.8752727 C4.53127273,11.7045665 4.66965744,11.5661818 4.84036364,11.5661818 L12.1596364,11.5661818 C12.3303426,11.5661818 12.4687273,11.7045665 12.4687273,11.8752727 L12.4656364,12.4934545 Z" id="Shape"></path>
                    </g>
                </g>
            </g>
        </g>
    </g>
</svg>