
<svg width="20px" height="20px" viewBox="0 0 20 20" version="1.1" xmlns="http://www.w3.org/2000/svg" xmlns:xlink="http://www.w3.org/1999/xlink">
    <!-- Generator: Sketch 51.1 (57501) - http://www.bohemiancoding.com/sketch -->
    <desc>Created with Sketch.</desc>
    <defs></defs>
    <g id="登录" stroke="none" stroke-width="1" fill="none" fill-rule="evenodd">
        <g id="快捷跳转板块" transform="translate(-651.000000, -497.000000)">
            <g id="Group-2" transform="translate(647.000000, 493.000000)">
                <g>
                    <rect id="Rectangle-3" fill="#FFFFFF" opacity="0" x="0" y="0" width="28" height="28"></rect>
                    <g id="数据导入_焦点" transform="translate(4.000000, 4.000000)" fill-rule="nonzero">
                        <rect id="Rectangle-path" fill="#000000" opacity="0" x="0" y="0" width="20" height="20"></rect>
                        <path d="M10,0 C4.47821229,0 0,4.47821229 0,10 C0,15.5217877 4.47821229,20 10,20 C15.5217877,20 20,15.5217877 20,10 C20,4.47821229 15.5217877,0 10,0 Z M3.49944135,10 C3.49944135,9.70502793 3.7385475,9.4659218 4.03351955,9.4659218 L9.77877096,9.4659218 L9.05698324,8.74189943 C8.84916201,8.5340782 8.84916201,8.19664803 9.05698324,7.98882682 C9.26480447,7.78100559 9.60223465,7.78100559 9.81005586,7.98882682 L11.4435754,9.62234637 C11.4502793,9.62905027 11.452514,9.63575418 11.4592179,9.64245811 C11.477095,9.66256984 11.4927374,9.68491621 11.5061453,9.70726258 C11.5217877,9.72960895 11.5351955,9.75195531 11.5463687,9.77430168 C11.550838,9.78100559 11.5553073,9.78770949 11.5597765,9.79664805 C11.5664804,9.81229051 11.5664804,9.8301676 11.5709497,9.84581006 C11.5798883,9.8726257 11.5865922,9.8972067 11.5910614,9.92402234 C11.5955307,9.95083799 11.5955307,9.97541898 11.5955307,10 C11.5955307,10.0268156 11.5955307,10.0513966 11.5910614,10.0759777 C11.5865922,10.1027933 11.5798883,10.1273743 11.5709497,10.1541899 C11.5664804,10.1698324 11.5642458,10.1877095 11.5597765,10.203352 C11.5575419,10.2122905 11.550838,10.2167598 11.5463687,10.2256983 C11.5351955,10.2502793 11.5195531,10.2703911 11.5061453,10.2927374 C11.4905028,10.3150838 11.477095,10.3374302 11.4592179,10.3575419 C11.452514,10.3642458 11.4502793,10.3709497 11.4435754,10.3776536 L9.81005586,12.0111732 C9.70502793,12.1162011 9.56871508,12.1675978 9.43240223,12.1675978 C9.29608937,12.1675978 9.15977652,12.1162011 9.05474859,12.0111732 C8.84692736,11.803352 8.84692736,11.4659218 9.05474859,11.2581006 L9.77653631,10.5340782 L4.03351955,10.5340782 C3.73854748,10.5340782 3.49944135,10.2949721 3.49944135,10 Z M14.9340782,14.178771 C14.9340782,15.0614525 14.2167598,15.778771 13.3340782,15.778771 L7.2,15.778771 C6.31731844,15.778771 5.6,15.0614525 5.6,14.178771 L5.6,12.6681564 C5.6,12.3731844 5.83910615,12.1340782 6.1340782,12.1340782 C6.42905025,12.1340782 6.66815641,12.3731844 6.66815643,12.6681564 L6.66815643,14.178771 C6.66815643,14.473743 6.90726258,14.7128492 7.20223463,14.7128492 L13.3363129,14.7128492 C13.6312849,14.7128492 13.8703911,14.473743 13.8703911,14.178771 L13.8703911,5.82122904 C13.8703911,5.52625697 13.6312849,5.28715084 13.3363129,5.28715084 L7.2,5.28715084 C6.90502793,5.28715084 6.6659218,5.52625699 6.6659218,5.82122904 L6.6659218,7.33184357 C6.6659218,7.62681564 6.42681564,7.86592178 6.13184357,7.8659218 C5.8368715,7.86592182 5.59776537,7.62681564 5.59776537,7.33184357 L5.59776537,5.82122904 C5.59776537,4.93854748 6.31508381,4.22122904 7.19776537,4.22122904 L13.3318436,4.22122904 C14.2145251,4.22122904 14.9318436,4.93854748 14.9318436,5.82122904 L14.9318436,14.178771 L14.9340782,14.178771 Z" id="Shape" fill="#249CFF"></path>
                    </g>
                </g>
            </g>
        </g>
    </g>
</svg>
