<?xml version="1.0" encoding="UTF-8"?>
<svg width="20px" height="17px" viewBox="0 0 20 17" version="1.1" xmlns="http://www.w3.org/2000/svg" xmlns:xlink="http://www.w3.org/1999/xlink">
    <!-- Generator: Sketch 51.3 (57544) - http://www.bohemiancoding.com/sketch -->
    <title>icon_pro_normal</title>
    <desc>Created with Sketch.</desc>
    <defs></defs>
    <g id="登录" stroke="none" stroke-width="1" fill="none" fill-rule="evenodd">
        <g id="快捷跳转板块" transform="translate(-128.000000, -99.000000)">
            <g id="icon_pro_normal" transform="translate(124.000000, 93.000000)">
                <g>
                    <rect id="Rectangle-4" fill="#FFFFFF" opacity="0" x="0" y="0" width="28" height="28"></rect>
                    <g id="项目管理" transform="translate(4.000000, 6.000000)" fill="#249CFF" fill-rule="nonzero">
                        <path d="M10.4112676,2.16338028 C10.0028169,2.16338028 9.77183099,1.18028169 9.67042254,0.74084507 C9.57746479,0.343661972 10.0028169,0 10.4112676,0 L18.4929577,0 C18.9014085,0 19.2338028,0.332394366 19.2338028,0.74084507 L19.2338028,1.42253521 C19.2366197,1.83098592 18.9042254,2.16338028 18.4957746,2.16338028 L10.4112676,2.16338028 Z" id="Shape"></path>
                        <path d="M18.0140845,2.94929577 C18.6760563,2.94929577 19.2140845,3.48732394 19.2112676,4.15211268 L19.2112676,15.0478873 C19.2112676,15.7098592 18.6732394,16.2478873 18.0112676,16.2478873 L1.2,16.2478873 C0.538028169,16.2478873 0,15.7098592 0,15.0478873 L0,1.2 C0,0.538028169 0.538028169,0 1.2,0 L7.66478873,0 C8.32676056,0 8.57464789,0.416901408 8.86478873,1.2 L9.47645857,2.64428506 C9.55476334,2.82917958 9.73607806,2.94929577 9.93687054,2.94929577 L18.0140845,2.94929577 Z M11,12.056338 C11,14.2957746 12.8169014,16.1126761 15.056338,16.1126761 C17.2957746,16.1126761 19.1126761,14.2957746 19.1126761,12.056338 C19.1126761,9.81690141 17.2957746,8 15.056338,8 C12.8169014,8 11,9.81690141 11,12.056338 Z" id="Combined-Shape"></path>
                        <path d="M18.0714748,11.4964751 C18.0481588,11.3652395 17.9225858,11.2313394 17.7916833,11.2023609 L17.6940894,11.1797112 C17.4566439,11.1078034 17.2556377,10.947904 17.1321749,10.732711 C17.0074445,10.5153848 16.9703919,10.2586376 17.0285854,10.0149127 L17.0592292,9.92264809 C17.0985333,9.79474341 17.0475713,9.61854141 16.9453141,9.53094003 C16.9453141,9.53094003 16.8533827,9.45299812 16.5955748,9.30310984 C16.3367677,9.15388773 16.2258504,9.11225209 16.2258504,9.11225209 C16.0999442,9.06595327 15.9237422,9.11025358 15.8318107,9.20851368 L15.7638614,9.28179239 C15.5845264,9.45319676 15.3457633,9.54846323 15.0976912,9.54759428 C14.8483317,9.54822994 14.6084484,9.45210947 14.4285233,9.2794608 L14.3635717,9.20851368 C14.2726395,9.11025358 14.0954382,9.06661944 13.969199,9.11225209 C13.969199,9.11225209 13.8566162,9.15388773 13.5981422,9.30310984 C13.3393351,9.45433047 13.2484029,9.53227237 13.2484029,9.53227237 C13.1464788,9.61887449 13.0955168,9.79341108 13.1348209,9.92264809 L13.1628,10.0159119 C13.2206925,10.2592863 13.1837741,10.5155718 13.0595436,10.732711 C12.9359184,10.9495255 12.7332718,11.1101629 12.4939652,11.1810435 L12.3997021,11.2023609 C12.2707982,11.2323386 12.1438928,11.3645734 12.1199106,11.4964751 C12.1199106,11.4964751 12.0985932,11.6147203 12.0985932,11.915163 C12.0985932,12.2156058 12.1199106,12.333851 12.1199106,12.333851 C12.1432266,12.4664188 12.2687997,12.5989867 12.3997021,12.6279651 L12.4916336,12.6492825 C12.7315943,12.7199881 12.9346534,12.8812409 13.0578782,13.0989474 C13.1867821,13.3247791 13.217759,13.5819207 13.1614677,13.8167457 L13.1348209,13.907678 C13.0955168,14.0355826 13.1464788,14.2117846 13.248736,14.299386 C13.248736,14.299386 13.3406674,14.3773279 13.5984753,14.5272162 C13.8572824,14.6771045 13.9685328,14.7180739 13.9685328,14.7180739 C14.0941059,14.7643728 14.270641,14.7200724 14.3625725,14.6218124 L14.4268579,14.5521976 C14.8015333,14.193617 15.3922074,14.1939107 15.7665261,14.5528637 L15.8308115,14.6228116 C15.9214106,14.7207386 16.0986119,14.7643728 16.2248511,14.7187401 C16.2248511,14.7187401 16.3374339,14.6771045 16.596241,14.5278824 C16.854715,14.3779941 16.9453141,14.3000522 16.9453141,14.3000522 C17.0475713,14.2137831 17.0985333,14.0375811 17.0592292,13.9083441 L17.0312501,13.813748 C16.973312,13.5712469 17.0102511,13.3157713 17.1345065,13.0996136 C17.2585341,12.8825949 17.4612784,12.7215921 17.7007511,12.6499487 L17.7930157,12.6286313 C17.9219196,12.5986536 18.048825,12.4664188 18.0728071,12.3345171 C18.0728071,12.3345171 18.0941246,12.2162719 18.0941246,11.9158292 C18.0927922,11.6153864 18.0714748,11.4964751 18.0714748,11.4964751 Z M13.9388414,11.991153 C13.9378684,11.6731645 14.0633475,11.3678328 14.2876373,11.1424184 C14.5119272,10.917004 14.8166275,10.7899994 15.1346168,10.789382 C15.7937922,10.789382 16.3297261,11.3273144 16.3297261,11.9924853 C16.3283938,12.6563239 15.7934591,13.1942563 15.1342838,13.1942563 C14.4747753,13.1945894 13.9388414,12.6563239 13.9388414,11.991153 Z" id="Shape"></path>
                    </g>
                </g>
            </g>
        </g>
    </g>
</svg>
