<?xml version="1.0" encoding="UTF-8"?>
<svg width="18px" height="18px" viewBox="0 0 18 18" version="1.1" xmlns="http://www.w3.org/2000/svg" xmlns:xlink="http://www.w3.org/1999/xlink">
    <!-- Generator: Sketch 51.3 (57544) - http://www.bohemiancoding.com/sketch -->
    <title>Group 5</title>
    <desc>Created with Sketch.</desc>
    <defs></defs>
    <g id="登录" stroke="none" stroke-width="1" fill="none" fill-rule="evenodd">
        <g id="快捷跳转板块" transform="translate(-1008.000000, -429.000000)">
            <g id="Group-5" transform="translate(1003.000000, 424.000000)">
                <g>
                    <rect id="Rectangle-3" fill="#FFFFFF" opacity="0" x="0" y="0" width="28" height="28"></rect>
                    <g id="项目管理" transform="translate(4.000000, 4.000000)" fill-rule="nonzero">
                        <rect id="Rectangle-path" fill="#000000" opacity="0" x="0" y="0" width="20" height="20"></rect>
                        <path d="M16.2296063,5.61585246 C16.2296063,4.58301273 15.3895559,3.74294229 14.3567361,3.74294229 L3.1191952,3.74294229 C2.08647537,3.74294229 1.24630502,4.58301271 1.24630502,5.61585246 L1.24630502,16.8533135 C1.24630502,17.8860533 2.08647539,18.7262236 3.1191952,18.7262236 L14.3567361,18.7262236 C15.3895559,18.7262236 16.2296063,17.8860532 16.2296063,16.8533134 L16.2296063,5.61585246 Z M3.1191952,4.99147578 L14.3567361,4.99147578 C14.700603,4.99147578 14.9810928,5.27196561 14.9810928,5.61585246 L14.9810928,8.73727613 L2.49493844,8.73727613 L2.49493844,5.61585246 C2.49493844,5.27196561 2.77530834,4.99147578 3.1191952,4.99147578 Z M13.7416731,6.2401292 L12.4930197,6.2401292 L12.4930197,7.48876262 L13.7416731,7.48876262 L13.7416731,6.2401292 Z M4.36782861,7.48876262 L9.98719867,7.48876262 C10.3316052,7.48876262 10.6107959,7.20825281 10.6107959,6.86438594 C10.6107959,6.5192999 10.3316052,6.24014918 9.98719867,6.24014918 L4.36782861,6.24014918 C4.02340213,6.24014918 3.74411148,6.5193199 3.74411148,6.86438594 C3.74411148,7.20825281 4.02340213,7.48876262 4.36782861,7.48876262 Z M16.853983,1.24567543 L5.61648203,1.24567543 C4.5836423,1.24567543 3.74413148,2.0858458 3.74413148,3.11856561 L4.99210535,3.11856561 C4.99210535,2.77467877 5.27259518,2.49430885 5.61648203,2.49430885 L16.854003,2.49430885 C17.1984295,2.49430885 17.4782797,2.77467875 17.4782797,3.11856561 L17.4782797,14.3559866 C17.4782797,14.6998535 17.1984295,14.9804433 16.854003,14.9804433 L16.854003,16.2289568 C17.8867428,16.2289568 18.7269132,15.3889063 18.7269132,14.3559867 L18.7269131,3.11856561 C18.7268932,2.0858458 17.8867228,1.24567543 16.853983,1.24567543 Z" id="Shape" fill="#249CFF"></path>
                    </g>
                </g>
            </g>
        </g>
    </g>
</svg>