<?xml version="1.0" encoding="UTF-8"?>
<svg width="20px" height="20px" viewBox="0 0 20 20" version="1.1" xmlns="http://www.w3.org/2000/svg" xmlns:xlink="http://www.w3.org/1999/xlink">
    <!-- Generator: Sketch 51.3 (57544) - http://www.bohemiancoding.com/sketch -->
    <title>icon_company_normal copy 2</title>
    <desc>Created with Sketch.</desc>
    <defs></defs>
    <g id="登录" stroke="none" stroke-width="1" fill="none" fill-rule="evenodd">
        <g id="快捷跳转板块" transform="translate(-209.000000, -97.000000)">
            <g id="icon_contacts_normal" transform="translate(205.000000, 93.000000)">
                <g id="icon_custom_normal">
                    <rect id="Rectangle-12" stroke="#979797" stroke-width="1.75" fill="#D8D8D8" opacity="0" x="0.875" y="0.875" width="26.25" height="26.25"></rect>
                    <path d="M21.1428571,4 C22.7208136,4 24,5.27918643 24,6.85714286 L24,21.1428571 C24,22.7208136 22.7208136,24 21.1428571,24 L8.28571429,24 C6.70775786,24 5.42857143,22.7208136 5.42857143,21.1428571 L5.42857143,19.7142857 L4.71428571,19.7142857 C4.31979661,19.7142857 4,19.3944891 4,19 C4,18.6055109 4.31979661,18.2857143 4.71428571,18.2857143 L5.42857143,18.2857143 L5.42857143,14.7142857 L4.71428571,14.7142857 C4.31979661,14.7142857 4,14.3944891 4,14 C4,13.6055109 4.31979661,13.2857143 4.71428571,13.2857143 L5.42857143,13.2857143 L5.42857143,9.71428571 L4.71428571,9.71428571 C4.31979661,9.71428571 4,9.39448911 4,9 C4,8.60551089 4.31979661,8.28571429 4.71428571,8.28571429 L5.42857143,8.28571429 L5.42857143,6.85714286 C5.42857143,5.27918643 6.70775786,4 8.28571429,4 L21.1428571,4 Z M14.5029098,12.7458194 C15.5372893,12.7458194 16.3758195,11.9072892 16.3758195,10.8729097 C16.3758195,9.83853023 15.5372893,9 14.5029098,9 C13.4685303,9 12.6300001,9.83853023 12.6300001,10.8729097 C12.6300001,11.9072892 13.4685303,12.7458194 14.5029098,12.7458194 Z M18.5,17.2675585 C18.5,14.7798345 16.7202368,12.7458194 14.5,12.7458194 C12.2797632,12.7458194 10.5,14.7798345 10.5,17.2675585 C10.5,17.4596576 10.655727,17.6153846 10.8478261,17.6153846 L18.1521739,17.6153846 C18.344273,17.6153846 18.5,17.4596576 18.5,17.2675585 Z" id="Combined-Shape" fill="#249CFF" fill-rule="nonzero"></path>
                </g>
            </g>
        </g>
    </g>
</svg>
