<?xml version="1.0" encoding="UTF-8"?>
<svg width="20px" height="20px" viewBox="0 0 20 20" version="1.1" xmlns="http://www.w3.org/2000/svg" xmlns:xlink="http://www.w3.org/1999/xlink">
    <!-- Generator: Sketch 51.3 (57544) - http://www.bohemiancoding.com/sketch -->
    <title>icon_dynamic_normal</title>
    <desc>Created with Sketch.</desc>
    <defs></defs>
    <g id="登录" stroke="none" stroke-width="1" fill="none" fill-rule="evenodd">
        <g id="快捷跳转板块" transform="translate(-128.000000, -166.000000)">
            <g id="icon_dynamic_normal" transform="translate(124.000000, 162.000000)">
                <g>
                    <rect id="Rectangle-12" stroke="#979797" stroke-width="1.75" fill="#D8D8D8" opacity="0" x="0.875" y="0.875" width="26.25" height="26.25"></rect>
                    <path d="M14.5226833,12.6055556 C14.5273279,12.6024882 14.534241,12.5992261 14.5385616,12.5961588 C14.520955,12.5576953 14.5064809,12.5240519 14.5,12.5 C14.5078851,12.5349093 14.5157703,12.5703055 14.5226833,12.6055556 Z M17.5100455,15.5043206 L17.5108016,15.5029164 C17.5108016,15.5029164 17.5010802,15.5021603 17.5,15.5 C17.5021603,15.5021603 17.5075611,15.5021603 17.5075611,15.5021603 L17.5100455,15.5043206 Z M17.6055556,15.5306625 C17.5808932,15.5209175 17.5255452,15.5382971 17.5037265,15.5 C17.4903354,15.6119739 17.5105254,15.653809 17.6055556,15.5306625 Z M14.0000831,4.5 C8.75315144,4.5 4.5,8.75315143 4.5,13.9999169 C4.5,19.2466824 8.75315141,23.5 14.0000831,23.5 C19.2467774,23.5 23.5,19.2466824 23.5,13.9999169 C23.5,8.75315146 19.2467774,4.5 14.0000831,4.5 Z M19.4764583,8.15413148 C19.166116,8.16415234 18.949986,8.16480117 18.7006138,8.34849273 C18.6001672,8.42262781 18.5319275,8.52081772 18.4044731,8.55897865 C18.2900725,8.59343884 18.1666468,8.5632321 18.0532365,8.60442092 C17.6439555,8.75261896 17.7088193,9.6886673 17.1695858,9.54726999 C16.9162299,9.48099301 16.7376408,9.16133508 16.6101639,8.95260343 C16.4977889,8.76895993 16.2932272,8.61698906 16.4315072,8.38727849 C16.3684439,8.4045086 16.301262,8.3848033 16.2392565,8.39737144 C16.3255915,8.19481569 16.6154304,8.21252641 16.6635493,8.10904971 C16.7835765,7.84951689 16.3329511,7.82250626 16.2054742,7.78650809 C16.3592162,7.61153973 16.4370663,7.84533554 16.5889402,7.80566065 C16.7348049,7.76735553 16.5119229,7.56215639 16.4244626,7.5391589 C16.3929985,7.5308923 15.8792423,7.69064915 16.1765759,7.40658089 C15.8095622,7.15682863 15.442706,6.90698023 15.0756023,6.65705975 C15.0138219,6.93495211 15.5641512,7.09293069 15.7438657,7.19095239 C15.7159351,7.30565147 15.5487567,7.47276178 15.4207622,7.42378697 C15.3000597,7.37769588 15.3489889,7.16439835 15.1669562,7.18573772 C15.0369361,7.50844754 15.4418508,7.41417466 15.4794592,7.61192423 C15.5221765,7.83723716 15.3263249,7.74176272 15.2511756,7.73791778 C15.2331479,7.73688446 15.0927748,7.58178958 15.0852801,7.69920415 C15.0760524,7.83875109 15.3090624,7.78432131 15.3254921,7.92506979 C15.0541986,7.93684489 14.9156935,7.83226276 14.6947471,7.67546171 C14.43689,7.49287559 14.3046192,7.50938475 13.9887178,7.50938475 C14.0831551,7.4678595 14.2133328,7.43707603 14.2941087,7.37048663 C14.3382439,7.33400784 14.511364,7.15440154 14.5228424,7.11424604 C14.571704,6.94110401 14.5201416,6.954345 14.3651167,6.84075132 C14.2271293,6.7399901 14.0599509,6.55925434 13.8929301,6.5237368 C13.2875049,6.39469133 13.7062385,7.10725307 13.2467231,7.20544298 C13.2546003,7.2059236 13.2630178,7.20640421 13.2698372,7.20640421 L13.2434821,7.20640421 C13.244765,7.20633212 13.2455752,7.20568329 13.2467005,7.20544298 C13.1404023,7.20142984 12.9411746,7.17369829 12.8726423,7.23372724 C12.8242983,7.27587729 12.8203147,7.44524648 12.7661865,7.5064049 C12.6700162,7.61605751 12.5266497,7.63785347 12.4118665,7.71689082 C12.2998741,7.79390958 12.0528876,7.99173126 11.9870561,8.12606353 C11.7445034,8.6206898 12.5334917,8.77417463 12.8325582,8.91879209 C12.9675973,8.98420396 13.3624066,9.07364666 13.4360479,9.18281866 C13.5346939,9.32943066 13.3509957,9.46688694 13.5569753,9.56988301 C13.6227394,9.60275717 13.7584761,9.6094858 13.8150575,9.54135844 C13.9071767,9.43067251 13.7776742,9.40565643 13.7556853,9.27764427 C13.7128104,9.03125633 13.7833008,9.12910979 13.8992994,9.03767254 C14.1359104,8.85124148 14.0825474,8.83985085 13.9974953,8.54273387 C13.9580189,8.40446055 13.8089132,8.01835742 13.9399912,7.91632258 C14.1109957,7.78319187 14.4756012,7.98846308 14.6067691,8.00569319 C14.7593858,8.02566279 14.8458558,8.25128812 14.9290399,8.34361453 C14.9842934,8.40494116 15.0830069,8.53501998 15.1795599,8.52098598 C15.3327617,8.4985412 15.2685956,8.35555784 15.3575414,8.28973743 C15.5957278,8.11323109 15.6584984,8.35289042 15.7534534,8.59271797 C15.8427818,8.81779059 15.9272487,8.9013217 16.0863022,9.04581899 C16.1601686,9.11305722 16.4837898,9.35295686 16.4533159,9.50093861 C16.4325199,9.60057036 16.0628729,9.75158003 15.9639343,9.78507897 C15.6025472,9.90722759 14.9247411,9.58502243 14.8519325,10.1969191 C14.9921706,10.1411436 15.390941,9.79327349 15.5105181,9.95822101 C15.5650289,10.0329328 15.4673506,10.1419366 15.4902397,10.2162399 C15.5584795,10.4389815 15.7194235,10.3613139 15.8881099,10.3253398 C15.8765415,10.3330297 15.8647706,10.3396862 15.852302,10.3456939 C16.0829262,10.2192197 16.0588218,10.2455094 16.1647374,10.0403824 C16.1991274,9.97328834 16.2506223,9.81115242 16.2992588,9.76321094 C16.4667298,9.59857581 16.4925673,9.71190514 16.5962998,9.83888397 C16.6235552,9.87231084 16.8801294,10.2668968 16.7887755,10.2471916 C16.4902941,10.1833177 16.2037637,10.1918967 15.9561021,10.3661441 C15.8134783,10.4667371 15.6785742,10.602367 15.508245,10.6692929 C15.4673281,10.6850811 15.1650206,10.7157925 15.2008285,10.660786 C15.2529986,10.580475 15.4325781,10.5273188 15.5033611,10.4406877 C15.3070592,10.354369 15.1431668,10.5450536 14.9889072,10.6564604 C14.8251048,10.7391745 14.7871138,10.8934043 14.6476409,11.0285296 C14.5867608,11.087357 14.4716175,11.0974499 14.4119977,11.1750454 C14.3540435,11.25031 14.3466838,11.3685416 14.291813,11.4400332 C14.2533043,11.4901375 14.1545007,11.4598346 14.1142816,11.5352673 C14.0617964,11.6336976 14.162243,11.7251589 14.1401866,11.7960978 C14.0999449,11.9249751 13.8702435,12.0344835 13.7819504,12.1272905 C13.7938113,12.115179 13.8054472,12.102683 13.8170831,12.0900187 C13.7284974,12.1891699 13.616415,12.2621034 13.547365,12.3768986 C13.5791217,12.5388903 13.6791182,12.9252338 13.6513451,13.0141237 C13.559226,13.3064346 13.3802767,12.8550878 13.3078957,12.7383942 C13.0587486,12.3376322 12.5608145,12.6058161 12.2205161,12.6390027 C11.7854877,12.6814892 11.3593269,13.2844704 11.6276945,13.7738099 C11.7565893,14.0084949 11.973237,14.0993073 12.221799,14.0449737 C12.4431055,13.9967198 12.5094547,13.666248 12.717865,13.6600721 C13.1006333,13.6492582 12.7262825,14.0607619 12.6930853,14.2117716 C12.662454,14.3515588 12.7408216,14.3646316 12.8756582,14.39926 C12.9753395,14.4246606 13.1163203,14.3536495 13.2026553,14.4143994 C13.256941,14.4527045 13.2544428,14.6626377 13.3292319,14.5965049 C13.1818818,14.7268241 13.2163168,15.0357402 13.3672229,15.1474114 C13.5346939,15.2713383 13.7317609,15.1566392 13.9071317,15.2042443 C14.2379549,15.2944079 14.0800042,15.1773057 14.3705408,14.9899855 C14.5666175,14.8638958 14.5988243,15.0138721 14.7328281,15.0144248 C14.824182,15.0147372 14.8820688,14.8743252 15.0344604,14.9152016 C15.1587639,14.9486285 15.2079406,15.0510718 15.3564386,15.0747182 C15.4172511,15.0843305 15.4801569,15.0502788 15.5381111,15.0570796 C15.8127806,15.0896173 16.0228339,15.2769375 16.2392565,15.4463067 C16.4174856,15.5856854 16.5356223,15.5574732 16.743875,15.6210347 C16.8960416,15.6674382 17.1768103,15.9024596 17.1624737,16.1088603 C17.1598404,16.1457236 17.0268269,16.3312895 17.0041629,16.4149648 C17.0431216,16.4437297 17.31383,16.3792069 17.3930304,16.3730551 C17.3670579,16.4054486 17.182617,16.5438661 17.182617,16.470452 C17.182617,16.5079641 17.3131548,16.5853193 17.3447764,16.6093501 C17.4410818,16.2759225 17.5990325,16.4904937 17.78919,16.5731116 C17.9508993,16.6433297 18.1498344,16.6472467 18.3221892,16.6909347 C18.4686391,16.7282065 18.7912925,16.8336777 18.8997739,16.9613775 C19.0303117,17.1151026 18.940083,17.3648789 18.8434626,17.517811 C18.7170435,17.7182761 18.5265259,17.7954631 18.4477756,18.0312054 C18.3854775,18.2181171 18.4321561,18.4069753 18.3965733,18.6143131 C18.3485218,18.8946807 18.3099457,18.7964908 18.1406517,18.9675421 C17.998388,19.111727 18.1382435,19.086735 17.9445749,19.1785086 C17.7497586,19.2710033 17.578394,19.2433438 17.4435575,19.4715404 C17.448959,19.4572661 17.4533928,19.4427755 17.4571514,19.4278524 C17.4002549,19.5127292 17.3718067,19.6868325 17.3448439,19.7439057 C17.2768292,19.8897006 17.1831346,19.9816425 17.0756435,20.1029982 C17.0345016,20.1494017 16.6557845,20.7018942 16.6338632,20.6575093 C16.6057976,20.5997872 16.3071586,20.7153755 16.292912,20.6330699 C16.3048405,20.7022547 16.2901212,20.679161 16.3642351,20.718908 C16.2956128,21.1728982 16.1157633,21.2406411 15.6982224,21.2452069 C15.7340303,21.4634548 15.5468886,21.419935 15.4598784,21.5372775 C15.4089912,21.6057412 15.3847292,21.7983482 15.3494615,21.88707 C15.3274726,21.9428455 15.1644805,22.1660918 15.1644805,22.2103325 C15.1643229,22.2511369 15.2192838,22.3107573 15.2707787,22.3679987 C14.9764385,22.4301905 14.6762917,22.4735661 14.371441,22.5 C14.428495,22.4232216 14.442224,22.355719 14.2604164,22.3465152 C14.309143,22.2054543 14.423386,22.1250472 14.47173,21.9881436 C14.4947092,21.9236209 14.4757137,21.8981242 14.4951593,21.8344185 C14.5615985,21.6136714 14.5328352,21.6971064 14.4953168,21.5255024 C14.4074964,21.1240195 14.5265559,21.0141266 14.6290955,20.6466233 C14.734336,20.2687868 14.7245907,19.7788705 14.7919302,19.3720288 C14.8239794,19.1772591 14.8763071,18.7720034 14.8130188,18.5878072 C14.7416281,18.3806135 14.4276848,18.2173481 14.2838456,18.0778012 C14.0802517,17.8797392 13.9720854,17.6657208 13.8208867,17.421015 C13.7440944,17.2965353 13.6566341,17.1746991 13.5968118,17.0394777 C13.4687498,16.7503629 13.5968793,16.9225437 13.6185081,16.7518769 C13.639079,16.5870735 13.6000302,16.4396685 13.661293,16.2666226 C13.7291501,16.0753854 13.8983541,15.9560964 13.9540577,15.7634173 C14.0040671,15.5915729 13.9659861,15.3758003 13.8007658,15.3184868 C13.7086467,15.2864297 13.6070072,15.3603965 13.5145955,15.3442238 C13.3856332,15.3218511 13.2396109,15.2190953 13.1384216,15.136958 C12.9970582,15.0218504 12.9441454,14.8351069 12.7936219,14.7261752 C12.6676529,14.6353628 12.5780995,14.6896964 12.443353,14.6471379 C12.3027548,14.6029692 12.2159697,14.4178118 12.1026044,14.3598735 C11.9325002,14.2729781 11.8366224,14.3978662 11.656998,14.3725377 C11.5042238,14.3511263 11.2712813,14.1705587 11.1286576,14.1020949 C10.8384361,13.9635092 10.661715,13.8104089 10.5457389,13.4960618 C10.4463501,13.2262678 10.3014532,13.1005867 10.1308313,12.8760667 C9.95809383,12.6483507 9.90396568,12.4544701 9.63746605,12.3939365 C9.60631704,12.386559 9.7026224,12.6326346 9.71268281,12.6525081 C9.80779534,12.8406213 9.95080173,13.0126339 10.06581,13.1878666 C10.235014,13.4459575 10.1628806,13.4943796 9.9908183,13.2447715 C9.79390882,12.9592614 9.56555773,12.6753614 9.39484584,12.3729335 C9.33036469,12.2587151 9.34283328,12.1847242 9.23637748,12.0763692 C9.13352273,11.9713786 8.99886626,11.9203131 8.89526877,11.8206814 C8.52269595,11.4628865 8.45490634,10.9850818 8.49739863,10.4751479 C8.51128515,10.3089027 8.56750643,10.1758441 8.54265924,10.0161113 C8.52224582,9.88346116 8.44882957,9.77364032 8.35722807,9.67585895 C8.32765452,9.62568261 8.25340554,9.50192391 8.24919681,9.49406583 C8.16459482,9.34394532 8.09876327,9.19637209 7.96437688,9.07326221 C7.88735959,9.00232324 7.68774935,8.83672689 7.5,8.69790086 C8.34379168,7.57407572 9.44811874,6.68339756 10.7149879,6.13049655 C10.7249807,6.1984557 10.7523037,6.26643887 10.793288,6.33137015 C10.8974706,6.49624558 10.9967244,6.48326892 11.2000032,6.52878329 C11.1781494,6.78086655 10.9024221,6.78278903 10.7157306,6.75553806 C10.4928486,6.72276002 10.2583982,6.64379476 10.0654049,6.85228613 C10.1719957,6.9207259 10.4646254,7.18732377 10.4257341,6.90878258 C10.6391634,6.89739198 10.8455256,6.89066335 11.0544311,6.91791429 C11.1381328,6.92882428 11.4185189,7.02932116 11.4944784,6.98347035 C11.5264601,6.96414957 11.5604,6.79631834 11.5940922,6.74445986 C11.5345625,6.74494047 11.4707565,6.71271516 11.4113843,6.71881897 C11.5497319,6.52974452 11.6874942,6.67818286 11.8635177,6.76507828 C11.6698491,6.89083154 11.7847674,7.1921299 11.9742497,6.9474241 C12.1297922,6.74606989 11.9361912,6.60003464 11.738539,6.48269215 C11.9377666,6.21657489 12.0607422,6.19254408 12.2481765,6.49288122 C12.2791004,6.30772379 12.4190234,6.38185884 12.5653383,6.39548432 L12.5653383,6.34915291 C12.5010146,6.35090716 12.4323248,6.31123229 12.3684288,6.31836945 C12.5175119,6.06453195 12.4223994,6.00640139 12.6354461,5.92354314 C12.8052577,5.85757854 13.2894403,5.91904938 13.3490601,5.74871894 C13.010202,5.81893699 12.6009211,5.83585467 12.2951701,6.00032159 C12.1632819,6.07118846 12.006299,6.29520372 11.8746359,6.14972118 C11.7396644,6.00032159 11.9710988,5.76025373 12.0894831,5.68707991 L12.0612599,5.68707991 C12.5974101,5.56524368 13.1526907,5.5 13.7223306,5.5 C14.0904696,5.5 14.4521493,5.52910132 14.8072345,5.58079159 C14.6844165,5.64971197 14.7753203,5.69621161 14.6858344,5.76666994 C14.5149875,5.90085802 14.2114646,6.01291372 14.0080283,6.09769444 C14.2665606,6.09697351 14.8925792,6.35660245 15.0128991,5.96929779 C14.9294899,5.9556723 14.8461708,5.94197475 14.7628292,5.92825315 C14.9185968,5.81795172 15.0923921,5.72867723 15.2748749,5.66319326 C16.9212938,6.01147188 18.3857476,6.90315934 19.5,8.15437181 C19.4920779,8.15413148 19.4841781,8.15379506 19.4764583,8.15413148 Z M21.5214561,11.7992646 C21.5452942,11.7726352 21.6003658,11.7639538 21.6232345,11.7420426 C21.6712336,11.6959554 21.6605711,11.6646078 21.7196277,11.6252016 C21.782741,11.5825304 21.8683641,11.5720183 21.9390165,11.5387079 C21.9674139,11.5252328 21.9833179,11.5127768 21.9962421,11.5 C22.2083073,11.8110223 22.377148,12.132519 22.5,12.4626783 C22.4964099,12.4649997 22.4941482,12.4686044 22.4894452,12.4705483 C22.4587861,12.4834572 22.2572758,12.4991216 22.2159541,12.4998765 C22.0700898,12.5028395 21.9618493,12.4519775 21.857199,12.4040597 C21.7503945,12.3554624 21.6253885,12.2903138 21.5495663,12.2272978 C21.4685027,12.1601298 21.5185482,12.0910179 21.5244359,12.0141494 C21.529103,11.9495292 21.4693643,11.8574303 21.5214561,11.7992646 Z M21.9402868,17.1936477 C21.8090364,17.0288353 21.654257,16.8077327 21.5610001,16.5941943 C21.4613887,16.3663832 21.5228157,16.1321398 21.5300671,15.8712558 C21.5361163,15.6520029 21.4620948,15.3397703 21.5264987,15.1422439 C21.5560959,15.0521078 21.6238202,15.0222649 21.6517572,14.9483339 C21.7110852,14.7919692 21.6979754,14.6862629 21.7707184,14.5517351 C21.8488046,14.4072689 21.9538355,14.3717113 22.0408524,14.2585512 C22.1319911,14.1396764 22.1293959,14.0460343 22.1871781,13.893921 C22.2293126,13.7825829 22.328676,13.596955 22.4225435,13.5 C22.473456,13.9829528 22.5,14.4779146 22.5,14.9810204 C22.5,15.8518207 22.4199865,16.6958424 22.2716952,17.5 C22.1451581,17.4527648 22.0411577,17.320832 21.9402868,17.1936477 Z" id="Shape" fill="#249CFF" fill-rule="nonzero"></path>
                </g>
            </g>
        </g>
    </g>
</svg>