<?xml version="1.0" encoding="UTF-8"?>
<svg width="18px" height="18px" viewBox="0 0 18 18" version="1.1" xmlns="http://www.w3.org/2000/svg" xmlns:xlink="http://www.w3.org/1999/xlink">
    <!-- Generator: Sketch 51.3 (57544) - http://www.bohemiancoding.com/sketch -->
    <title>Group 4 Copy</title>
    <desc>Created with Sketch.</desc>
    <defs></defs>
    <g id="登录" stroke="none" stroke-width="1" fill="none" fill-rule="evenodd">
        <g id="快捷跳转板块" transform="translate(-210.000000, -167.000000)">
            <g id="Group-4" transform="translate(205.000000, 162.000000)">
                <g fill="#FFFFFF" id="Rectangle-3" opacity="0">
                    <rect x="0" y="0" width="28" height="28"></rect>
                </g>
                <g id="任务" transform="translate(5.000000, 5.000000)">
                    <rect id="Rectangle-path" fill="#000000" fill-rule="nonzero" opacity="0" x="0" y="0" width="18" height="18"></rect>
                    <path d="M2.25,0 L3.375,0 L3.375,2.25 C3.375,2.87132034 3.87867966,3.375 4.5,3.375 L13.5,3.375 C14.1213203,3.375 14.625,2.87132034 14.625,2.25 L14.625,0 L15.75,0 C16.9926407,7.6089797e-17 18,1.00735931 18,2.25 L18,15.75 C18,16.9926407 16.9926407,18 15.75,18 L2.25,18 C1.00735931,18 1.52179594e-16,16.9926407 0,15.75 L0,2.25 C-1.52179594e-16,1.00735931 1.00735931,2.28269391e-16 2.25,0 Z M13.5,0 L13.5,1.125 C13.5,1.74632034 12.9963203,2.25 12.375,2.25 L5.625,2.25 C5.00367966,2.25 4.5,1.74632034 4.5,1.125 L4.5,0 L13.5,0 Z M11.3375759,11.8807085 C11.3097604,11.8528142 11.2790193,11.8315138 11.2496622,11.8083004 C11.6534371,11.1835994 11.8891937,10.4395009 11.8891937,9.63799367 C11.8891937,7.43600065 10.1192411,5.65121764 7.93447528,5.65121764 C5.75093591,5.65121764 3.97975684,7.43600065 3.97975684,9.63799367 C3.97975684,11.8403018 5.75093591,13.6246797 7.93447528,13.6246797 C8.72923122,13.6246797 9.46818738,13.3863688 10.0888151,12.9792408 C10.1114208,13.0095318 10.1321587,13.039654 10.1595129,13.0673119 L12.5500932,15.4779325 C12.713318,15.6419787 12.9258725,15.7237824 13.1387421,15.7237824 C13.3517692,15.7237824 13.5644813,15.6420012 13.7275486,15.4783263 C14.052299,15.1501777 14.052299,14.6189151 13.7278524,14.2910252 L11.3375759,11.8807085 Z M5.2012021,9.63799367 C5.2012021,8.13431377 6.415396,6.91013914 7.90700227,6.91013914 C9.39860854,6.91013914 10.6127912,8.13431377 10.6127912,9.63799367 C10.6127912,11.1418874 9.39860854,12.3657694 7.90700227,12.3657694 C6.41538475,12.3657694 5.2012021,11.1418986 5.2012021,9.63799367 Z" id="Shape" fill="#249CFF" fill-rule="nonzero"></path>
                </g>
            </g>
        </g>
    </g>
</svg>