<?xml version="1.0" encoding="UTF-8"?>
<svg width="24px" height="24px" viewBox="0 0 24 24" version="1.1" xmlns="http://www.w3.org/2000/svg" xmlns:xlink="http://www.w3.org/1999/xlink">
    <!-- Generator: Sketch 51.3 (57544) - http://www.bohemiancoding.com/sketch -->
    <title>icon_graphic_normal</title>
    <desc>Created with Sketch.</desc>
    <defs></defs>
    <g id="系统管理员" stroke="none" stroke-width="1" fill="none" fill-rule="evenodd">
        <g id="快捷跳转板块" transform="translate(-627.000000, -499.000000)">
            <g id="Group-6" transform="translate(594.000000, 347.000000)">
                <g id="option_normal" transform="translate(31.000000, 150.000000)">
                    <g id="icon/option">
                        <rect id="Rectangle-13" stroke="#979797" fill="#D8D8D8" opacity="0" x="0.5" y="0.5" width="27" height="27"></rect>
                        <path d="M7.38177553,2.80001068 C8.24723008,2.80001068 8.90904828,3.46182887 8.90904828,4.32728343 L8.90904828,7.38182893 C8.90904828,8.24728349 8.24723008,8.90910168 7.38177553,8.90910168 L4.32723003,8.90910168 C3.46177547,8.90910168 2.79995728,8.24728349 2.79995728,7.38182893 L2.79995728,4.32728343 C2.79995728,3.46182887 3.46177547,2.80001068 4.32723003,2.80001068 L7.38177553,2.80001068 Z M7.38177553,19.09092 C8.24723008,19.09092 8.90904828,19.7527382 8.90904828,20.6181928 L8.90904828,23.6727383 C8.90904828,24.5381928 8.24723008,25.200011 7.38177553,25.200011 L4.32723003,25.200011 C3.46177547,25.200011 2.79995728,24.5381928 2.79995728,23.6727383 L2.79995728,20.6181928 C2.79995728,19.7527382 3.46177547,19.09092 4.32723003,19.09092 L7.38177553,19.09092 Z M7.38177553,10.9454653 C8.24723008,10.9454653 8.90904828,11.6072835 8.90904828,12.4727381 L8.90904828,15.5272836 C8.90904828,16.3927382 8.24723008,17.0545563 7.38177553,17.0545563 L4.32723003,17.0545563 C3.46177547,17.0545563 2.79995728,16.3927382 2.79995728,15.5272836 L2.79995728,12.4727381 C2.79995728,11.6072835 3.46177547,10.9454653 4.32723003,10.9454653 L7.38177553,10.9454653 Z M15.5272302,2.80001068 C16.3926848,2.80001068 17.0545029,3.46182887 17.0545029,4.32728343 L17.0545029,7.38182893 C17.0545029,8.24728349 16.3926848,8.90910168 15.5272302,8.90910168 L12.4726847,8.90910168 C11.6072301,8.90910168 10.9454119,8.24728349 10.9454119,7.38182893 L10.9454119,4.32728343 C10.9454119,3.46182887 11.6072301,2.80001068 12.4726847,2.80001068 L15.5272302,2.80001068 Z M15.5272302,19.09092 C16.3926848,19.09092 17.0545029,19.7527382 17.0545029,20.6181928 L17.0545029,23.6727383 C17.0545029,24.5381928 16.3926848,25.200011 15.5272302,25.200011 L12.4726847,25.200011 C11.6072301,25.200011 10.9454119,24.5381928 10.9454119,23.6727383 L10.9454119,20.6181928 C10.9454119,19.7527382 11.6072301,19.09092 12.4726847,19.09092 L15.5272302,19.09092 Z M15.5272302,10.9454653 C16.3926848,10.9454653 17.0545029,11.6072835 17.0545029,12.4727381 L17.0545029,15.5272836 C17.0545029,16.3927382 16.3926848,17.0545563 15.5272302,17.0545563 L12.4726847,17.0545563 C11.6072301,17.0545563 10.9454119,16.3927382 10.9454119,15.5272836 L10.9454119,12.4727381 C10.9454119,11.6072835 11.6072301,10.9454653 12.4726847,10.9454653 L15.5272302,10.9454653 Z M23.6726849,2.80001068 C24.5381394,2.80001068 25.1999576,3.46182887 25.1999576,4.32728343 L25.1999576,7.38182893 C25.1999576,8.24728349 24.5381394,8.90910168 23.6726849,8.90910168 L20.6181394,8.90910168 C19.7526848,8.90910168 19.0908666,8.24728349 19.0908666,7.38182893 L19.0908666,4.32728343 C19.0908666,3.46182887 19.7526848,2.80001068 20.6181394,2.80001068 L23.6726849,2.80001068 Z M23.6726849,19.09092 C24.5381394,19.09092 25.1999576,19.7527382 25.1999576,20.6181928 L25.1999576,23.6727383 C25.1999576,24.5381928 24.5381394,25.200011 23.6726849,25.200011 L20.6181394,25.200011 C19.7526848,25.200011 19.0908666,24.5381928 19.0908666,23.6727383 L19.0908666,20.6181928 C19.0908666,19.7527382 19.7526848,19.09092 20.6181394,19.09092 L23.6726849,19.09092 Z M23.6726849,10.9454653 C24.5381394,10.9454653 25.1999576,11.6072835 25.1999576,12.4727381 L25.1999576,15.5272836 C25.1999576,16.3927382 24.5381394,17.0545563 23.6726849,17.0545563 L20.6181394,17.0545563 C19.7526848,17.0545563 19.0908666,16.3927382 19.0908666,15.5272836 L19.0908666,12.4727381 C19.0908666,11.6072835 19.7526848,10.9454653 20.6181394,10.9454653 L23.6726849,10.9454653 Z" id="Combined-Shape" fill="#D1D1D1"></path>
                    </g>
                </g>
            </g>
        </g>
    </g>
</svg>