<?xml version="1.0" encoding="UTF-8"?>
<svg width="20px" height="18px" viewBox="0 0 20 18" version="1.1" xmlns="http://www.w3.org/2000/svg" xmlns:xlink="http://www.w3.org/1999/xlink">
    <!-- Generator: Sketch 51.3 (57544) - http://www.bohemiancoding.com/sketch -->
    <title>Group 3 Copy 2</title>
    <desc>Created with Sketch.</desc>
    <defs></defs>
    <g id="登录" stroke="none" stroke-width="1" fill="none" fill-rule="evenodd">
        <g id="快捷跳转板块" transform="translate(-566.000000, -498.000000)">
            <g id="Group-3" transform="translate(562.000000, 493.000000)">
                <g>
                    <rect id="Rectangle-7" fill="#FFFFFF" opacity="0" x="0" y="0" width="28" height="28"></rect>
                    <g id="运行时配置" transform="translate(4.000000, 4.000000)" fill-rule="nonzero">
                        <rect id="Rectangle-path" fill="#000000" opacity="0" x="0" y="0" width="20" height="20"></rect>
                        <path d="M1,1.25 L19,1.25 C19.5522847,1.25 20,1.69771525 20,2.25 L20,17.75 C20,18.3022847 19.5522847,18.75 19,18.75 L1,18.75 C0.44771525,18.75 6.76353751e-17,18.3022847 0,17.75 L0,2.25 C-6.76353751e-17,1.69771525 0.44771525,1.25 1,1.25 Z M6.02305339,14.7352799 L8.48527065,12.2730441 C8.68052917,12.0777856 8.68053333,11.7612103 8.48527995,11.5659466 L6.02302006,9.10358672 C5.82777243,8.90832883 5.51120848,8.90830974 5.31593731,9.1035441 L5.13906628,9.28029284 C4.94378573,9.47553658 4.94375588,9.79211906 5.13899962,9.98739962 C5.13900643,9.98740643 5.13901325,9.98741325 5.13902006,9.98742006 L6.71744661,11.5659466 C6.9126966,11.7612108 6.91269083,12.0777834 6.71743372,12.2730405 L5.13902006,13.8514133 C4.94375792,14.0466754 4.94375792,14.3632579 5.13902006,14.5585201 C5.13903117,14.5585312 5.13904228,14.5585423 5.13905339,14.5585534 L5.31594661,14.7352799 C5.51121414,14.9305107 5.82777093,14.9304957 6.02302006,14.7352466 L6.02305339,14.7352799 Z M9.25,13.75 C8.97385763,13.75 8.75,13.9738576 8.75,14.25 L8.75,14.5 C8.75,14.7761424 8.97385763,15 9.25,15 L14.5,15 C14.7761424,15 15,14.7761424 15,14.5 L15,14.25 C15,13.9738576 14.7761424,13.75 14.5,13.75 L9.25,13.75 Z M1.25,5 L1.25,6.25 L18.75,6.25 L18.75,5 L1.25,5 Z" id="Shape" fill="#249CFF"></path>
                    </g>
                </g>
            </g>
        </g>
    </g>
</svg>