<?xml version="1.0" encoding="UTF-8"?>
<svg width="20px" height="17px" viewBox="0 0 20 17" version="1.1" xmlns="http://www.w3.org/2000/svg" xmlns:xlink="http://www.w3.org/1999/xlink">
    <!-- Generator: Sketch 51.3 (57544) - http://www.bohemiancoding.com/sketch -->
    <title>Group 6 Copy 2</title>
    <desc>Created with Sketch.</desc>
    <defs></defs>
    <g id="登录" stroke="none" stroke-width="1" fill="none" fill-rule="evenodd">
        <g id="快捷跳转板块" transform="translate(-290.000000, -100.000000)">
            <g id="Group-6" transform="translate(286.000000, 93.000000)">
                <g>
                    <rect id="Rectangle-3" fill="#FFFFFF" opacity="0" x="0" y="0" width="28" height="28"></rect>
                    <g id="角色资料" transform="translate(4.000000, 4.000000)" fill-rule="nonzero">
                        <rect id="Rectangle-path" fill="#000000" opacity="0" x="0" y="0" width="20" height="20"></rect>
                        <path d="M13.625,12.5 L10.375,12.5 L10.375,11.875 L15,11.875 C15.625,11.625 16.25,11.5 17,11.5 C17.75,11.5 18.5,11.625 19.125,11.875 L19.125,4 C19.125,3.75 19,3.5 18.875,3.25 C18.625,3 18.375,3 18.125,3 L1.25,3 C1,3 0.75,3.125 0.5,3.25 C0.375,3.5 0.25,3.75 0.25,4 L0.25,15.625 C0.25,15.875 0.375,16.125 0.5,16.375 C0.625,16.625 1,16.625 1.25,16.625 L10.75,16.625 C11.125,15 12.25,13.5 13.625,12.5 Z M4.875,5.5 C5.875,5.5 6.5,6.25 6.5,7.25 C6.5,8.25 5.875,8.875 4.875,8.875 C3.875,8.875 3.25,8.125 3.25,7.25 C3.25,6.25 4,5.5 4.875,5.5 Z M1.125,13.5 C1.25,11.75 2.875,10.375 4.875,10.375 C6.875,10.375 8.5,11.75 8.625,13.5 L1.125,13.5 Z M8.625,6 L17.75,6 L17.75,6.625 L8.625,6.625 L8.625,6 Z M10,9.125 L17.75,9.125 L17.75,9.75 L10,9.75 L10,9.125 Z" id="Shape" fill="#249CFF"></path>
                        <path d="M19.5,17.375 C19.25,17.25 19.125,17.125 19,17 C18.875,16.875 18.875,16.75 18.875,16.5 C18.875,16.375 18.875,16.125 19,16 C19.125,15.875 19.25,15.75 19.375,15.75 C19.375,15.75 19.5,15.75 19.5,15.625 L19.5,15.375 C19.5,15.25 19.5,15.125 19.375,14.875 C19.375,14.75 19.25,14.625 19.125,14.5 L19,14.375 L18.875,14.375 C18.75,14.5 18.5,14.5 18.375,14.5 C18.25,14.5 18,14.375 17.875,14.25 C17.75,14.125 17.625,14 17.625,13.75 C17.625,13.625 17.625,13.375 17.75,13.25 L17.75,13 C17.75,12.875 17.625,12.875 17.625,12.75 C17.5,12.75 17.5,12.625 17.375,12.625 C17.25,12.625 17.25,12.5 17.125,12.5 L16.875,12.5 C16.875,12.5 16.75,12.5 16.75,12.625 L16.625,12.75 C16.625,12.875 16.5,13 16.375,13.125 C16.25,13.25 16.125,13.25 15.875,13.25 C15.75,13.25 15.5,13.25 15.375,13.125 C15.375,13.5 15.25,13.375 15.25,13.125 C15.25,13.125 15.25,13 15.125,13 L15,12.875 L14.75,12.875 C14.625,12.875 14.625,12.875 14.5,13 C14.375,13 14.375,13.125 14.25,13.125 C14.125,13.125 14.125,13.25 14.125,13.375 L14.125,14.25 C14.125,14.375 14,14.375 14,14.5 C13.875,14.625 13.75,14.75 13.5,14.75 L12.75,14.75 L12.625,14.875 C12.625,15 12.5,15 12.5,15.125 C12.5,15.25 12.5,15.25 12.375,15.375 L12.375,15.75 L12.5,15.875 C12.625,16 12.75,16 12.875,16.125 C13,16.25 13.125,16.375 13.125,16.625 C13.125,16.75 13.125,17 12.875,17.125 C12.625,17.25 12.625,17.375 12.5,17.375 C12.375,17.375 12.375,17.5 12.375,17.625 L12.375,17.875 C12.375,18 12.375,18.125 12.5,18.125 C12.5,18.25 12.625,18.25 12.625,18.375 C12.625,18.5 12.75,18.5 12.75,18.5 L13,18.5 C13.125,18.5 13.25,18.5 13.375,18.375 L13.625,18.375 C13.75,18.375 13.875,18.5 13.875,18.5 C14,18.625 14,18.75 14.125,18.875 C14.125,19 14.125,19.125 14,19.25 L14,19.625 L14.125,19.75 C14.25,19.75 14.25,19.875 14.375,19.875 C14.5,19.875 14.5,20 14.625,20 L15,20 L15.125,19.875 C15.125,19.75 15.25,19.625 15.375,19.5 C15.5,19.375 15.625,19.375 15.875,19.375 C16,19.375 16.25,19.375 16.375,19.5 C16.5,19.625 16.625,19.75 16.625,19.875 C16.625,19.875 16.625,20 16.75,20 L17.125,20 C17.25,20 17.25,20 17.375,19.875 C17.5,19.875 17.5,19.75 17.625,19.75 C17.75,19.75 17.75,19.625 17.75,19.625 C17.875,19.5 17.875,19.375 17.75,19.25 L17.75,19.125 C17.75,19 17.875,18.75 18,18.625 C18,18.5 18.125,18.5 18.25,18.5 L19.25,18.5 L19.375,18.375 C19.375,18.25 19.5,18.25 19.5,18.125 C19.5,18 19.625,18 19.625,17.875 L19.625,17.625 C19.75,17.5 19.5,17.5 19.5,17.375 Z M17.5,17.25 C17.375,17.5 17.25,17.625 17.125,17.75 C17,17.875 16.75,18 16.625,18.125 C16.375,18.25 16.25,18.25 16,18.25 C15.75,18.25 15.5,18.25 15.375,18.125 C15.125,18 15,17.875 14.875,17.75 C14.75,17.625 14.625,17.375 14.5,17.25 C14.375,17 14.375,16.875 14.375,16.625 C14.375,16.375 14.375,16.125 14.5,16 C14.625,15.75 14.75,15.625 14.875,15.5 C15,15.375 15.25,15.25 15.375,15.125 C15.625,15 15.75,15 16,15 C16.25,15 16.5,15 16.625,15.125 C16.875,15.25 17,15.375 17.125,15.5 C17.25,15.625 17.375,15.875 17.5,16 C17.625,16.25 17.625,16.375 17.625,16.625 C17.625,16.875 17.625,17.125 17.5,17.25 Z" id="Shape" fill="#249CFF"></path>
                    </g>
                </g>
            </g>
        </g>
    </g>
</svg>