<?xml version="1.0" encoding="UTF-8"?>
<svg width="20px" height="20px" viewBox="0 0 20 20" version="1.1" xmlns="http://www.w3.org/2000/svg" xmlns:xlink="http://www.w3.org/1999/xlink">
    <!-- Generator: Sketch 51.3 (57544) - http://www.bohemiancoding.com/sketch -->
    <title>icon_company_normal copy 4</title>
    <desc>Created with Sketch.</desc>
    <defs></defs>
    <g id="登录" stroke="none" stroke-width="1" fill="none" fill-rule="evenodd">
        <g id="快捷跳转板块" transform="translate(-565.000000, -428.000000)">
            <g id="icon_custom_normal" transform="translate(561.000000, 424.000000)">
                <g>
                    <rect id="Rectangle-12" stroke="#979797" stroke-width="1.75" fill="#D8D8D8" opacity="0" x="0.875" y="0.875" width="26.25" height="26.25"></rect>
                    <path d="M23.9291785,20.695734 C23.8866855,20.9526349 23.8215297,21.1446048 23.7365439,21.2801129 C23.674221,21.3648055 23.5014164,21.4494981 23.2152974,21.5341907 C22.9291785,21.6188833 22.5750708,21.7007528 22.1558074,21.7797992 C21.733711,21.8588457 21.2662889,21.9294228 20.7478754,21.9887077 C20.7082153,21.9943538 20.6685552,21.9971769 20.6288952,22 C20.6288952,21.966123 20.6373938,21.9378921 20.6373938,21.904015 C20.6373938,21.54266 20.6175637,21.1784818 20.5807365,20.8227729 C20.5354108,20.3993099 20.4645892,20.0351317 20.3626062,19.7104768 C20.1076487,18.9454203 19.6572238,18.3299875 19.0509915,17.892409 C18.6430595,17.598808 18.1813031,17.3531995 17.6713881,17.1640527 C17.2747875,17.0144291 16.8583569,16.881744 16.4390935,16.7688206 C16.243626,16.7151819 16.0566572,16.6587202 15.8866856,16.5966123 C16.1274788,16.3622961 16.3371105,16.0771644 16.5070822,15.7525094 C16.6203966,15.5351317 16.7223796,15.3064617 16.8130312,15.0777917 L16.8186969,15.0608532 C17.0849858,14.8237139 17.3229462,14.5131744 17.5127479,14.1461731 C17.713881,13.7622334 17.8356941,13.327478 17.8866855,12.8193225 C17.937677,12.3958595 17.9206799,12.0147428 17.8385269,11.6562108 C17.7705383,11.3597867 17.6770538,11.1000627 17.5524079,10.8629235 C17.5354108,10.5100376 17.5042493,10.1571518 17.4617564,9.81273525 C17.3824362,9.24811794 17.2521246,8.68914678 17.0736544,8.11888331 C16.8498584,7.40464241 16.4957507,6.74686323 16.0141643,6.15683814 C15.7790368,5.85759096 15.4617564,5.56116687 15.0623229,5.27603513 C14.7450425,5.04736511 14.3852691,4.84692597 14,4.66907152 C14.2152975,4.5279172 14.4362606,4.40087831 14.6600566,4.31053951 C14.9575071,4.18914678 15.2577904,4.10727727 15.5552408,4.06493099 C15.8526912,4.02258472 16.1444759,4 16.4249292,4 C16.7790368,4 17.1303116,4.03952322 17.4759207,4.11856963 C17.8215297,4.19761604 18.1473088,4.30207025 18.4532578,4.43757842 C18.7592068,4.57308659 19.0283286,4.72271016 19.2691218,4.89491844 C19.5070822,5.06430363 19.6912181,5.23651192 19.8271955,5.40589712 C20.1444759,5.79548307 20.3767705,6.22459223 20.5212464,6.69322459 C20.6685552,7.16185697 20.7733711,7.61072774 20.8328612,8.03419072 C20.8951841,8.51976162 20.9235127,9.01380176 20.9235127,9.51348807 C21.0084986,9.57559597 21.0764872,9.6546424 21.1246459,9.75062735 C21.1728045,9.83531995 21.2124646,9.94542034 21.2436261,10.0809285 C21.2747875,10.2136136 21.2776204,10.3773526 21.2521246,10.5721455 C21.2266289,10.8262233 21.1756374,11.0323087 21.0963173,11.1847553 C21.0169971,11.337202 20.9291785,11.4557717 20.8300283,11.5404642 C20.7223796,11.6392723 20.6062323,11.7042033 20.4815864,11.7409034 C20.4220963,11.9469887 20.3597734,12.1417817 20.3002833,12.3252823 C20.2379604,12.4833752 20.1699717,12.6386449 20.0906516,12.7910916 C20.0113314,12.9435383 19.9235128,13.0621079 19.8243626,13.1468005 C19.592068,13.3303011 19.4022663,13.4827478 19.2577904,13.6126098 C19.1133144,13.7396487 19.0141643,13.9570264 18.9660057,14.2619197 C18.9291785,14.4425972 18.917847,14.6289209 18.9291785,14.8180677 C18.9405099,15.0072146 18.9943343,15.1963614 19.0849858,15.3826851 C19.1756374,15.5718319 19.3172805,15.7525094 19.5070821,15.9218946 C19.6968838,16.0912798 19.9603399,16.2437265 20.3031161,16.3792346 C20.6090652,16.5006274 20.9405099,16.6107277 21.3002833,16.7095358 C21.6600566,16.8083438 22.0113314,16.9184442 22.3512748,17.0454831 C22.694051,17.1725219 22.9943343,17.3306148 23.2577904,17.5197616 C23.5184136,17.7089084 23.7053824,17.9686324 23.815864,18.2961104 C23.8781869,18.4909034 23.9235127,18.7308657 23.9546742,19.0159975 C23.9858357,19.3011292 24,19.5919071 24,19.8826851 C23.9915014,20.1678168 23.9716714,20.4416562 23.9291785,20.695734 Z M15.5201761,8.6456693 C15.6649322,9.106994 15.7699514,9.54886523 15.8295569,9.96572487 C15.8920007,10.4437239 15.9203842,10.9300602 15.9203842,11.4219546 C16.0055349,11.483094 16.0736554,11.5609078 16.1219075,11.655396 C16.1701595,11.738768 16.2098965,11.8471515 16.2411184,11.9777675 C16.2723403,12.1111626 16.2751787,12.2695693 16.2496335,12.4641038 C16.2240883,12.7169986 16.1729979,12.9170913 16.0935239,13.0671607 C16.01405,13.2172302 15.9260609,13.3339509 15.8267185,13.4173228 C15.718861,13.5145901 15.5996501,13.5785086 15.4804391,13.6146364 C15.4179953,13.8175081 15.3583898,14.0092635 15.295946,14.1899027 C15.2363406,14.3455303 15.1653817,14.4983789 15.0859077,14.6484483 C15.0064338,14.7985178 14.9184447,14.9152385 14.8191023,14.9986105 C14.5863571,15.1792496 14.3961873,15.3293191 14.2514312,15.4571561 C14.1038367,15.582214 14.0073326,15.796202 13.9590806,16.0963409 C13.9221819,16.274201 13.9108285,16.4576193 13.9221819,16.6438166 C13.9335354,16.8300139 13.9874641,17.0134321 14.0782915,17.1996295 C14.1691189,17.3858268 14.3110367,17.5636869 14.5012065,17.7304307 C14.6913763,17.8971746 14.9553434,18.0472441 15.2987844,18.1806392 C15.6053268,18.300139 15.9374144,18.4085225 16.2978855,18.5057897 C16.6583567,18.603057 17.0103128,18.7114405 17.3509154,18.8364984 C17.6943564,18.9615563 17.9952221,19.1171839 18.2591892,19.3033812 C18.5231563,19.4895785 18.7076494,19.7424734 18.8183453,20.0676239 C18.8779507,20.2593794 18.9233644,20.4955998 18.9545863,20.7762853 C18.9858082,21.0569708 19,21.3432144 19,21.6294581 C19,21.9157017 18.9772932,22.1852709 18.9347178,22.4381658 C18.8921425,22.6910607 18.8296987,22.880037 18.7417096,23.0134321 C18.6792658,23.0968041 18.5061261,23.180176 18.2194522,23.2635479 C17.9327783,23.3469199 17.5779839,23.4275127 17.1550689,23.5053265 C16.7349923,23.5831403 16.2638253,23.6526169 15.7444062,23.7109773 C15.2249871,23.7721167 14.7027297,23.8221399 14.1776339,23.8638258 C13.6525382,23.9055118 13.1473109,23.9388606 12.6647904,23.9638722 C12.18227,23.9888837 11.7650317,24 11.4102373,24 C11.0554428,24 10.6438813,23.9888837 10.1727143,23.9638722 C9.70154726,23.9388606 9.21902682,23.9055118 8.71663787,23.8638258 C8.2170873,23.8221399 7.71753672,23.7748958 7.22366286,23.7193145 C6.729789,23.6665123 6.28132882,23.6081519 5.87828232,23.5497916 C5.47523584,23.4886522 5.13179481,23.4302918 4.85079762,23.3691524 C4.56980044,23.3080129 4.39382238,23.2496526 4.32002513,23.1885132 C4.19797583,23.094025 4.10431011,22.7994442 4.03618958,22.3075498 C3.96806905,21.8156554 3.99645261,21.1820287 4.11850189,20.4038907 C4.1809457,19.9620195 4.35976211,19.6229736 4.6606278,19.3895322 C4.95865513,19.1560908 5.30777287,18.9698935 5.70514265,18.8337193 C6.10251243,18.6947661 6.51407398,18.5724873 6.94266566,18.4668828 C7.37125733,18.3584993 7.74875863,18.2028717 8.07800787,18 C8.33629822,17.8443724 8.5293064,17.6943029 8.66554747,17.5497916 C8.79895018,17.4052802 8.89829263,17.2607689 8.96073644,17.1190366 C9.02034191,16.9745252 9.05156382,16.8244558 9.05156382,16.6688282 C9.05156382,16.5132006 9.0458871,16.3408986 9.03453369,16.1491431 C9.00898849,15.8740157 8.91248439,15.6544696 8.74218307,15.4932839 C8.57188175,15.3320982 8.38171192,15.1653543 8.17451196,14.9986105 C8.07516952,14.9152385 7.99285721,14.7985178 7.91905996,14.6484483 C7.84526271,14.4983789 7.77714218,14.3455303 7.71753672,14.1899027 C7.65509291,14.0120426 7.59548742,13.8202872 7.53304361,13.6146364 C7.44789295,13.5896248 7.36274229,13.5479389 7.27759161,13.4895785 C7.20379436,13.4284391 7.12432041,13.3450671 7.03916975,13.2366836 C6.95401909,13.1283001 6.88022184,12.9726725 6.82061638,12.7698008 C6.74681913,12.5669291 6.71843559,12.3807318 6.73830407,12.213988 C6.7553342,12.0472441 6.78939446,11.9027328 6.84048486,11.783233 C6.88873691,11.652617 6.96821085,11.5275591 7.07890673,11.4052802 C7.06755332,10.9495137 7.09026015,10.4965262 7.15270396,10.0407596 C7.20095601,9.65724874 7.28894502,9.24316814 7.41950938,8.80129691 C7.54723538,8.35942567 7.74024355,7.96201946 7.99569557,7.61741548 C8.22844073,7.2811487 8.48673108,7.00880038 8.77340499,6.80037054 C9.06007889,6.5919407 9.35242951,6.42519685 9.65329521,6.30569709 C9.95132255,6.18619732 10.2521882,6.10560445 10.5502156,6.06391848 C10.8482429,6.02223252 11.1405935,6 11.4215907,6 C11.7763852,6 12.1283412,6.03890691 12.4746206,6.11672072 C12.8209,6.19453453 13.1501492,6.2973599 13.4538533,6.43075498 C13.7603957,6.56415007 14.0300395,6.71144048 14.2712997,6.88096341 C14.5097215,7.04770726 14.6942147,7.21723019 14.8304557,7.38397407 C15.1398365,7.76470589 15.3725816,8.18712366 15.5201761,8.6456693 Z" id="Combined-Shape" fill="#249CFF" fill-rule="nonzero"></path>
                </g>
            </g>
        </g>
    </g>
</svg>