<?xml version="1.0" encoding="UTF-8"?>
<svg width="96px" height="96px" viewBox="0 0 96 96" version="1.1" xmlns="http://www.w3.org/2000/svg" xmlns:xlink="http://www.w3.org/1999/xlink">
    <!-- Generator: Sketch 51.3 (57544) - http://www.bohemiancoding.com/sketch -->
    <title>头像</title>
    <desc>Created with Sketch.</desc>
    <defs>
        <path d="M0,48 C0,74.501002 21.498998,96 48,96 C74.501002,96 96,74.501002 96,48 C96,21.498998 74.501002,0 48,0 C21.498998,0 1.1096668e-14,21.498998 0,48 Z" id="path-1"></path>
        <polygon id="path-3" points="0 0.160281105 70.738548 0.160281105 70.738548 32.2586503 0 32.2586503"></polygon>
        <polygon id="path-5" points="0 0.160281105 70.738548 0.160281105 70.738548 32.2586503 0 32.2586503"></polygon>
        <polygon id="path-7" points="0.187053488 0.152463663 13.417132 0.152463663 13.417132 32.0232558 0.187053488 32.0232558"></polygon>
        <polygon id="path-9" points="0.0099130814 0.0671546512 8.09672703 0.0671546512 8.09672703 18.3662791 0.0099130814 18.3662791"></polygon>
        <path d="M16.3825189,0.122028779 C-6.97067587,0.122028779 1.98029506,32.1106712 3.50540262,34.5613922 C5.18756541,37.2640608 12.6101323,43.2210927 16.3825189,43.2210927 C20.1558474,43.2210927 27.5774724,37.2640608 29.2603416,34.5613922 C30.7861555,32.1106712 39.7364201,0.122028779 16.3825189,0.122028779" id="path-11"></path>
        <polygon id="path-13" points="0.00781261561 0.00470930233 34.4689849 0.00470930233 34.4689849 29.4673981 0.00781261561 29.4673981"></polygon>
    </defs>
    <g id="登录" stroke="none" stroke-width="1" fill="none" fill-rule="evenodd">
        <g id="角色板块选择" transform="translate(-227.000000, -533.000000)">
            <g id="Group-14-Copy-5" transform="translate(198.000000, 523.000000)">
                <g id="头像" transform="translate(29.000000, 10.000000)">
                    <g id="Page-1">
                        <mask id="mask-2" fill="white">
                            <use xlink:href="#path-1"></use>
                        </mask>
                        <use id="Mask" fill="#F0F2F3" fill-rule="nonzero" xlink:href="#path-1"></use>
                        <g mask="url(#mask-2)">
                            <g transform="translate(13.000000, 15.000000)">
                                <g id="Group-3" stroke-width="1" fill="none" transform="translate(0.000000, 48.736570)">
                                    <mask id="mask-4" fill="white">
                                        <use xlink:href="#path-3"></use>
                                    </mask>
                                    <g id="Clip-2"></g>
                                    <path d="M28.2987863,0.160281105 C12.6650799,7.01349331 7.97555669,10.6667346 6.12173983,12.307691 C3.26484157,14.8351735 1.6851061,24.2584875 -0.000117732558,32.2586503 L35.3695683,32.2586503 L70.738548,32.2586503 C69.054266,24.2584875 67.4738241,14.8351735 64.6171613,12.307691 C62.7642863,10.6667346 58.2464172,7.1074439 42.6120044,0.253289826 L28.2987863,0.160281105 Z" id="Fill-1" fill="#FFDECC" mask="url(#mask-4)"></path>
                                </g>
                                <g id="Group-6" stroke-width="1" fill="none" transform="translate(0.000000, 48.736570)">
                                    <mask id="mask-6" fill="white">
                                        <use xlink:href="#path-5"></use>
                                    </mask>
                                    <g id="Clip-5"></g>
                                    <path d="M28.2983154,0.160281105 C12.6650799,7.01349331 7.97555669,10.6667346 6.12173983,12.307691 C3.26484157,14.8351735 1.6851061,24.2584875 -0.000117732558,32.2586503 L35.3695683,32.2586503 L70.738548,32.2586503 C69.054266,24.2584875 67.4738241,14.8351735 64.6171613,12.307691 C62.7642863,10.6667346 58.2464172,7.1074439 42.6120044,0.253289826 L28.2983154,0.160281105 Z" id="Fill-4" fill="#999999" mask="url(#mask-6)"></path>
                                </g>
                                <path d="M27.7795622,35.234011 L27.7795622,46.8363192 L27.7795622,52.5635372 C31.9541233,57.4995924 38.7852017,57.6768977 42.9607047,52.5635372 L42.9607047,46.8363192 L42.9607047,35.234011 C42.9607047,25.8768628 27.7795622,25.8768628 27.7795622,35.234011" id="Fill-7" fill="#D9A78C"></path>
                                <path d="M19.5405907,24.3401939 C20.8770907,23.8989323 22.5785616,25.4172113 23.3395849,27.7290078 C24.1013145,30.0410398 23.6348581,32.2725427 22.2971808,32.7128625 C20.9606808,33.1527113 19.2594453,31.636316 18.4984221,29.3231067 C17.735986,27.0108392 18.2033843,24.7802782 19.5405907,24.3401939" id="Fill-9" fill="#F6C8AC"></path>
                                <path d="M51.1326863,24.3401939 C49.7945381,23.8989323 48.0933026,25.4172113 47.3320439,27.7290078 C46.5703142,30.0410398 47.0384189,32.2725427 48.3742125,32.7128625 C49.7121253,33.1527113 51.4135962,31.636316 52.1746195,29.3231067 C52.9356427,27.0108392 52.4684799,24.7802782 51.1326863,24.3401939" id="Fill-11" fill="#F6C8AC"></path>
                                <path d="M35.4096445,56.3323919 C35.4096445,56.3323919 24.8163044,58.8605808 24.8163044,59.5017523 C24.8163044,60.1431593 28.8472317,80.9952436 28.8472317,80.9952436 L43.2287346,80.9952436 L44.8774613,59.5935837 L35.4096445,56.3323919 Z" id="Fill-13" fill="#343434"></path>
                                <g id="Group-17" stroke-width="1" fill="none" transform="translate(17.659884, 48.972035)">
                                    <mask id="mask-8" fill="white">
                                        <use xlink:href="#path-7"></use>
                                    </mask>
                                    <g id="Clip-16"></g>
                                    <polygon id="Fill-15" fill="#1A1A1A" mask="url(#mask-8)" points="10.1196785 0.152463663 10.1196785 3.59143169 13.417132 32.0233735 7.74689651 32.0233735 1.50942558 19.3600596 7.46363198 15.3903532 0.187053488 11.9888241 6.8782657 1.6055189"></polygon>
                                </g>
                                <polygon id="Fill-18" fill="#1B1B1B" points="42.960634 49.1422055 42.960634 52.5635137 39.6309218 80.9952201 45.3006863 80.9952201 51.5381573 68.3321416 45.5846573 64.3624352 52.8602939 60.9606706 46.9138578 50.897598"></polygon>
                                <polygon id="Fill-20" fill="#268085" points="32.1055509 59.8478154 33.944298 62.6962369 36.7950741 62.6962369 38.6345276 59.8478154 35.4095974 56.3323212"></polygon>
                                <g id="Group-24" stroke-width="1" fill="none" transform="translate(31.316860, 62.629012)">
                                    <mask id="mask-10" fill="white">
                                        <use xlink:href="#path-9"></use>
                                    </mask>
                                    <g id="Clip-23"></g>
                                    <polygon id="Fill-22" fill="#268085" mask="url(#mask-10)" points="2.62734331 0.0671546512 0.0099130814 18.3663262 8.09672703 18.3663262 5.47811948 0.0671546512"></polygon>
                                </g>
                                <polygon id="Fill-25" fill="#343434" points="27.7795622 46.8362956 27.1160215 49.4179352 28.9728994 62.8599323 35.4095738 56.3323683"></polygon>
                                <g id="Rectangle-6" stroke-width="1" fill="none" transform="translate(19.000000, 4.000000)">
                                    <mask id="mask-12" fill="white">
                                        <use xlink:href="#path-11"></use>
                                    </mask>
                                    <use id="Mask" fill="#F2D7BC" xlink:href="#path-11"></use>
                                    <rect fill="#EAC0A7" mask="url(#mask-12)" x="16" y="-10" width="23" height="57"></rect>
                                </g>
                                <polygon id="Fill-31" fill="#343434" points="42.960634 46.8362956 43.4843084 49.3750805 41.7392765 62.9941474 35.4097387 56.3323683"></polygon>
                                <polygon id="Fill-33" fill="#000000" points="27.7795622 46.8362956 35.4095738 56.3323683 42.9607047 46.8362956 42.9607047 46.6100137 35.4095738 56.0637026 27.7795622 46.6100137"></polygon>
                                <polygon id="Fill-35" fill="#000000" points="33.9442038 62.6961663 36.7949799 62.6961663 36.8086369 62.8941663 33.9307823 62.8941663"></polygon>
                                <path d="M50.5702308,27.796398 C50.4520273,28.2327148 50.3305273,28.6202904 50.3305273,28.6202904 C50.3305273,28.6202904 48.236536,35.7482904 46.4462948,37.9564823 C42.9807192,42.2315869 38.4581407,44.8793922 35.3754314,44.897052 C32.3461727,44.9149474 27.882225,42.5092003 24.3796814,38.3292235 C22.9932628,36.675552 20.4492977,29.2287323 20.4066785,28.6202904 C20.3798355,28.2409561 20.2891814,27.8609154 20.207475,27.482523 C19.7388994,27.4679241 19.724536,30.6441131 19.724536,30.6441131 C20.4311669,34.3420927 20.9296465,36.7791567 22.3815244,38.808866 C24.7008558,42.0500433 31.2486698,47.175177 35.2237919,47.175177 C39.2012686,47.175177 45.7476698,42.0507497 48.0660593,38.808866 C49.529475,36.7622032 49.9297657,34.0388137 50.7355273,30.1976712 C50.7355273,30.1976712 50.9335535,27.8258311 50.5702308,27.796398" id="Fill-37" fill="#605343"></path>
                                <path d="M28.4560535,22.4467012 C26.046539,22.3183727 22.8543384,22.6221227 22.2649692,22.8243872 C21.507007,23.0866953 21.4836959,23.1538029 21.4300099,23.7702506 C21.3782076,24.3855209 21.4585012,24.9162593 21.8938762,25.0740209 C22.4919576,25.289236 22.471943,26.1140703 22.7999459,28.4802593 C23.0942773,30.6342942 23.9245273,32.3360006 27.706568,32.6366895 C27.8996494,32.6534076 28.0873151,32.6595297 28.2693297,32.6616488 L28.280632,32.0605064 C26.5428994,32.0748698 24.6097308,31.4167448 23.9591407,30.0734163 C23.046007,28.188518 22.9183849,24.3798698 24.1908384,23.5818785 C24.739943,23.237393 26.5617366,22.9995733 28.446164,23.085518 L28.4560535,22.4467012 Z M35.7008442,23.6654686 C34.8625884,23.6857186 31.4311552,22.6962942 28.9907948,22.4857884 C28.817257,22.4690703 28.6394808,22.4563552 28.4560535,22.4467012 L28.446164,23.085518 C30.4299576,23.1761721 32.4836843,23.625675 33.1870186,24.6845616 C34.3417395,26.4225297 32.2675273,30.6707913 30.3915767,31.6166547 C29.8217512,31.9041576 29.069911,32.0522651 28.280632,32.0605064 L28.2693297,32.6616552 C31.554539,32.6661227 32.7685971,30.29805 33.1735971,29.5073581 C33.936975,28.0201605 33.7792134,25.9692593 35.6596378,25.9657273 C37.5372366,25.9612535 37.291411,27.9742448 37.9627221,29.4600297 C38.324632,30.2613174 39.390818,32.7216924 42.799882,32.6253872 L42.8085942,32.0261285 C41.9684547,32.0393145 41.1683442,31.8945035 40.5827424,31.5933436 C38.7649517,30.655486 36.9466901,26.4175849 38.2092541,24.6749076 C38.9686291,23.6233203 41.0075215,23.1632215 42.9734198,23.0572622 L42.9835448,22.4196227 C42.833318,22.427864 42.684975,22.4384599 42.5408703,22.4525878 C40.3423326,22.6527331 37.676632,23.6139017 35.7008442,23.6654686 Z M42.799882,32.6253872 C42.9300942,32.6216198 43.066664,32.613614 43.2060593,32.6018407 C47.005289,32.2841983 47.9410273,30.5768407 48.3672192,28.421393 C48.8376785,26.0528494 48.8675826,25.2291924 49.4795564,25.0116227 C49.9267047,24.8503291 50.0364314,24.3210035 50.0237163,23.7033785 C50.0072337,23.08905 49.9876901,23.0219424 49.2471523,22.7655209 C48.6606087,22.5606663 45.4170767,22.2668058 42.9835448,22.4196227 L42.9734198,23.0572622 C44.8903413,22.9527157 46.7396843,23.183236 47.2748965,23.5303116 C48.4948413,24.3200616 48.138818,28.1317709 47.1107773,30.0202012 C46.3975535,31.3310355 44.5098297,31.9978727 42.8085942,32.0261285 L42.799882,32.6253872 Z" id="Fill-41" fill="#268085"></path>
                                <g id="Group-45" stroke-width="1" fill="none" transform="translate(18.130814, 0.230756)">
                                    <mask id="mask-14" fill="white">
                                        <use xlink:href="#path-13"></use>
                                    </mask>
                                    <g id="Clip-44"></g>
                                    <path d="M18.5633163,8.71567064 C18.6982378,8.67469971 18.8324529,8.63655436 18.9664326,8.59817355 C18.7667581,8.6457375 18.5670837,8.69612703 18.3667029,8.75122587 C18.4321622,8.73827529 18.497857,8.72720843 18.5633163,8.71567064 M6.31630465,2.6159468 C14.5589965,-4.48120727 30.701543,4.5809032 34.4689849,9.75289448 C32.9488221,14.9519642 33.688418,21.5810137 32.5720779,28.9651997 C32.5725488,28.9541328 32.5720779,28.9440078 32.5730198,28.932941 C32.5595983,29.007348 32.5445285,29.0829323 32.524043,29.162284 C32.5080314,29.2223276 32.3735808,29.3925689 32.3472087,29.439191 C32.307886,29.5088887 32.0154384,29.4330689 31.9181913,29.3873887 C31.882636,29.3711416 31.8668599,29.3261677 31.8654471,29.2884933 C31.8202378,28.6367259 31.8609733,27.3449642 31.8621506,27.3306009 C31.95045,26.3148044 31.8028134,25.2820544 31.9551593,24.289098 C31.1986099,19.6339526 31.8096419,19.4389875 29.203514,14.7899642 C28.983825,14.3983858 27.5891651,12.8089962 27.4000866,12.665598 C23.0515169,11.1108218 21.5355924,13.7011735 17.4307291,15.3364788 C15.8611186,15.9616387 13.4972843,16.0040224 11.7607291,16.0040224 C9.05594128,16.0040224 6.43450814,13.1049759 6.3801157,12.4955922 C3.12834244,17.3998596 2.7951593,20.9042869 1.84058372,25.1169933 C1.9710314,25.848348 2.11254593,26.5794672 2.17729884,27.3306009 C2.17965349,27.3449642 2.21968256,28.6367259 2.17494419,29.2884933 C2.17306047,29.3261677 2.15704884,29.3711416 2.12196453,29.3873887 C2.02518837,29.4330689 1.7320343,29.5088887 1.69271163,29.439191 C1.666575,29.3925689 1.53165349,29.2223276 1.51564186,29.162284 C1.44194128,28.8809032 1.42757791,28.6440253 1.4127436,28.3619381 C1.36329593,27.9939061 1.29713023,27.5990311 1.2467407,27.2018015 C-0.00028255814,22.6429613 -2.29112267,4.57360378 6.31630465,2.6159468" id="Fill-43" fill="#605343" mask="url(#mask-14)"></path>
                                </g>
                            </g>
                        </g>
                    </g>
                </g>
            </g>
        </g>
    </g>
</svg>