<?xml version="1.0" encoding="UTF-8"?>
<svg width="96px" height="97px" viewBox="0 0 96 97" version="1.1" xmlns="http://www.w3.org/2000/svg" xmlns:xlink="http://www.w3.org/1999/xlink">
    <!-- Generator: Sketch 51.3 (57544) - http://www.bohemiancoding.com/sketch -->
    <title>头像</title>
    <desc>Created with Sketch.</desc>
    <defs></defs>
    <g id="系统管理员" stroke="none" stroke-width="1" fill="none" fill-rule="evenodd">
        <g id="角色板块选择" transform="translate(-494.000000, -399.000000)">
            <g id="Group-7-Copy-11" transform="translate(393.000000, 313.000000)">
                <g id="Group-14-Copy" transform="translate(80.000000, 76.000000)">
                    <g id="头像" transform="translate(21.000000, 10.000000)">
                        <path d="M0,48 C0,74.501002 21.498998,96 48,96 C74.501002,96 96,74.501002 96,48 C96,21.498998 74.501002,0 48,0 C21.498998,0 1.1096668e-14,21.498998 0,48 Z" id="Shape" fill="#F0F2F3" fill-rule="nonzero"></path>
                        <path d="M72.8284024,73.9441639 C70.8321217,71.9008019 57.2963652,70 57.2963652,70 L48.4835165,70.7128007 L48.4835165,96.3736264 L48.580896,96.3736264 C59.1952663,96.3261063 68.7048025,92.4743851 76.6899251,86.8194994 C75.3266115,80.9745336 73.8995773,74.989605 72.8284024,73.9441639 Z M24.1386306,73.9441639 C23.1161454,74.989605 21.3633136,81.4998515 20,87.3448173 C27.9851226,92.999703 37.7717667,96.3261063 48.3861369,96.3736264 L48.4835165,96.3736264 L48.4835165,70.7128007 L39.6706678,70 C39.6706678,70 26.1349112,71.9008019 24.1386306,73.9441639 Z" id="Shape" fill="#4F98EA" fill-rule="nonzero"></path>
                        <polygon id="Rectangle-2" fill="#FFFFFF" points="46 75.4 48.4856339 73 50.8 75.4 49.6 79 47.2 79"></polygon>
                        <polygon id="Rectangle-2" fill="#FFFFFF" points="47.0616023 79 49.4616023 79 51.5204572 89.3062582 48.2616023 93.4 45 89.3392277"></polygon>
                        <polygon id="Shape" fill="#D9A78C" fill-rule="nonzero" points="41.1428571 61.1868132 53.8021978 61.1868132 53.8021978 68.6636082 47.4725275 71.7362637 41.1428571 68.7148192 41.1428571 61.1868132"></polygon>
                        <path d="M48.5274725,17.7692308 C55.4854981,17.7692308 66.4615385,21.5416883 66.4615385,39.1464901 C66.4615385,49.2995239 62.9825257,55.9595415 61.4635201,57.8224835 C60.0425149,59.4991313 52.202486,63.1318681 48.5274725,63.1318681 L48.5274725,17.7692308 Z" id="Shape" fill="#EAC0A7" fill-rule="nonzero"></path>
                        <path d="M67.4838521,45.7050658 C67.732769,42.8269504 66.5296708,40.2366465 64.828739,39.948835 C63.086321,39.6610234 61.4683614,41.81961 61.2194446,44.6977254 C60.9705277,47.5758409 62.1736259,50.1661448 63.8745577,50.4539563 C65.6169757,50.6937993 67.2349353,48.5831813 67.4838521,45.7050658 Z" id="Shape" fill="#EAC0A7" fill-rule="nonzero"></path>
                        <path d="M48.5274725,17.7692308 C41.5694469,17.7692308 30.5934066,21.5416883 30.5934066,39.1464901 C30.5934066,49.2995239 34.0724194,55.9595415 35.591425,57.8224835 C37.0124302,59.4991313 44.852459,63.1318681 48.5274725,63.1318681 L48.5274725,17.7692308 Z" id="Shape" fill="#F2D7BC" fill-rule="nonzero"></path>
                        <path d="M66.4068446,41.0596311 C66.4068446,41.0596311 71.2993157,15 47.7024387,15 C44.3317321,15 40.9141292,15.5481531 38.9027204,19.1422391 C33.7907263,19.9547874 30.8937422,23.1121869 29.9154162,27.5448675 C28.5978917,33.514416 30.7072684,40.2675466 30.7072684,40.2675466 C30.7072684,40.2675466 33.1734831,38.065276 33.1734831,46.2527473 L33.7907263,46.2527473 C33.7907263,46.2527473 33.8897529,38.4268987 34.2695949,33.514416 C35.4398879,30.6263736 36.2840545,29.7734946 40.0267552,28.3657878 C42.9736884,31.0428875 44.8614563,32.7721598 48.9691511,34.0093264 C47.8452674,32.1346818 47.0384765,30.5654998 46.5487785,29.3017806 C49.4029905,33.0748189 54.7139941,35.2514309 62.4817894,35.8316164 C62.4817894,35.8316164 62.3393486,40.872409 62.4817894,46.2527473 L63.573835,46.2527473 C63.5263548,46.2059617 62.9882668,37.6910716 66.4068446,41.0596311 Z" id="Shape" fill="#2F343A" fill-rule="nonzero"></path>
                        <path d="M26.4062578,45.7050658 C26.1573409,42.8269504 27.360439,40.2366465 29.0613709,39.948835 C30.8037889,39.6610234 32.4217485,41.81961 32.6706653,44.6977254 C32.9195822,47.5758409 31.716484,50.1661448 30.0155522,50.4539563 C28.3146203,50.6937993 26.6966608,48.5831813 26.4062578,45.7050658 Z" id="Shape" fill="#F2D7BC" fill-rule="nonzero"></path>
                        <path d="M48,70.0357553 L40.8263736,67.5164835 L39.032967,69.0700344 L42.6197802,75.956044 L48,70.0357553 Z M48,70.0357553 L55.1736264,67.5164835 L56.967033,69.0700344 L53.3802198,75.956044 L48,70.0357553 Z" id="Shape" fill="#FFFFFF" fill-rule="nonzero"></path>
                    </g>
                </g>
            </g>
        </g>
    </g>
</svg>