<?xml version="1.0" encoding="UTF-8"?>
<svg width="96px" height="96px" viewBox="0 0 96 96" version="1.1" xmlns="http://www.w3.org/2000/svg" xmlns:xlink="http://www.w3.org/1999/xlink">
    <!-- Generator: Sketch 51.3 (57544) - http://www.bohemiancoding.com/sketch -->
    <title>头像</title>
    <desc>Created with Sketch.</desc>
    <defs>
        <path d="M0,48 C0,74.501002 21.498998,96 48,96 C74.501002,96 96,74.501002 96,48 C96,21.498998 74.501002,0 48,0 C21.498998,0 1.1096668e-14,21.498998 0,48 Z" id="path-1"></path>
        <polygon id="path-3" points="7.25373134e-05 0.164562985 72.6391075 0.164562985 72.6391075 33.1252764 7.25373134e-05 33.1252764"></polygon>
        <polygon id="path-5" points="0 0.164562985 72.6391075 0.164562985 72.6391075 33.1252764 0 33.1252764"></polygon>
        <polygon id="path-7" points="0.0102277612 0.0689346269 8.31405761 0.0689346269 8.31405761 18.8597015 0.0102277612 18.8597015"></polygon>
        <path d="M16.3330215,0.914211343 C-7.64757254,0.914211343 1.54387224,33.7622501 3.11019463,36.2788113 C4.83730806,39.054089 12.4592872,45.1711606 16.3330215,45.1711606 C20.207723,45.1711606 27.8289767,39.054089 29.5568155,36.2788113 C31.1238633,33.7622501 40.3143409,0.914211343 16.3330215,0.914211343" id="path-9"></path>
    </defs>
    <g id="登录" stroke="none" stroke-width="1" fill="none" fill-rule="evenodd">
        <g id="角色板块选择" transform="translate(-1117.000000, -533.000000)">
            <g id="Group-14-Copy-4" transform="translate(1088.000000, 523.000000)">
                <g id="头像" transform="translate(29.000000, 10.000000)">
                    <g id="Page-1">
                        <mask id="mask-2" fill="white">
                            <use xlink:href="#path-1"></use>
                        </mask>
                        <use id="Mask" fill="#F0F2F3" fill-rule="nonzero" xlink:href="#path-1"></use>
                        <g mask="url(#mask-2)">
                            <g transform="translate(12.000000, 15.000000)">
                                <path d="M20.0656101,22.6755269 C21.4380161,22.2224104 23.1851982,23.7814791 23.9666669,26.1553836 C24.7488609,28.5295299 24.2698728,30.8209836 22.8962579,31.2731328 C21.5238519,31.7247985 19.7766699,30.1676642 18.9956848,27.792309 C18.2125236,25.4179209 18.6924788,23.1274343 20.0656101,22.6755269" id="Fill-1" fill="#F6D9C7"></path>
                                <g id="Group-5" stroke-width="1" fill="none" transform="translate(0.000000, 47.727376)">
                                    <mask id="mask-4" fill="white">
                                        <use xlink:href="#path-3"></use>
                                    </mask>
                                    <g id="Clip-4"></g>
                                    <path d="M29.0590039,0.164562985 C13.0055293,7.20189134 8.19001881,10.9532794 6.28615612,12.6383212 C3.35250537,15.2337063 1.73032925,24.9101839 7.25373134e-05,33.1252764 L36.319989,33.1252764 L72.63918,33.1252764 C70.9096487,24.9101839 69.2865054,15.2337063 66.3533382,12.6383212 C64.4506845,10.9532794 59.8111979,7.29836597 43.7569979,0.260070448 L29.0590039,0.164562985 Z" id="Fill-3" fill="#FFDECC" mask="url(#mask-4)"></path>
                                </g>
                                <g id="Group-8" stroke-width="1" fill="none" transform="translate(0.000000, 47.727376)">
                                    <mask id="mask-6" fill="white">
                                        <use xlink:href="#path-5"></use>
                                    </mask>
                                    <g id="Clip-7"></g>
                                    <path d="M29.0586412,0.164562985 C13.0054084,7.20189134 8.18989791,10.9532794 6.28627701,12.6383212 C3.35262627,15.2337063 1.73045015,24.9101839 -4.8358209e-05,33.1252764 L36.3201099,33.1252764 L72.6393009,33.1252764 C70.9095278,24.9101839 69.2866263,15.2337063 66.3534591,12.6383212 C64.4508054,10.9532794 59.811077,7.29836597 43.7571188,0.260070448 L29.0586412,0.164562985 Z" id="Fill-6" fill="#0097A3" mask="url(#mask-6)"></path>
                                </g>
                                <path d="M28.5258304,33.8620379 L28.5258304,45.7760499 L28.5258304,51.6571334 C32.8125439,56.7257991 39.8273857,56.9081096 44.1148245,51.6571334 L44.1148245,45.7760499 L44.1148245,33.8620379 C44.1148245,24.2535036 28.5258304,24.2535036 28.5258304,33.8620379" id="Fill-9" fill="#D9A78C"></path>
                                <path d="M52.5063519,22.6755269 C51.1324952,22.2224104 49.3853131,23.7814791 48.6038445,26.1553836 C47.8216504,28.5295299 48.3020893,30.8209836 49.6737699,31.2731328 C51.0478684,31.7247985 52.7948087,30.1676642 53.5765191,27.792309 C54.3579878,25.4179209 53.8780325,23.1274343 52.5063519,22.6755269" id="Fill-11" fill="#F6D9C7"></path>
                                <polygon id="Fill-13" fill="#343434" points="32.9681364 59.1371087 34.8562827 62.0620549 37.7838887 62.0620549 39.6725185 59.1371087 36.3609484 55.5271684"></polygon>
                                <g id="Group-17" stroke-width="1" fill="none" transform="translate(32.158209, 61.993048)">
                                    <mask id="mask-8" fill="white">
                                        <use xlink:href="#path-7"></use>
                                    </mask>
                                    <g id="Clip-16"></g>
                                    <polygon id="Fill-15" fill="#343434" mask="url(#mask-8)" points="2.69797701 0.0689346269 0.0102277612 18.8597257 8.31405761 18.8597257 5.62558299 0.0689346269"></polygon>
                                </g>
                                <polygon id="Fill-18" fill="#EDEDED" points="28.5258304 45.7760257 27.8444633 48.4270227 29.7514693 62.2301481 36.3608275 55.5272167"></polygon>
                                <g id="Rectangle-5" stroke-width="1" fill="none" transform="translate(20.000000, 1.000000)">
                                    <mask id="mask-10" fill="white">
                                        <use xlink:href="#path-9"></use>
                                    </mask>
                                    <use id="Mask" fill="#F2D7BC" xlink:href="#path-9"></use>
                                    <rect fill="#EAC0A7" mask="url(#mask-10)" x="16" y="-7" width="27" height="60"></rect>
                                </g>
                                <path d="M35.1169818,8.94515642 C34.9818206,8.90284299 34.8473848,8.86391463 34.7131907,8.82450269 C34.9131519,8.87334448 35.1133549,8.92508776 35.3140415,8.98166687 C35.2482743,8.96836836 35.182749,8.95700418 35.1169818,8.94515642 M47.3922296,2.6815594 C39.1307131,-4.60626448 22.9507818,4.69930567 19.174731,10.010246 C20.6982564,15.3487504 19.9569251,22.1561355 21.075934,29.7384609 C21.0754504,29.7273385 21.075934,29.7169415 21.0752087,29.7055773 C21.0882654,29.7819833 21.10374,29.8595982 21.1240504,29.9410818 C21.1402504,30.0027385 21.2749281,30.1775534 21.3012833,30.2254281 C21.3406952,30.2969982 21.6339878,30.2191415 21.7314296,30.1719922 C21.7669728,30.1555504 21.782931,30.1091266 21.7843818,30.07044 C21.8295967,29.4014042 21.788734,28.0749385 21.7872833,28.0601893 C21.6990296,27.0171027 21.8470057,25.9566072 21.6944355,24.9369743 C22.4526922,20.1567654 21.8402355,19.9565624 24.452546,15.18264 C24.6725758,14.7805415 26.0703699,13.1484519 26.259934,13.0012012 C30.6187012,11.4044131 32.1378743,14.0645982 36.251949,15.743837 C37.8252833,16.3857922 40.1948355,16.4290728 41.9352475,16.4290728 C44.6464504,16.4290728 47.2737519,13.4523833 47.3286385,12.8266281 C50.5874982,17.8626519 50.9214116,21.4609863 51.8781788,25.7871116 C51.7473699,26.5381146 51.6056803,27.2888758 51.5408803,28.0601893 C51.5384624,28.0749385 51.4983251,29.4014042 51.5430564,30.07044 C51.5449907,30.1091266 51.5611907,30.1555504 51.5962504,30.1719922 C51.6934504,30.2191415 51.9869848,30.2969982 52.0266385,30.2254281 C52.0527519,30.1775534 52.1879131,30.0027385 52.2038713,29.9410818 C52.2778594,29.6521415 52.2923669,29.4088997 52.3071161,29.119234 C52.3566833,28.7413146 52.422934,28.335831 52.4734684,27.9279296 C53.7230445,23.2466131 56.0195758,4.69181015 47.3922296,2.6815594" id="Fill-24" fill="#2F343A"></path>
                                <polygon id="Fill-26" fill="#EDEDED" points="44.1147278 45.7760257 44.652471 48.3830167 42.8605576 62.3682107 36.3609725 55.5272167"></polygon>
                                <polygon id="Fill-28" fill="#000000" points="28.5258304 45.7760257 36.3608275 55.5272167 44.1148245 45.7760257 44.1148245 45.5436645 36.3608275 55.2513331 28.5258304 45.5436645"></polygon>
                                <polygon id="Fill-30" fill="#000000" points="34.856186 62.0619824 37.7837919 62.0619824 37.797574 62.2599824 34.8424039 62.2599824"></polygon>
                            </g>
                        </g>
                    </g>
                </g>
            </g>
        </g>
    </g>
</svg>