<?xml version="1.0" encoding="UTF-8"?>
<svg width="96px" height="96px" viewBox="0 0 96 96" version="1.1" xmlns="http://www.w3.org/2000/svg" xmlns:xlink="http://www.w3.org/1999/xlink">
    <!-- Generator: Sketch 51.3 (57544) - http://www.bohemiancoding.com/sketch -->
    <title>Page 1</title>
    <desc>Created with Sketch.</desc>
    <defs>
        <path d="M0,48 C0,74.501002 21.498998,96 48,96 C74.501002,96 96,74.501002 96,48 C96,21.498998 74.501002,0 48,0 C21.498998,0 1.1096668e-14,21.498998 0,48 Z" id="path-1"></path>
        <polygon id="path-3" points="2.38445687e-05 0.16019038 71.6343303 0.16019038 71.6343303 32.3926229 2.38445687e-05 32.3926229"></polygon>
        <polygon id="path-5" points="0 0.16019038 71.6342349 0.16019038 71.6342349 32.3926229 0 32.3926229"></polygon>
        <polygon id="path-7" points="0.0928326035 0.0606533662 20.2279123 0.0606533662 20.2279123 24.7709197 0.0928326035 24.7709197"></polygon>
        <polygon id="path-9" points="0.18568161 0.154151339 13.3336245 0.154151339 13.3336245 32.3927411 0.18568161 32.3927411"></polygon>
        <path d="M16.5681509,0.540607147 C-6.85821393,0.540607147 2.12042023,33.068693 3.65079408,35.5607602 C5.33800821,38.3087863 12.7836703,44.3660804 16.5681509,44.3660804 C20.3533401,44.3660804 27.7980573,38.3087863 29.4859801,35.5607602 C31.0168263,33.068693 39.9952243,0.540607147 16.5681509,0.540607147" id="path-11"></path>
    </defs>
    <g id="登录" stroke="none" stroke-width="1" fill="none" fill-rule="evenodd">
        <g id="角色板块选择" transform="translate(-583.000000, -533.000000)">
            <g id="Group-14-Copy-3" transform="translate(554.000000, 523.000000)">
                <g id="头像" transform="translate(29.000000, 10.000000)">
                    <g id="Page-1">
                        <mask id="mask-2" fill="white">
                            <use xlink:href="#path-1"></use>
                        </mask>
                        <use id="Mask" fill="#F0F2F3" fill-rule="nonzero" xlink:href="#path-1"></use>
                        <g mask="url(#mask-2)">
                            <g transform="translate(12.000000, 15.000000)">
                                <g id="Group-3" stroke-width="1" fill="none" transform="translate(0.000000, 47.636384)">
                                    <mask id="mask-4" fill="white">
                                        <use xlink:href="#path-3"></use>
                                    </mask>
                                    <g id="Clip-2"></g>
                                    <path d="M28.6571419,0.16019038 C12.8255405,7.04234743 8.07617928,10.7107663 6.19937327,12.3587765 C3.30631175,14.8965232 1.70634118,24.3592231 2.38445687e-05,32.3926229 L35.8169505,32.3926229 L71.6343541,32.3926229 C69.9280368,24.3592231 68.3280662,14.8965232 65.4352432,12.3587765 C63.5586756,10.7107663 58.9838566,7.13692478 43.1517783,0.253821953 L28.6571419,0.16019038 Z" id="Fill-1" fill="#FFDECC" mask="url(#mask-4)"></path>
                                </g>
                                <g id="Group-6" stroke-width="1" fill="none" transform="translate(0.000000, 47.636384)">
                                    <mask id="mask-6" fill="white">
                                        <use xlink:href="#path-5"></use>
                                    </mask>
                                    <g id="Clip-5"></g>
                                    <path d="M28.6565458,0.16019038 C12.8254213,7.04234743 8.0762985,10.7107663 6.19925405,12.3587765 C3.30643097,14.8965232 1.70646041,24.3592231 -9.53782749e-05,32.3926229 L35.8170698,32.3926229 L71.6342349,32.3926229 C69.928156,24.3592231 68.327947,14.8965232 65.4351239,12.3587765 C63.5585564,10.7107663 58.9837374,7.13692478 43.1516591,0.253821953 L28.6565458,0.16019038 Z" id="Fill-4" fill="#333333" mask="url(#mask-6)"></path>
                                </g>
                                <path d="M27.9466786,34.4454949 L27.9466786,46.240054 L27.9466786,52.0621724 C32.1382548,57.079779 38.9975631,57.2602616 43.1903215,52.0621724 L43.1903215,46.240054 L43.1903215,34.4454949 C43.1903215,24.9335375 27.9466786,24.9335375 27.9466786,34.4454949" id="Fill-7" fill="#D9A78C"></path>
                                <path d="M19.8637423,22.9451136 C21.2349354,22.4846002 22.9800243,24.0680294 23.7609063,26.4796457 C24.5417883,28.891262 24.0633079,31.2193719 22.6913902,31.6784116 C21.3204387,32.1372057 19.5753497,30.5554959 18.7947093,28.1424059 C18.0128611,25.7307896 18.4923077,23.4039077 19.8637423,22.9451136" id="Fill-9" fill="#FFDBBA"></path>
                                <path d="M51.9090181,22.9451136 C50.53676,22.4846002 48.7920938,24.0680294 48.0110514,26.4796457 C47.2302505,28.891262 47.7094058,31.2193719 49.0804564,31.6784116 C50.4524731,32.1372057 52.1973807,30.5554959 52.9781816,28.1424059 C53.758741,25.7307896 53.2798273,23.4039077 51.9090181,22.9451136" id="Fill-11" fill="#FFDBBA"></path>
                                <g id="Group-15" stroke-width="1" fill="none" transform="translate(24.770920, 55.258205)">
                                    <mask id="mask-8" fill="white">
                                        <use xlink:href="#path-7"></use>
                                    </mask>
                                    <g id="Clip-14"></g>
                                    <path d="M10.7250963,0.0606533662 C10.7250963,0.0606533662 0.0928326035,2.59412867 0.0928326035,3.23652118 C0.0928326035,3.87867779 4.13842452,24.7709433 4.13842452,24.7709433 L18.5735635,24.7709433 L20.2279123,3.32852746 L10.7250963,0.0606533662 Z" id="Fill-13" fill="#FFFFFF" mask="url(#mask-8)"></path>
                                </g>
                                <g id="Group-18" stroke-width="1" fill="none" transform="translate(17.784250, 48.271536)">
                                    <mask id="mask-10" fill="white">
                                        <use xlink:href="#path-9"></use>
                                    </mask>
                                    <g id="Clip-17"></g>
                                    <polygon id="Fill-16" fill="#605F5B" mask="url(#mask-10)" points="10.0566424 0.154151339 10.0566424 3.63279828 13.3336245 32.3927888 7.69882524 32.3927888 1.50007809 19.5836033 7.41708528 15.5678561 0.18568161 12.1266037 6.8353531 1.62397197"></polygon>
                                </g>
                                <polygon id="Fill-19" fill="#605F5B" points="43.3712476 48.2715358 43.3712476 51.7510293 40.0145626 80.6642769 45.7313017 80.6642769 52.0194774 67.7869662 46.0173761 63.7497864 53.3527501 60.2901675 47.3575336 50.0571378"></polygon>
                                <polygon id="Fill-21" fill="#C93838" points="32.3927411 58.7668509 34.1809525 61.6097233 36.9551313 61.6097233 38.744259 58.7668509 35.6067567 55.2582054"></polygon>
                                <polygon id="Fill-23" fill="#C93838" points="34.4299318 62.2448751 31.7575893 80.6642769 40.0145626 80.6642769 37.3414988 62.2448751"></polygon>
                                <polygon id="Fill-25" fill="#EDEDED" points="27.9721409 45.7309286 27.3115268 48.3910788 29.1604493 62.2448751 35.5685001 55.5173305"></polygon>
                                <path d="M47.8516226,3.97503094 C51.3528134,4.53668794 53.2881938,6.95009513 54.1174732,10.2265072 C56.2746432,18.754436 51.7584391,37.2490326 36.123345,37.4694961 C28.061355,37.583784 22.2535532,35.5213528 20.1386062,28.9570761 C18.0217616,22.393038 17.1538173,11.8160394 21.752807,5.88786193 C27.5385485,-1.57115297 39.6826518,-1.64106185 47.8516226,3.97503094" id="Fill-29" fill="#755A48"></path>
                                <g id="Rectangle-3" stroke-width="1" fill="none" transform="translate(19.000000, 2.000000)">
                                    <mask id="mask-12" fill="white">
                                        <use xlink:href="#path-11"></use>
                                    </mask>
                                    <use id="Mask" fill="#F2D7BC" xlink:href="#path-11"></use>
                                    <rect fill="#EAC0A7" mask="url(#mask-12)" x="17" y="-5" width="25" height="60"></rect>
                                </g>
                                <path d="M24.1497468,12.6860119 C28.3434497,15.2659958 31.5885176,11.4169231 35.3754592,13.0673151 C39.1633505,14.7184279 49.4071841,6.77713273 51.6430658,24.2212164 C55.2267453,11.5702133 49.7942367,2.52969789 36.1281933,1.92758952 C21.5329863,1.28511635 15.6231919,14.7441365 19.6577996,27.3115268 C19.3932741,20.5030892 21.0390787,16.0492652 24.1497468,12.6860119" id="Fill-33" fill="#755A48"></path>
                                <path d="M24.1449709,11.4702059 C23.905829,13.5120052 28.3946918,13.9016305 29.7604578,13.962269 C31.3023193,14.0306005 32.7932121,13.7778645 34.2616401,13.3350674 C35.1737612,13.0601576 36.055446,12.7094496 36.9501749,12.3897396 C37.7724366,12.0960499 38.6847993,11.8840413 39.3094669,11.2753932 C39.4391833,11.1489121 39.3802433,10.9387135 39.2005245,10.8891619 C37.8209897,10.5072296 36.1590742,11.416129 34.882926,11.8480655 C33.460877,12.3293273 32.0182957,12.7782336 30.4926186,12.8099104 C28.3103882,12.8551631 26.1639084,12.5286652 24.3812141,11.3432722 C24.273721,11.271773 24.1565656,11.3711026 24.1449709,11.4702059" id="Fill-35" fill="#755A48"></path>
                                <path d="M28.7846328,22.2990744 C26.3238544,22.1722667 23.0637379,22.4721844 22.4618295,22.6720519 C21.6877412,22.9314842 21.6639342,22.9975638 21.6093465,23.6069387 C21.556442,24.2149177 21.6382034,24.7393664 22.0828413,24.8952584 C22.6936472,25.1076904 22.6732069,25.9229824 23.0079478,28.2611301 C23.3087817,30.389638 24.1566958,32.0709451 28.0192016,32.3680707 C28.2161505,32.3848233 28.4080493,32.3906401 28.5939363,32.3927342 L28.6054791,31.7989484 C26.8307753,31.8129089 24.8567178,31.1628159 24.192286,29.8354069 C23.2597249,27.9728462 23.1291471,24.2091008 24.4286727,23.420799 C24.9894599,23.0801633 26.8500133,22.8453946 28.7745329,22.9300881 L28.7846328,22.2990744 Z M36.1835607,23.5033985 C35.3274705,23.5231759 31.8230316,22.5454769 29.330751,22.3374658 C29.1535211,22.3211785 28.9719627,22.3086141 28.7846328,22.2990744 L28.7745329,22.9300881 C30.8005329,23.0199006 32.8979539,23.4640765 33.616252,24.5104145 C34.7955403,26.2277862 32.677198,30.4254699 30.7613355,31.3603567 C30.179146,31.6442198 29.411791,31.7908048 28.6054791,31.7989484 L28.5939363,32.3927411 C31.9490404,32.3973877 33.1889283,30.0571459 33.6025449,29.276057 C34.3821642,27.8064838 34.2212865,25.7798875 36.1412372,25.7763973 C38.059264,25.7717439 37.8082083,27.7608796 38.4935614,29.2292894 C38.8634116,30.0210813 39.9522814,32.4522989 43.4333942,32.357135 L43.4427728,31.7647453 C42.5842778,31.777775 41.7676255,31.6349128 41.1690838,31.3370892 C39.3130994,30.4108114 37.4559128,26.2226674 38.745098,24.5008748 C39.5211101,23.4615171 41.6029003,23.0068708 43.6108646,22.9021672 L43.6214455,22.2723169 C43.4677821,22.2804605 43.316283,22.2909308 43.1691125,22.3048913 C40.9237995,22.5026648 38.201625,23.4524428 36.1835607,23.5033985 Z M43.4333942,32.357135 C43.5663768,32.3534122 43.7058522,32.3455012 43.8484537,32.3336348 C47.7285142,32.0199894 48.684161,30.3326327 49.1191798,28.2031941 C49.5998889,25.8622543 49.6304292,25.0483583 50.2554232,24.8335996 C50.7120848,24.6742174 50.824146,24.1509321 50.8111604,23.5406265 C50.7945676,22.9338109 50.7746082,22.8674987 50.0178341,22.6138833 C49.4188114,22.411689 46.1065119,22.1210783 43.6214455,22.2723169 L43.6108646,22.9021672 C45.5685698,22.7990923 47.4572587,23.0268808 48.0038578,23.3698433 C49.2497576,24.1500014 48.8861598,27.9167716 47.8360064,29.7828224 C47.1078488,31.0781223 45.1799625,31.737057 43.4427728,31.7647453 L43.4333942,32.357135 Z" id="Fill-37" fill="#C93838"></path>
                                <polygon id="Fill-39" fill="#EDEDED" points="43.2895032 45.7309286 43.8254733 48.3259052 42.0408325 62.2448751 35.5685001 55.4360398"></polygon>
                                <polygon id="Fill-41" fill="#000000" points="27.9466786 45.9676992 35.6082217 55.8933572 43.1903215 45.9676992 43.1903215 45.7309286 35.6082217 55.6125306 27.9466786 45.7309286"></polygon>
                                <polygon id="Fill-43" fill="#000000" points="34.3130049 62.2448751 37.459147 62.2448751 37.4739554 62.3706352 34.2981965 62.3706352"></polygon>
                            </g>
                        </g>
                    </g>
                </g>
            </g>
        </g>
    </g>
</svg>