<?xml version="1.0" encoding="UTF-8"?>
<svg width="96px" height="97px" viewBox="0 0 96 97" version="1.1" xmlns="http://www.w3.org/2000/svg" xmlns:xlink="http://www.w3.org/1999/xlink">
    <!-- Generator: Sketch 51.3 (57544) - http://www.bohemiancoding.com/sketch -->
    <title>头像</title>
    <desc>Created with Sketch.</desc>
    <defs></defs>
    <g id="登录" stroke="none" stroke-width="1" fill="none" fill-rule="evenodd">
        <g id="角色板块选择" transform="translate(-939.000000, -533.000000)">
            <g id="Group-14-Copy-2" transform="translate(910.000000, 523.000000)">
                <g id="头像" transform="translate(29.000000, 10.000000)">
                    <path d="M0,48 C0,74.501002 21.498998,96 48,96 C74.501002,96 96,74.501002 96,48 C96,21.498998 74.501002,0 48,0 C21.498998,0 1.1096668e-14,21.498998 0,48 Z" id="Shape" fill="#F0F2F3" fill-rule="nonzero"></path>
                    <path d="M72.8723584,73.5705376 C70.8760778,71.5271755 57.3403212,69.6263736 57.3403212,69.6263736 L48.5274725,70.3391743 L48.5274725,96 L48.6248521,96 C59.2392223,95.95248 68.7641013,92.1021723 76.787724,86.3551363 C75.4244104,80.5101705 73.9435334,74.6159786 72.8723584,73.5705376 Z M24.1825866,73.5705376 C23.1601014,74.6159786 21.4072697,81.1262251 20.043956,86.971191 C28.0290786,92.6260766 37.8157227,95.95248 48.430093,96 L48.5274725,96 L48.5274725,70.3391743 L39.7146238,69.6263736 C39.7146238,69.6263736 26.1788673,71.5271755 24.1825866,73.5705376 Z" id="Shape" fill="#E7E7E7" fill-rule="nonzero"></path>
                    <polygon id="Triangle-Copy" fill="#4F98EA" points="48 72.061659 53.3187936 93.96288 51.9692604 95.8622388 48.4621125 96.030961 44.8958009 95.8622388 43.4685585 93.96288"></polygon>
                    <path d="M72.8723584,73.5705376 C70.8760778,71.5271755 57.3403212,69.6263736 57.3403212,69.6263736 L54.6000013,70.3391743 C55.3985105,75.1836386 54.5077645,83.696755 51.9277631,95.8785235 C61.267126,95.2310277 69.6617118,91.4405292 76.8114872,86.3772178 C75.4481736,80.532252 73.9435334,74.6159786 72.8723584,73.5705376 Z M24.1825866,73.5705376 C23.1601014,74.6159786 21.4072697,81.1262251 20.043956,86.971191 C27.1411637,91.9972751 35.6615235,95.1839228 44.9213041,95.8638285 C41.8158861,84.0268107 40.6185556,75.5185926 41.3293124,70.3391743 L39.7146238,69.6263736 C39.7146238,69.6263736 26.1788673,71.5271755 24.1825866,73.5705376 Z" id="Shape" fill="#333333" fill-rule="nonzero"></path>
                    <polygon id="Shape" fill="#D9A78C" fill-rule="nonzero" points="41.1428571 61.1868132 53.8021978 61.1868132 53.8021978 68.6636082 47.4725275 71.7362637 41.1428571 68.7148192 41.1428571 61.1868132"></polygon>
                    <polygon id="Triangle" fill="#4F98EA" transform="translate(48.000000, 72.200000) scale(1, -1) translate(-48.000000, -72.200000) " points="48 70 54 74.4 42 74.4"></polygon>
                    <path d="M48.5274725,17.7692308 C55.4854981,17.7692308 66.4615385,21.5416883 66.4615385,39.1464901 C66.4615385,49.2995239 62.9825257,55.9595415 61.4635201,57.8224835 C60.0425149,59.4991313 52.202486,63.1318681 48.5274725,63.1318681 L48.5274725,17.7692308 Z" id="Shape" fill="#EAC0A7" fill-rule="nonzero"></path>
                    <path d="M67.4838521,45.7050658 C67.732769,42.8269504 66.5296708,40.2366465 64.828739,39.948835 C63.086321,39.6610234 61.4683614,41.81961 61.2194446,44.6977254 C60.9705277,47.5758409 62.1736259,50.1661448 63.8745577,50.4539563 C65.6169757,50.6937993 67.2349353,48.5831813 67.4838521,45.7050658 Z" id="Shape" fill="#EAC0A7" fill-rule="nonzero"></path>
                    <path d="M48.5274725,17.7692308 C41.5694469,17.7692308 30.5934066,21.5416883 30.5934066,39.1464901 C30.5934066,49.2995239 34.0724194,55.9595415 35.591425,57.8224835 C37.0124302,59.4991313 44.852459,63.1318681 48.5274725,63.1318681 L48.5274725,17.7692308 Z" id="Shape" fill="#F2D7BC" fill-rule="nonzero"></path>
                    <path d="M66.4324999,40.7848614 C66.4324999,40.7848614 71.306663,15 47.1573348,15 C43.7866282,15 40.3690253,15.5481531 38.3576166,19.1422391 C33.2456224,19.9547874 30.9898042,22.9099562 30.0316965,27.344237 C28.7418661,33.3137855 30.398457,40.0438356 30.398457,40.0438356 C30.398457,40.0438356 32.6283792,38.065276 32.6283792,46.2527473 L33.2456224,46.2527473 C33.2456224,46.2527473 33.3446491,38.4268987 33.7244911,33.514416 C34.8947841,30.6263736 35.7389507,29.7734946 39.4816513,28.3657878 C44.9605403,33.3430069 52.4455517,35.8316164 61.9366855,35.8316164 C61.9366855,35.8316164 61.7942448,40.872409 61.9366855,46.2527473 L63.0287312,46.2527473 C62.981251,46.2059617 63.0139221,37.4163018 66.4324999,40.7848614 Z" id="Shape" fill="#2F343A" fill-rule="nonzero"></path>
                    <path d="M26.4062578,45.7050658 C26.1573409,42.8269504 27.360439,40.2366465 29.0613709,39.948835 C30.8037889,39.6610234 32.4217485,41.81961 32.6706653,44.6977254 C32.9195822,47.5758409 31.716484,50.1661448 30.0155522,50.4539563 C28.3146203,50.6937993 26.6966608,48.5831813 26.4062578,45.7050658 Z" id="Shape" fill="#F2D7BC" fill-rule="nonzero"></path>
                    <path d="M48,70.0357553 L40.8263736,67.5164835 L39.032967,69.0700344 L42.6197802,75.956044 L48,70.0357553 Z M48,70.0357553 L55.1736264,67.5164835 L56.967033,69.0700344 L53.3802198,75.956044 L48,70.0357553 Z" id="Shape" fill="#FFFFFF" fill-rule="nonzero"></path>
                </g>
            </g>
        </g>
    </g>
</svg>