<?xml version="1.0" encoding="UTF-8"?>
<svg width="96px" height="96px" viewBox="0 0 96 96" version="1.1" xmlns="http://www.w3.org/2000/svg" xmlns:xlink="http://www.w3.org/1999/xlink">
    <!-- Generator: Sketch 51.3 (57544) - http://www.bohemiancoding.com/sketch -->
    <title>头像</title>
    <desc>Created with Sketch.</desc>
    <defs></defs>
    <g id="登录" stroke="none" stroke-width="1" fill="none" fill-rule="evenodd">
        <g id="角色板块选择" transform="translate(-761.000000, -533.000000)">
            <g id="Group-14" transform="translate(732.000000, 523.000000)">
                <g id="头像" transform="translate(29.000000, 10.000000)">
                    <path d="M0,48 C0,74.501002 21.498998,96 48,96 C74.501002,96 96,74.501002 96,48 C96,21.498998 74.501002,0 48,0 C21.498998,0 1.1096668e-14,21.498998 0,48 Z" id="Shape" fill="#F0F2F3" fill-rule="nonzero"></path>
                    <path d="M72.8723584,73.5705376 C70.8760778,71.5271755 57.3403212,69.6263736 57.3403212,69.6263736 L48.5274725,70.3391743 L48.5274725,96 L48.6248521,96 C59.2392223,95.95248 69.0258664,92.6260766 77.010989,86.971191 C75.6476754,81.1262251 73.9435334,74.6159786 72.8723584,73.5705376 Z M24.1825866,73.5705376 C23.1601014,74.6159786 21.4072697,81.1262251 20.043956,86.971191 C28.0290786,92.6260766 37.8157227,95.95248 48.430093,96 L48.5274725,96 L48.5274725,70.3391743 L39.7146238,69.6263736 C39.7146238,69.6263736 26.1788673,71.5271755 24.1825866,73.5705376 Z" id="Shape" fill="#999999" fill-rule="nonzero"></path>
                    <polygon id="Rectangle-2" fill="#FFFFFF" points="45.6 75.6 48.0856339 73.2 50.4 75.6 49.2 79.2 46.8 79.2"></polygon>
                    <polygon id="Rectangle-2" fill="#FFFFFF" points="46.8 79.2 49.2 79.2 51.2588549 89.5062582 48 93.6 44.7383977 89.5392277"></polygon>
                    <polygon id="Shape" fill="#D9A78C" fill-rule="nonzero" points="41.1428571 61.1868132 53.8021978 61.1868132 53.8021978 68.6636082 47.4725275 71.7362637 41.1428571 68.7148192 41.1428571 61.1868132"></polygon>
                    <path d="M48.5274725,17.7692308 C55.4854981,17.7692308 66.4615385,21.5416883 66.4615385,39.1464901 C66.4615385,49.2995239 62.9825257,55.9595415 61.4635201,57.8224835 C60.0425149,59.4991313 52.202486,63.1318681 48.5274725,63.1318681 L48.5274725,17.7692308 Z" id="Shape" fill="#EAC0A7" fill-rule="nonzero"></path>
                    <path d="M67.4838521,45.7050658 C67.732769,42.8269504 66.5296708,40.2366465 64.828739,39.948835 C63.086321,39.6610234 61.4683614,41.81961 61.2194446,44.6977254 C60.9705277,47.5758409 62.1736259,50.1661448 63.8745577,50.4539563 C65.6169757,50.6937993 67.2349353,48.5831813 67.4838521,45.7050658 Z" id="Shape" fill="#EAC0A7" fill-rule="nonzero"></path>
                    <path d="M48.5274725,17.7692308 C41.5694469,17.7692308 30.5934066,21.5416883 30.5934066,39.1464901 C30.5934066,49.2995239 34.0724194,55.9595415 35.591425,57.8224835 C37.0124302,59.4991313 44.852459,63.1318681 48.5274725,63.1318681 L48.5274725,17.7692308 Z" id="Shape" fill="#F2D7BC" fill-rule="nonzero"></path>
                    <g id="Group-2" transform="translate(35.000000, 41.000000)" fill="#E3E3E3" stroke="#333333">
                        <rect id="Rectangle-2" x="0.5" y="0.5" width="11" height="6.2" rx="2"></rect>
                        <rect id="Rectangle-2-Copy" x="15.5" y="0.5" width="11" height="6.2" rx="2"></rect>
                    </g>
                    <path d="M26.4062578,45.7050658 C26.1573409,42.8269504 27.360439,40.2366465 29.0613709,39.948835 C30.8037889,39.6610234 32.4217485,41.81961 32.6706653,44.6977254 C32.9195822,47.5758409 31.716484,50.1661448 30.0155522,50.4539563 C28.3146203,50.6937993 26.6966608,48.5831813 26.4062578,45.7050658 Z" id="Shape" fill="#F2D7BC" fill-rule="nonzero"></path>
                    <path d="M48,70.0357553 L40.8263736,67.5164835 L39.032967,69.0700344 L42.6197802,75.956044 L48,70.0357553 Z M48,70.0357553 L55.1736264,67.5164835 L56.967033,69.0700344 L53.3802198,75.956044 L48,70.0357553 Z" id="Shape" fill="#FFFFFF" fill-rule="nonzero"></path>
                    <path d="M66.6080121,41.131363 C66.6080121,41.131363 71.4672562,15 48.3648623,15 C40.3847997,15 32.4058517,18.830867 30.5778398,27.5448675 C29.2777002,33.742539 30.5778398,40.1097419 30.5778398,40.1097419 C30.5778398,40.1097419 33.8359067,38.065276 33.8359067,46.2527473 L34.4531499,46.2527473 C34.4531499,46.2527473 35.725792,35.5388564 36.105634,30.6263736 C44.4621575,30.6263736 52.3876203,31.9507853 60.3298846,29.0916505 C63.8434229,29.0916505 63.0492525,34.0417188 63.0492525,37.3634928 L63.144213,40.5916957 C63.144213,40.5916957 63.0017723,40.872409 63.144213,46.2527473 L64.2362587,46.2527473 C64.1887785,46.2059617 63.1894343,37.7628034 66.6080121,41.131363 Z" id="Shape" fill="#2F343A" fill-rule="nonzero"></path>
                </g>
            </g>
        </g>
    </g>
</svg>