<?xml version="1.0" encoding="UTF-8"?>
<svg width="100px" height="27px" viewBox="0 0 100 27" version="1.1" xmlns="http://www.w3.org/2000/svg" xmlns:xlink="http://www.w3.org/1999/xlink">
    <!-- Generator: Sketch 54.1 (76490) - https://sketchapp.com -->
    <title>LOGO</title>
    <desc>Created with Sketch.</desc>
    <defs>
        <polygon id="path-1" points="0 0.132252485 3.66407671 0.132252485 3.66407671 3.6499277 0 3.6499277"></polygon>
        <polygon id="path-3" points="0.102202279 0.0819325736 4.36586325 0.0819325736 4.36586325 4.34540076 0.102202279 4.34540076"></polygon>
        <polygon id="path-5" points="0.0133091344 0.115069748 5.03907819 0.115069748 5.03907819 5.14086736 0.0133091344 5.14086736"></polygon>
        <polygon id="path-7" points="0 0.12065107 15.722633 0.12065107 15.722633 14.4703727 0 14.4703727"></polygon>
        <polygon id="path-9" points="0.0453573183 0.0151191061 15.7075139 0.0151191061 15.7075139 14.4853711 0.0453573183 14.4853711"></polygon>
    </defs>
    <g id="UI-规范" stroke="none" stroke-width="1" fill="none" fill-rule="evenodd">
        <g id="icon" transform="translate(-115.000000, -225.000000)">
            <g id="分组-11" transform="translate(115.000000, 225.000000)">
                <g id="分组">
                    <g id="分组-3" transform="translate(0.000000, 2.203229)">
                        <polygon id="Fill-9" fill="#9598A2" points="16.8914213 7.73396477 16.8914213 7.34409623 2.93763849 8.40575438 2.93763849 8.81291548"></polygon>
                        <polygon id="Fill-11" fill="#9598A2" points="16.5161686 7.34409623 16.8914213 7.16826397 14.3380384 1.46881925 13.9537828 1.61700851"></polygon>
                        <polygon id="Fill-13" fill="#9598A2" points="24.9699272 8.81291548 24.9435556 8.44959456 17.7238922 7.34409623 17.625831 7.69423544"></polygon>
                        <polygon id="Fill-15" fill="#9598A2" points="6.60968661 20.277902 5.98100055 20.5634695 1.46881925 8.9913299 1.72950948 8.81291548"></polygon>
                        <polygon id="Fill-17" fill="#9598A2" points="16.6084491 7.34409623 8.07850586 19.3449042 8.56388348 19.8290598 16.8914213 7.53381595"></polygon>
                        <polygon id="Fill-19" fill="#FFFFFF" points="1.46881925 7.12508603 12.7760436 0 13.2193732 0.836315004 2.11048728 7.34409623"></polygon>
                        <polygon id="Fill-21" fill="#FFFFFF" points="8.79028546 21.2978791 24.9699272 9.1445894 24.7338259 8.81291548 8.07850586 20.3283902"></polygon>
                        <path d="M26.4387464,8.44577108 C26.4387464,9.05412081 25.9454484,9.5473251 25.337132,9.5473251 C24.7286948,9.5473251 24.2355176,9.05412081 24.2355176,8.44577108 C24.2355176,7.83730052 24.7286948,7.34409623 25.337132,7.34409623 C25.9454484,7.34409623 26.4387464,7.83730052 26.4387464,8.44577108" id="Fill-23" fill="#FFFFFF"></path>
                        <g id="Group-27" transform="translate(0.000000, 6.609687)">
                            <mask id="mask-2" fill="white">
                                <use xlink:href="#path-1"></use>
                            </mask>
                            <g id="Clip-26"></g>
                            <path d="M3.66407671,1.89116353 C3.66407671,2.86234682 2.84383296,3.6499277 1.83203071,3.6499277 C0.820228448,3.6499277 -1.53002005e-05,2.86234682 -1.53002005e-05,1.89116353 C-1.53002005e-05,0.919833365 0.820228448,0.132252485 1.83203071,0.132252485 C2.84383296,0.132252485 3.66407671,0.919833365 3.66407671,1.89116353" id="Fill-25" fill="#FFFFFF" mask="url(#mask-2)"></path>
                        </g>
                        <path d="M18.3602406,7.34402172 C18.3602406,8.15522187 17.7025803,8.81291548 16.8914213,8.81291548 C16.0802623,8.81291548 15.4226021,8.15522187 15.4226021,7.34402172 C15.4226021,6.53282156 16.0802623,5.87527699 16.8914213,5.87527699 C17.7025803,5.87527699 18.3602406,6.53282156 18.3602406,7.34402172" id="Fill-28" fill="#9598A2"></path>
                        <polygon id="Fill-30" fill="#FFFFFF" points="12.8046994 1.46881925 6.60968661 20.1397207 7.95860491 20.5634695 13.9537828 1.46881925"></polygon>
                    </g>
                    <g id="Group-34" transform="translate(11.750554, 0.000000)">
                        <mask id="mask-4" fill="white">
                            <use xlink:href="#path-3"></use>
                        </mask>
                        <g id="Clip-33"></g>
                        <path d="M4.36586325,2.21363913 C4.36586325,3.39112726 3.41145204,4.34540076 2.23410161,4.34540076 C1.05661349,4.34540076 0.102202279,3.39112726 0.102202279,2.21363913 C0.102202279,1.0362887 1.05661349,0.0818774929 2.23410161,0.0818774929 C3.41145204,0.0818774929 4.36586325,1.0362887 4.36586325,2.21363913" id="Fill-32" fill="#FFFFFF" mask="url(#mask-4)"></path>
                    </g>
                    <g id="Group-37" transform="translate(5.140867, 21.297879)">
                        <mask id="mask-6" fill="white">
                            <use xlink:href="#path-5"></use>
                        </mask>
                        <g id="Clip-36"></g>
                        <path d="M5.03907819,2.62795428 C5.03907819,4.01584566 3.91408505,5.1409816 2.52619366,5.1409816 C1.13844508,5.1409816 0.0133091344,4.01584566 0.0133091344,2.62795428 C0.0133091344,1.24020569 1.13844508,0.115069748 2.52619366,0.115069748 C3.91408505,0.115069748 5.03907819,1.24020569 5.03907819,2.62795428" id="Fill-35" fill="#FFFFFF" mask="url(#mask-6)"></path>
                    </g>
                </g>
                <g id="分组" transform="translate(31.396011, 4.957265)">
                    <g transform="translate(0.000000, 0.135800)">
                        <mask id="mask-8" fill="white">
                            <use xlink:href="#path-7"></use>
                        </mask>
                        <g id="Clip-2"></g>
                        <path d="M13.7158056,9.62667585 L10.682931,9.62667585 L10.682931,11.9201929 L9.11368247,11.9201929 L9.11368247,9.62667585 L6.1864304,9.62667585 L6.17134147,11.9201929 C6.17134147,12.5690169 6.50329789,12.9009733 7.18229966,12.9009733 L12.6897585,12.9009733 C13.3687602,12.9009733 13.7158056,12.5389899 13.7158056,11.8298103 L13.7158056,9.62667585 Z M6.17134147,8.07251625 L9.09859354,8.07251625 L9.09859354,6.26184486 L10.6678421,6.26184486 L10.6678421,8.07251625 L13.7007167,8.07251625 L13.7007167,6.18640022 C13.7007167,5.92988844 13.6101831,5.71879433 13.4442049,5.55266523 C13.2631377,5.38668702 13.006626,5.29615345 12.6444917,5.29615345 L7.22756644,5.29615345 C6.51838682,5.29615345 6.15625254,5.62810987 6.15625254,6.27693379 L6.17134147,8.07251625 Z M4.2097808,4.16448384 L4.2097808,2.41416816 C5.00949399,1.87111763 5.46216184,1.10143141 5.56778434,0.12065107 L7.18229966,0.12065107 C7.13703287,0.392251778 7.09176609,0.664003376 7.03141038,0.920364266 L15.6622773,0.920364266 L15.6622773,2.44434602 L6.35240861,2.44434602 C6.05063004,2.86683601 5.73376255,3.19879243 5.41689506,3.4554551 C5.11511649,3.69672706 4.70771543,3.92306098 4.2097808,4.16448384 L4.2097808,4.16448384 Z M4.04380259,9.62667585 L4.04380259,8.05757821 L4.60209293,8.05757821 L4.587004,5.80917701 C4.587004,5.25088667 4.798249,4.75295204 5.22073899,4.33046205 C5.62814005,3.92306098 6.1864304,3.72690492 6.89561002,3.72690492 L12.9613592,3.72690492 C13.6554499,3.72690492 14.2137402,3.92306098 14.6211413,4.31537312 C15.0587202,4.738014 15.2699652,5.25088667 15.2699652,5.83935487 L15.2699652,8.05757821 L15.722633,8.05757821 L15.722633,9.62667585 L15.2699652,9.62667585 L15.2699652,11.9806995 C15.2699652,13.6404817 14.4853409,14.4703727 12.9160924,14.4703727 L6.95596574,14.4703727 C6.1864304,14.4703727 5.58287327,14.2440388 5.14529435,13.7913709 C4.78316007,13.4141477 4.587004,12.9009733 4.587004,12.2521494 L4.60209293,9.62667585 L4.04380259,9.62667585 Z M-3.01778565e-05,14.2891547 L3.4100676,14.2891547 L3.4100676,12.7199061 L-3.01778565e-05,12.7199061 L-3.01778565e-05,14.2891547 Z M-3.01778565e-05,7.74055983 L3.4100676,7.74055983 L3.4100676,6.17146218 L-3.01778565e-05,6.17146218 L-3.01778565e-05,7.74055983 Z M-3.01778565e-05,1.91623353 L3.4100676,1.91623353 L3.4100676,0.346984994 L-3.01778565e-05,0.346984994 L-3.01778565e-05,1.91623353 Z" id="Fill-1" fill="#FFFFFF" mask="url(#mask-8)"></path>
                    </g>
                    <g transform="translate(17.352267, 0.135800)">
                        <mask id="mask-10" fill="white">
                            <use xlink:href="#path-9"></use>
                        </mask>
                        <g id="Clip-4"></g>
                        <path d="M8.32902803,4.96428757 L8.32902803,3.3799501 C8.6911623,3.30450546 8.97800283,3.01781582 9.18909694,2.53497012 C9.30980836,2.26336941 9.43067068,1.87105728 9.5513821,1.34294479 C9.67194264,0.82992123 9.77771603,0.392342312 9.86809871,0.0452969625 L11.497703,0.0452969625 L11.2261022,1.08643301 L15.7075139,1.08643301 L15.7075139,2.65568155 L15.0135741,2.65568155 L14.8626848,5.68855612 C14.8626848,5.8394454 14.8021782,6.33738003 14.7117956,7.19744894 C14.6211111,7.99716214 14.440044,8.76669748 14.1684433,9.49096603 C13.9873761,9.97381174 13.6855975,10.547191 13.2631076,11.210953 C13.9421093,11.9051946 14.7570623,12.433307 15.7075139,12.7652635 L15.7075139,14.4854013 C14.3193325,14.0478224 13.1423961,13.3688206 12.1616158,12.4785738 C11.6335033,12.9161527 11.1959244,13.2330202 10.848879,13.4442652 C10.2754998,13.8063995 9.52105336,14.153294 8.58553981,14.4854013 L8.58553981,12.7803524 C9.26454158,12.433307 9.79265407,12.1466174 10.1549392,11.8899547 C10.411451,11.7090385 10.6979898,11.4676156 11.0299462,11.1658371 C10.4263891,10.1397899 10.018988,9.18918747 9.79265407,8.3440566 C9.44560872,7.07673752 9.24960354,5.96015683 9.1741589,4.96428757 L10.833941,4.96428757 C10.9545015,6.17140182 11.1357196,7.16727109 11.3769915,7.96683339 C11.5278808,8.49494588 11.6638321,8.87216909 11.7994815,9.11374283 C11.9203438,9.32483693 12.0107265,9.53623282 12.1012601,9.73238889 C12.6446124,8.75160855 12.961329,7.52940536 13.0669515,6.08086825 L13.2932854,2.67077047 L10.8187012,2.67077047 C10.3660333,3.98350723 9.53614229,4.75304257 8.32902803,4.96428757 L8.32902803,4.96428757 Z M0.0453573183,14.4550725 L0.0453573183,12.8859749 L3.13858761,12.8859749 L3.13858761,10.2454124 L0.211184639,10.2454124 L0.211184639,8.67616391 L3.13858761,8.67616391 L3.13858761,7.27289358 L2.27836781,7.28798251 C1.88620656,7.28798251 1.49374354,7.21253787 1.08634248,7.06164859 C0.784563912,6.95602609 0.558229989,6.7447811 0.407340706,6.47318039 C0.286629281,6.24684646 0.226424457,6.00542361 0.226424457,5.7338229 C0.226424457,5.4622222 0.316807137,5.13026578 0.512963204,4.72286471 C0.588407845,4.57197543 0.739297128,4.25510794 0.980870868,3.80244009 L2.17274531,1.58436764 L0.0602953572,1.58436764 L0.0602953572,0.0151191061 L7.8310934,0.0151191061 L7.8310934,1.58436764 L4.13430598,1.58436764 L2.42925709,4.78322043 C2.33887441,4.96428757 2.27836781,5.1453547 2.27836781,5.31133291 C2.27836781,5.53766684 2.45958583,5.65837826 2.80648029,5.65837826 L5.13032613,5.65837826 C5.37159809,5.65837826 5.58299398,5.53766684 5.76391023,5.31133291 C5.82426594,5.22079935 5.85459469,5.11517685 5.85459469,5.00955435 C5.85459469,4.93410971 5.83935487,4.85866507 5.82426594,4.7681315 L5.62826076,3.89297366 L7.34824769,3.89297366 L7.57458162,4.93410971 C7.63493733,5.19062149 7.66526607,5.38677756 7.66526607,5.52257791 C7.66526607,5.99033468 7.49913697,6.38264682 7.15209162,6.71460324 C6.77486842,7.07673752 6.26199575,7.27289358 5.61302095,7.27289358 L4.72292507,7.27289358 L4.70768525,8.66107498 L7.63493733,8.66107498 L7.63493733,10.2301726 L4.70768525,10.2301726 L4.70768525,12.8707351 L7.81615536,12.8707351 L7.81615536,14.4401345 L0.0453573183,14.4401345 L0.0453573183,14.4550725 Z" id="Fill-3" fill="#FFFFFF" mask="url(#mask-10)"></path>
                    </g>
                    <path d="M48.5410218,3.89297366 L36.7565688,3.89297366 L36.7565688,4.24001901 C36.7565688,4.58706436 36.922547,4.75304257 37.2697433,4.75304257 L47.86202,4.75304257 C48.1487096,4.75304257 48.3299277,4.70777579 48.4203103,4.60215329 C48.5109948,4.51161972 48.5410218,4.34564151 48.5410218,4.10421866 L48.5410218,3.89297366 Z M36.7565688,2.62550369 L48.5410218,2.62550369 L48.5410218,2.24828048 C48.5410218,1.93141299 48.3299277,1.76543478 47.9074377,1.76543478 L37.3299481,1.76543478 C36.9527249,1.76543478 36.7716577,1.93141299 36.7716577,2.26336941 L36.7716577,2.62550369 L36.7565688,2.62550369 Z M34.7950081,14.545757 L34.7950081,12.9765085 L41.8264487,12.9765085 L41.8264487,11.9202835 L35.006404,11.9202835 L35.006404,10.3510349 L41.8264487,10.3510349 L41.8264487,9.21936533 L36.3189899,9.21936533 C35.8512331,9.59658853 35.3534494,9.85310031 34.8402749,9.98874978 L34.8402749,8.34420749 C35.247676,8.19331821 35.5797833,7.90662857 35.8061172,7.48413858 C35.9417667,7.2276268 36.062629,6.89567038 36.1833404,6.44300253 L37.7978557,6.44300253 C37.7524381,6.60898074 37.6317266,7.0163818 37.4355706,7.63502786 L41.8416885,7.63502786 L41.8416885,6.30720218 L36.7565688,6.30720218 C36.2135183,6.30720218 35.7908774,6.12613504 35.4890988,5.74891183 C35.2929428,5.50748898 35.2025601,5.19062149 35.2025601,4.81339828 L35.2025601,1.76543478 C35.2025601,1.31276693 35.3081826,0.965721585 35.5043387,0.724298733 C35.8210553,0.362164455 36.303901,0.181097317 36.9679647,0.181097317 L48.2241543,0.181097317 C48.6768221,0.181097317 48.9936896,0.211275173 49.1899966,0.286719814 C49.5821578,0.437609097 49.8537585,0.709209805 50.0046478,1.11661087 C50.0651544,1.29767801 50.1102703,1.46365622 50.1102703,1.64472335 L50.1102703,4.72286471 C50.1102703,5.22079935 49.9744699,5.61311148 49.6879312,5.88471219 C49.4010907,6.17140182 49.0391073,6.30720218 48.5864394,6.30720218 L43.3807592,6.30720218 L43.3807592,7.63502786 L50.4725555,7.63502786 L50.4725555,9.21936533 L43.3807592,9.21936533 L43.3807592,10.335946 L50.2008039,10.335946 L50.2008039,11.9051946 L43.3807592,11.9051946 L43.3807592,12.9614195 L50.4120489,12.9614195 L50.4120489,14.5306681 L34.7950081,14.5306681 L34.7950081,14.545757 Z" id="Fill-5" fill="#FFFFFF"></path>
                    <path d="M55.1047055,12.1616762 L55.1047055,10.8640283 L63.1018375,10.8640283 C63.2679666,10.8640283 63.3885271,10.8338505 63.4337939,10.7885837 C63.4639718,10.7584058 63.4943005,10.6678723 63.5244784,10.5471608 L65.0031933,10.5471608 C64.8219753,11.6335637 64.2034801,12.1616762 63.1320154,12.1616762 L55.1047055,12.1616762 Z M55.1047055,9.98887049 L55.1047055,8.69122266 L63.0867486,8.69122266 C63.3434112,8.69122266 63.4943005,8.58560016 63.5244784,8.37435517 L65.0031933,8.37435517 C65.0031933,8.64595588 64.9125089,8.91755658 64.7465307,9.20424622 C64.6107303,9.44566907 64.3996362,9.62673621 64.1429735,9.77762549 C63.8715237,9.92851477 63.5846832,10.0039594 63.2981445,10.0039594 L55.1047055,10.0039594 L55.1047055,9.98887049 Z M55.014172,7.86133161 L55.014172,6.56368378 L56.3118198,6.56368378 C56.9455548,6.56368378 57.5943787,6.53350592 58.2582915,6.48823914 C57.5643517,6.05066022 56.9153769,5.6130813 56.3118198,5.16041345 L58.6053369,5.16041345 C58.9071155,5.34148059 59.5106726,5.62817023 60.4010702,6.03557129 C61.5629177,5.47728095 62.3021243,5.10005774 62.6191427,4.88881275 C62.9056814,4.70774561 63.0416327,4.52667847 63.0416327,4.37578919 C63.0416327,4.20981098 62.7246143,4.13436633 62.0910302,4.13436633 L57.0964441,4.13436633 C56.7946655,4.51158954 56.5081268,4.79827918 56.251615,4.99443524 C55.9800143,5.22076917 55.5875512,5.44710309 55.0746786,5.68852594 L55.0746786,4.14945526 C55.3462793,3.92312134 55.6027911,3.65152063 55.844063,3.30447528 C55.9195077,3.18376386 56.0703969,2.88198529 56.2817928,2.36896173 L57.956513,2.36896173 L57.8508905,2.76127387 L62.3173641,2.76127387 C63.2981445,2.76127387 63.9920843,2.95742993 64.4145743,3.364831 C64.656148,3.60625385 64.7917975,3.89294348 64.7917975,4.2248999 C64.7917975,4.67756775 64.5505255,5.11514667 64.0525909,5.52254773 C63.7508123,5.77905951 63.2527268,6.095927 62.5586361,6.518417 C62.8302368,6.53350592 63.0416327,6.53350592 63.1621932,6.54859485 C63.4490337,6.56368378 63.6451898,6.57877271 63.7206344,6.57877271 L65.2897321,6.57877271 L65.2897321,7.87642054 L63.9166396,7.87642054 C62.8907434,7.87642054 61.7590738,7.74062018 60.5367197,7.46901947 C60.0086072,7.61990876 59.4957345,7.72553125 58.9676221,7.77079804 C58.1679089,7.84624268 57.730179,7.87642054 57.6245566,7.87642054 L55.014172,7.87642054 L55.014172,7.86133161 Z M55.1801502,13.0217451 L64.9426867,13.0217451 C65.3651767,13.0217451 65.6518664,12.9312115 65.8027557,12.7350554 C65.9687339,12.5539883 66.0441785,12.2522097 66.0441785,11.8598976 L66.0441785,2.98760779 C66.0441785,2.55002887 65.9687339,2.24825031 65.8027557,2.09736102 C65.6067505,1.88611603 65.2597051,1.78049353 64.8070373,1.78049353 L55.3159505,1.78049353 C54.8632827,1.78049353 54.5615041,1.82576032 54.4257038,1.91629389 C54.2748145,2.02191638 54.1693429,2.12753888 54.0938982,2.26333923 C54.0184536,2.39913959 53.9882757,2.64056244 53.9882757,2.98760779 L53.9882757,11.8598976 C53.9882757,12.2974765 54.0786584,12.5992551 54.2748145,12.7803222 C54.4409436,12.9463004 54.7427221,13.0217451 55.1801502,13.0217451 L55.1801502,13.0217451 Z M52.4341161,12.1616762 L52.4341161,2.68582922 C52.4341161,1.8710271 52.6452102,1.25238104 53.0526113,0.829891053 C53.2940341,0.588468201 53.5203681,0.437578919 53.7619418,0.362134278 C54.0184536,0.271600708 54.3351702,0.226333923 54.7274823,0.226333923 L65.1991985,0.226333923 C65.8330844,0.226333923 66.3006903,0.316867493 66.5875308,0.51302356 C67.2814706,0.965691407 67.628516,1.62960425 67.628516,2.53493994 L67.628516,12.0107869 C67.628516,12.7652333 67.5230444,13.2933458 67.3267374,13.5951243 C66.8740696,14.2741261 66.1950678,14.6060825 65.2746432,14.6060825 L54.802927,14.6060825 C54.0333916,14.6060825 53.4449234,14.3948375 53.0224334,13.9874365 C52.7960995,13.7611025 52.6452102,13.5347686 52.5697656,13.3386126 C52.4793829,13.036834 52.4341161,12.6445219 52.4341161,12.1616762 L52.4341161,12.1616762 Z" id="Fill-7" fill="#FFFFFF"></path>
                </g>
            </g>
        </g>
    </g>
</svg>