<?xml version="1.0" standalone="no"?>
<!DOCTYPE svg PUBLIC "-//W3C//DTD SVG 1.1//EN" "http://www.w3.org/Graphics/SVG/1.1/DTD/svg11.dtd" >
<!--
2013-9-30: Created.
-->
<svg>
<metadata>
Created by iconfont
</metadata>
<defs>

<font id="iconfont" horiz-adv-x="1024" >
  <font-face
    font-family="iconfont"
    font-weight="500"
    font-stretch="normal"
    units-per-em="1024"
    ascent="896"
    descent="-128"
  />
    <missing-glyph />
    
    <glyph glyph-name="sousuo" unicode="&#58891;" d="M953.6-128l-243.2 256c-70.4-57.6-185.6-108.8-281.6-108.8C192 19.2 0 217.6 0 460.8S192 896 428.8 896s428.8-198.4 428.8-435.2c0-96-32-185.6-83.2-256l249.6-249.6-70.4-83.2zM428.8 806.4c-185.6 0-339.2-153.6-339.2-345.6s153.6-345.6 339.2-345.6S768 268.8 768 460.8 614.4 806.4 428.8 806.4z"  horiz-adv-x="1024" />

    
    <glyph glyph-name="xinjian" unicode="&#58892;" d="M480 825.6v-409.6H70.4v-64h409.6v-409.6h64V352h409.6v64H544V825.6z"  horiz-adv-x="1024" />

    
    <glyph glyph-name="gengduo" unicode="&#58894;" d="M364.8 736l294.4-294.4 64-64-64-64-288-288-64 64 288 288-294.4 294.4z"  horiz-adv-x="1024" />

    
    <glyph glyph-name="shouye" unicode="&#58895;" d="M523.636364 816.872727L148.945455 481.745455v-530.618182h749.381818V481.745455L523.636364 816.872727z m372.363636-944.872727H148.945455C104.727273-128 69.818182-93.090909 69.818182-48.872727V481.745455c0 23.272727 9.309091 44.218182 25.6 58.181818L470.109091 875.054545c30.254545 27.927273 74.472727 27.927273 104.727273 0l372.363636-335.127272c16.290909-13.963636 25.6-37.236364 25.6-58.181818v-530.618182c2.327273-44.218182-32.581818-79.127273-76.8-79.127273zM572.509091 30.254545h-102.4V314.181818c0 23.272727 18.618182 41.890909 41.890909 41.890909h20.945455c23.272727 0 41.890909-18.618182 41.890909-41.890909v-283.927273z"  horiz-adv-x="1024" />

    
    <glyph glyph-name="shouye-nor" unicode="&#58896;" d="M523.636364 816.872727L148.945455 481.745455v-530.618182h749.381818V481.745455L523.636364 816.872727z m372.363636-944.872727H148.945455C104.727273-128 69.818182-93.090909 69.818182-48.872727V481.745455c0 23.272727 9.309091 44.218182 25.6 58.181818L470.109091 875.054545c30.254545 27.927273 74.472727 27.927273 104.727273 0l372.363636-335.127272c16.290909-13.963636 25.6-37.236364 25.6-58.181818v-530.618182c2.327273-44.218182-32.581818-79.127273-76.8-79.127273zM572.509091 30.254545h-102.4V314.181818c0 23.272727 18.618182 41.890909 41.890909 41.890909h20.945455c23.272727 0 41.890909-18.618182 41.890909-41.890909v-283.927273z"  horiz-adv-x="1024" />

    
    <glyph glyph-name="kehu" unicode="&#58897;" d="M521.309091 816.872727c-72.145455 0-128-20.945455-162.909091-58.181818-55.854545-62.836364-53.527273-158.254545-48.872727-197.818182 4.654545-44.218182 34.909091-125.672727 86.109091-167.563636 9.309091-6.981818 13.963636-18.618182 13.963636-30.254546s-4.654545-23.272727-13.963636-30.254545L148.945455 111.709091v-160.581818h747.054545v160.581818l-249.018182 218.763636c-9.309091 6.981818-13.963636 18.618182-13.963636 30.254546s6.981818 23.272727 16.290909 30.254545c55.854545 41.890909 81.454545 116.363636 90.763636 169.890909 2.327273 20.945455 13.963636 125.672727-46.545454 193.163637-34.909091 41.890909-93.090909 62.836364-172.218182 62.836363M896-128H148.945455C104.727273-128 69.818182-93.090909 69.818182-48.872727v160.581818c0 23.272727 9.309091 44.218182 25.6 58.181818l218.763636 193.163636c-51.2 60.509091-79.127273 144.290909-83.781818 188.509091-4.654545 48.872727-9.309091 172.218182 69.818182 258.327273C351.418182 868.072727 425.890909 896 521.309091 896c102.4 0 179.2-30.254545 232.727273-90.763636 79.127273-90.763636 69.818182-218.763636 65.163636-253.672728-9.309091-74.472727-41.890909-141.963636-86.109091-190.836363l216.436364-190.836364c16.290909-13.963636 25.6-37.236364 25.6-58.181818v-160.581818c0-44.218182-34.909091-79.127273-79.127273-79.127273M546.909091 272.290909l20.945454 55.854546c2.327273 4.654545 0 6.981818-2.327272 9.30909-23.272727 20.945455-60.509091 20.945455-83.781818 0-2.327273-2.327273-4.654545-6.981818-2.327273-9.30909l20.945454-55.854546-27.927272-174.545454c0-2.327273 0-6.981818 2.327272-9.309091l39.563637-55.854546c4.654545-4.654545 13.963636-4.654545 18.618182 0l39.563636 58.181818c2.327273 2.327273 2.327273 4.654545 2.327273 9.309091l-27.927273 172.218182z"  horiz-adv-x="1024" />

    
    <glyph glyph-name="kehu-nor" unicode="&#58898;" d="M521.309091 816.872727c-72.145455 0-128-20.945455-162.909091-58.181818-55.854545-62.836364-53.527273-158.254545-48.872727-197.818182 4.654545-44.218182 34.909091-125.672727 86.109091-167.563636 9.309091-6.981818 13.963636-18.618182 13.963636-30.254546s-4.654545-23.272727-13.963636-30.254545L148.945455 111.709091v-160.581818h747.054545v160.581818l-249.018182 218.763636c-9.309091 6.981818-13.963636 18.618182-13.963636 30.254546s6.981818 23.272727 16.290909 30.254545c55.854545 41.890909 81.454545 116.363636 90.763636 169.890909 2.327273 20.945455 13.963636 125.672727-46.545454 193.163637-34.909091 41.890909-93.090909 62.836364-172.218182 62.836363M896-128H148.945455C104.727273-128 69.818182-93.090909 69.818182-48.872727v160.581818c0 23.272727 9.309091 44.218182 25.6 58.181818l218.763636 193.163636c-51.2 60.509091-79.127273 144.290909-83.781818 188.509091-4.654545 48.872727-9.309091 172.218182 69.818182 258.327273C351.418182 868.072727 425.890909 896 521.309091 896c102.4 0 179.2-30.254545 232.727273-90.763636 79.127273-90.763636 69.818182-218.763636 65.163636-253.672728-9.309091-74.472727-41.890909-141.963636-86.109091-190.836363l216.436364-190.836364c16.290909-13.963636 25.6-37.236364 25.6-58.181818v-160.581818c0-44.218182-34.909091-79.127273-79.127273-79.127273M546.909091 272.290909l20.945454 55.854546c2.327273 4.654545 0 6.981818-2.327272 9.30909-23.272727 20.945455-60.509091 20.945455-83.781818 0-2.327273-2.327273-4.654545-6.981818-2.327273-9.30909l20.945454-55.854546-27.927272-174.545454c0-2.327273 0-6.981818 2.327272-9.309091l39.563637-55.854546c4.654545-4.654545 13.963636-4.654545 18.618182 0l39.563636 58.181818c2.327273 2.327273 2.327273 4.654545 2.327273 9.309091l-27.927273 172.218182z"  horiz-adv-x="1024" />

    
    <glyph glyph-name="wode" unicode="&#58899;" d="M521.309091 816.872727c-72.145455 0-128-20.945455-162.909091-58.181818-55.854545-62.836364-53.527273-158.254545-48.872727-197.818182 4.654545-44.218182 34.909091-125.672727 86.109091-167.563636 9.309091-6.981818 13.963636-18.618182 13.963636-30.254546s-4.654545-23.272727-13.963636-30.254545L148.945455 111.709091v-160.581818h747.054545v160.581818l-249.018182 218.763636c-9.309091 6.981818-13.963636 18.618182-13.963636 30.254546s6.981818 23.272727 16.290909 30.254545c55.854545 41.890909 81.454545 116.363636 90.763636 169.890909 2.327273 20.945455 13.963636 125.672727-46.545454 193.163637-34.909091 41.890909-93.090909 62.836364-172.218182 62.836363M896-128H148.945455C104.727273-128 69.818182-93.090909 69.818182-48.872727v160.581818c0 23.272727 9.309091 44.218182 25.6 58.181818l218.763636 193.163636c-51.2 60.509091-79.127273 144.290909-83.781818 188.509091-4.654545 48.872727-9.309091 172.218182 69.818182 258.327273C351.418182 868.072727 425.890909 896 521.309091 896c102.4 0 179.2-30.254545 232.727273-90.763636 79.127273-90.763636 69.818182-218.763636 65.163636-253.672728-9.309091-74.472727-41.890909-141.963636-86.109091-190.836363l216.436364-190.836364c16.290909-13.963636 25.6-37.236364 25.6-58.181818v-160.581818c0-44.218182-34.909091-79.127273-79.127273-79.127273M523.636364 404.945455c-62.836364 0-116.363636 39.563636-134.981819 100.072727-4.654545 11.636364 2.327273 25.6 16.29091 27.927273 11.636364 4.654545 25.6-2.327273 27.927272-16.29091 11.636364-39.563636 48.872727-67.490909 90.763637-67.490909 41.890909 0 79.127273 27.927273 90.763636 67.490909 4.654545 11.636364 16.290909 18.618182 27.927273 16.29091 11.636364-4.654545 18.618182-16.290909 16.290909-27.927273-18.618182-60.509091-72.145455-100.072727-134.981818-100.072727"  horiz-adv-x="1024" />

    
    <glyph glyph-name="wode-nor" unicode="&#58900;" d="M521.309091 816.872727c-72.145455 0-128-20.945455-162.909091-58.181818-55.854545-62.836364-53.527273-158.254545-48.872727-197.818182 4.654545-44.218182 34.909091-125.672727 86.109091-167.563636 9.309091-6.981818 13.963636-18.618182 13.963636-30.254546s-4.654545-23.272727-13.963636-30.254545L148.945455 111.709091v-160.581818h747.054545v160.581818l-249.018182 218.763636c-9.309091 6.981818-13.963636 18.618182-13.963636 30.254546s6.981818 23.272727 16.290909 30.254545c55.854545 41.890909 81.454545 116.363636 90.763636 169.890909 2.327273 20.945455 13.963636 125.672727-46.545454 193.163637-34.909091 41.890909-93.090909 62.836364-172.218182 62.836363M896-128H148.945455C104.727273-128 69.818182-93.090909 69.818182-48.872727v160.581818c0 23.272727 9.309091 44.218182 25.6 58.181818l218.763636 193.163636c-51.2 60.509091-79.127273 144.290909-83.781818 188.509091-4.654545 48.872727-9.309091 172.218182 69.818182 258.327273C351.418182 868.072727 425.890909 896 521.309091 896c102.4 0 179.2-30.254545 232.727273-90.763636 79.127273-90.763636 69.818182-218.763636 65.163636-253.672728-9.309091-74.472727-41.890909-141.963636-86.109091-190.836363l216.436364-190.836364c16.290909-13.963636 25.6-37.236364 25.6-58.181818v-160.581818c0-44.218182-34.909091-79.127273-79.127273-79.127273M523.636364 404.945455c-62.836364 0-116.363636 39.563636-134.981819 100.072727-4.654545 11.636364 2.327273 25.6 16.29091 27.927273 11.636364 4.654545 25.6-2.327273 27.927272-16.29091 11.636364-39.563636 48.872727-67.490909 90.763637-67.490909 41.890909 0 79.127273 27.927273 90.763636 67.490909 4.654545 11.636364 16.290909 18.618182 27.927273 16.29091 11.636364-4.654545 18.618182-16.290909 16.290909-27.927273-18.618182-60.509091-72.145455-100.072727-134.981818-100.072727"  horiz-adv-x="1024" />

    
    <glyph glyph-name="delete" unicode="&#58901;" d="M512 64c-179.2 0-320 140.8-320 320s140.8 320 320 320 320-140.8 320-320-140.8-320-320-320z m153.6 441.6c6.4 6.4 6.4 12.8 0 19.2l-19.2 19.2c-6.4 6.4-12.8 6.4-19.2 0L518.4 428.8c0-6.4-6.4-6.4-12.8 0L390.4 537.6c-6.4 6.4-12.8 6.4-19.2 0l-12.8-12.8c-6.4-6.4-6.4-12.8 0-19.2l115.2-115.2c0-6.4 0-6.4-6.4-12.8L358.4 262.4c-6.4-6.4-6.4-12.8 0-19.2l19.2-19.2c6.4-6.4 12.8-6.4 19.2 0L512 339.2c0 6.4 0 6.4 6.4 0l115.2-115.2c6.4-6.4 12.8-6.4 19.2 0l19.2 19.2c6.4 6.4 6.4 12.8 0 19.2L556.8 377.6c-6.4 6.4-6.4 6.4 0 12.8l108.8 115.2zM665.6 505.6c6.4 6.4 6.4 12.8 0 19.2l-19.2 19.2c-6.4 6.4-12.8 6.4-19.2 0L518.4 428.8c0-6.4-6.4-6.4-12.8 0L390.4 537.6c-6.4 6.4-12.8 6.4-19.2 0l-12.8-12.8c-6.4-6.4-6.4-12.8 0-19.2l115.2-115.2c0-6.4 0-6.4-6.4-12.8L358.4 262.4c-6.4-6.4-6.4-12.8 0-19.2l19.2-19.2c6.4-6.4 12.8-6.4 19.2 0L512 339.2c0 6.4 0 6.4 6.4 0l115.2-115.2c6.4-6.4 12.8-6.4 19.2 0l19.2 19.2c6.4 6.4 6.4 12.8 0 19.2L556.8 377.6c-6.4 6.4-6.4 6.4 0 12.8l108.8 115.2z"  horiz-adv-x="1024" />

    
    <glyph glyph-name="down" unicode="&#58903;" d="M772.266667 533.333333H247.466667c-12.8 0-25.6-17.066667-12.8-25.6l256-260.266666c8.533333-8.533333 29.866667-8.533333 38.4 0l260.266666 260.266666c8.533333 8.533333 0 25.6-17.066666 25.6z"  horiz-adv-x="1024" />

    
    <glyph glyph-name="up" unicode="&#58906;" d="M772.266667 234.666667H247.466667c-12.8 0-25.6 17.066667-12.8 25.6l256 260.266666c8.533333 8.533333 29.866667 8.533333 38.4 0l260.266666-260.266666c8.533333-8.533333 0-25.6-17.066666-25.6z"  horiz-adv-x="1024" />

    
    <glyph glyph-name="return" unicode="&#58916;" d="M658.618182 733.090909L365.381818 439.854545 302.545455 377.018182l62.836363-62.836364 288.581818-288.581818 62.836364 60.509091-288.581818 290.909091L721.454545 670.254545z"  horiz-adv-x="1024" />

    
    <glyph glyph-name="cancel" unicode="&#58917;" d="M802.909091 719.127273L512 428.218182 221.090909 719.127273 176.872727 674.909091 467.781818 384 176.872727 93.090909l44.218182-44.218182L512 339.781818l290.909091-290.909091 44.218182 44.218182L556.218182 384 847.127273 674.909091z"  horiz-adv-x="1024" />

    
    <glyph glyph-name="history" unicode="&#58918;" d="M537.6 621.714286h-47.542857c-3.657143 0-7.314286-3.657143-7.314286-7.314286v-274.285714c0-3.657143 0-3.657143 3.657143-7.314286l164.571429-120.685714c3.657143-3.657143 7.314286-3.657143 10.971428 0l29.257143 40.228571c3.657143 3.657143 3.657143 7.314286 0 10.971429L548.571429 365.714286V614.4c-3.657143 3.657143-7.314286 7.314286-10.971429 7.314286z m219.428571-73.142857l157.257143-36.571429c3.657143 0 10.971429 3.657143 10.971429 7.314286V680.228571c0 7.314286-7.314286 10.971429-14.628572 7.314286l-157.257142-124.342857c-7.314286-7.314286-3.657143-14.628571 3.657142-14.628571z m168.228572-303.542858l-58.514286 18.285715c-3.657143 0-7.314286 0-10.971428-3.657143-3.657143-3.657143-3.657143-10.971429-7.314286-14.628572-18.285714-43.885714-43.885714-80.457143-76.8-113.371428-32.914286-32.914286-69.485714-58.514286-113.371429-76.8-43.885714-18.285714-91.428571-29.257143-138.971428-29.257143s-95.085714 10.971429-138.971429 29.257143c-43.885714 18.285714-80.457143 43.885714-113.371428 76.8S208.457143 201.142857 190.171429 245.028571c-18.285714 43.885714-29.257143 91.428571-29.257143 138.971429s10.971429 95.085714 29.257143 138.971429c25.6 40.228571 51.2 80.457143 84.114285 109.714285 32.914286 32.914286 69.485714 58.514286 113.371429 76.8 43.885714 18.285714 91.428571 29.257143 138.971428 29.257143s95.085714-10.971429 138.971429-29.257143c43.885714-18.285714 80.457143-43.885714 113.371429-76.8 7.314286-7.314286 14.628571-18.285714 25.6-29.257143l58.514285 47.542858c-80.457143 102.4-201.142857 164.571429-340.114285 164.571428-237.714286 0-431.542857-197.485714-427.885715-435.2 3.657143-234.057143 193.828571-424.228571 431.542857-424.228571 186.514286 0 343.771429 117.028571 402.285715 281.6 0 3.657143 0 7.314286-3.657143 7.314285z"  horiz-adv-x="1024" />

    
    <glyph glyph-name="company" unicode="&#58921;" d="M832 26.88V724.48l-97.28 65.28-357.12-158.72v-122.88l-197.12-69.12v-412.16h-20.48v-48.64h64V410.88L486.4 496.64v-518.4h180.48v52.48H627.2v473.6l-94.72 57.6-107.52-37.12v78.08L683.52 716.8v-738.56h180.48v48.64H832zM256 300.8l189.44 61.44v81.92L256 377.6v-76.8z m0-106.24l189.44 40.96v81.92L256 267.52v-72.96z m0-110.08l189.44 24.32v81.92L256 161.28v-76.8z m0-106.24l189.44 3.84V64l-189.44-8.96v-76.8z"  horiz-adv-x="1024" />

    
    <glyph glyph-name="business" unicode="&#58922;" d="M632.32 7.68h-240.64c-5.12 0-7.68-2.56-7.68-7.68v-30.72c0-17.92 15.36-30.72 30.72-30.72h192c17.92 0 30.72 15.36 30.72 30.72V0c2.56 5.12 0 7.68-5.12 7.68zM512 832c-181.76 0-327.68-145.92-327.68-327.68 0-120.32 66.56-227.84 163.84-284.16v-115.2c0-17.92 15.36-30.72 30.72-30.72h263.68c17.92 0 30.72 15.36 30.72 30.72v115.2c97.28 56.32 163.84 163.84 163.84 284.16 2.56 181.76-143.36 327.68-325.12 327.68zM640 281.6l-35.84-20.48v-117.76h-184.32v117.76L384 281.6c-79.36 46.08-128 130.56-128 222.72 0 140.8 115.2 256 256 256s256-115.2 256-256c0-92.16-48.64-176.64-128-222.72z"  horiz-adv-x="1024" />

    
    <glyph glyph-name="customer" unicode="&#58923;" d="M593.92 294.4c17.92 20.48 28.16 46.08 28.16 74.24 0 61.44-48.64 112.64-112.64 112.64s-112.64-51.2-112.64-112.64c0-28.16 10.24-56.32 28.16-74.24-43.52-25.6-71.68-71.68-74.24-125.44 0-5.12 2.56-7.68 7.68-7.68h43.52c5.12 0 7.68 2.56 7.68 7.68 2.56 51.2 46.08 89.6 97.28 89.6s92.16-40.96 97.28-89.6c0-5.12 2.56-7.68 7.68-7.68h43.52c5.12 0 7.68 2.56 7.68 7.68 2.56 53.76-25.6 99.84-69.12 125.44z m-81.92 23.04c-28.16 0-51.2 23.04-51.2 51.2s23.04 51.2 51.2 51.2 51.2-23.04 51.2-51.2-23.04-51.2-51.2-51.2zM926.72 670.72H768V727.04c0 5.12-2.56 7.68-7.68 7.68h-56.32c-5.12 0-7.68-2.56-7.68-7.68v-56.32h-148.48V727.04c0 5.12-2.56 7.68-7.68 7.68h-56.32c-5.12 0-7.68-2.56-7.68-7.68v-56.32h-148.48V727.04c0 5.12-2.56 7.68-7.68 7.68h-56.32c-5.12 0-7.68-2.56-7.68-7.68v-56.32H97.28c-17.92 0-30.72-15.36-30.72-30.72v-576c0-17.92 15.36-30.72 30.72-30.72h832c17.92 0 30.72 15.36 30.72 30.72V640c0 17.92-15.36 30.72-33.28 30.72z m-38.4-565.76H135.68V599.04H256v-56.32c0-5.12 2.56-7.68 7.68-7.68h56.32c5.12 0 7.68 2.56 7.68 7.68v56.32h148.48v-56.32c0-5.12 2.56-7.68 7.68-7.68h56.32c5.12 0 7.68 2.56 7.68 7.68v56.32h148.48v-56.32c0-5.12 2.56-7.68 7.68-7.68h56.32c5.12 0 7.68 2.56 7.68 7.68v56.32h120.32v-494.08z"  horiz-adv-x="1024" />

    
    <glyph glyph-name="type" unicode="&#58924;" d="M926.72 670.72H768V727.04c0 5.12-2.56 7.68-7.68 7.68h-56.32c-5.12 0-7.68-2.56-7.68-7.68v-56.32h-148.48V727.04c0 5.12-2.56 7.68-7.68 7.68h-56.32c-5.12 0-7.68-2.56-7.68-7.68v-56.32h-148.48V727.04c0 5.12-2.56 7.68-7.68 7.68h-56.32c-5.12 0-7.68-2.56-7.68-7.68v-56.32H97.28c-17.92 0-30.72-15.36-30.72-30.72v-576c0-17.92 15.36-30.72 30.72-30.72h832c17.92 0 30.72 15.36 30.72 30.72V640c0 17.92-15.36 30.72-33.28 30.72z m-38.4-565.76H135.68V599.04H256v-56.32c0-5.12 2.56-7.68 7.68-7.68h56.32c5.12 0 7.68 2.56 7.68 7.68v56.32h148.48v-56.32c0-5.12 2.56-7.68 7.68-7.68h56.32c5.12 0 7.68 2.56 7.68 7.68v56.32h148.48v-56.32c0-5.12 2.56-7.68 7.68-7.68h56.32c5.12 0 7.68 2.56 7.68 7.68v56.32h120.32v-494.08zM414.72 399.36H232.96c-5.12 0-7.68-2.56-7.68-7.68v-48.64c0-5.12 2.56-7.68 7.68-7.68h184.32c5.12 0 7.68 2.56 7.68 7.68v48.64c0 5.12-5.12 7.68-10.24 7.68z m0-135.68H232.96c-5.12 0-7.68-2.56-7.68-7.68v-48.64c0-5.12 2.56-7.68 7.68-7.68h184.32c5.12 0 7.68 2.56 7.68 7.68V256c0 5.12-5.12 7.68-10.24 7.68z m309.76 176.64l-102.4-143.36-53.76 74.24c-2.56 5.12-7.68 7.68-12.8 7.68h-53.76c-7.68 0-10.24-7.68-7.68-12.8l115.2-158.72c5.12-7.68 20.48-7.68 25.6 0l163.84 227.84c2.56 5.12 0 12.8-7.68 12.8h-53.76c-5.12 0-10.24-2.56-12.8-7.68z"  horiz-adv-x="1024" />

    
    <glyph glyph-name="follow-up" unicode="&#58925;" d="M857.6 133.12c-17.92 46.08-46.08 84.48-79.36 120.32s-74.24 61.44-120.32 79.36c61.44 46.08 102.4 117.76 102.4 202.24 0 138.24-110.08 248.32-248.32 248.32s-248.32-110.08-248.32-248.32c0-81.92 40.96-156.16 102.4-202.24-46.08-17.92-84.48-46.08-120.32-79.36-33.28-33.28-61.44-74.24-79.36-120.32-17.92-43.52-28.16-89.6-30.72-138.24 0-5.12 2.56-7.68 7.68-7.68H204.8c5.12 0 7.68 2.56 7.68 7.68 2.56 76.8 33.28 148.48 87.04 204.8 56.32 56.32 133.12 87.04 212.48 87.04s156.16-30.72 212.48-87.04c53.76-53.76 87.04-128 87.04-204.8 0-5.12 2.56-7.68 7.68-7.68h58.88c5.12 0 7.68 2.56 7.68 7.68 0 46.08-7.68 94.72-28.16 138.24zM512 360.96c-46.08 0-89.6 17.92-122.88 51.2s-51.2 76.8-51.2 122.88 17.92 89.6 51.2 122.88 76.8 51.2 122.88 51.2 89.6-17.92 122.88-51.2 51.2-76.8 51.2-122.88-17.92-89.6-51.2-122.88-76.8-51.2-122.88-51.2z"  horiz-adv-x="1024" />

    
    <glyph glyph-name="synergetic" unicode="&#58926;" d="M824.32 197.12c-25.6 25.6-53.76 46.08-87.04 61.44 46.08 35.84 74.24 92.16 74.24 156.16 0 110.08-92.16 202.24-202.24 199.68-110.08-2.56-197.12-89.6-197.12-199.68 0-64 28.16-117.76 74.24-156.16-30.72-15.36-61.44-35.84-87.04-61.44-53.76-53.76-84.48-128-87.04-204.8 0-5.12 2.56-7.68 7.68-7.68h56.32c5.12 0 7.68 2.56 7.68 7.68 2.56 58.88 25.6 112.64 66.56 153.6 43.52 43.52 99.84 66.56 161.28 66.56s117.76-23.04 161.28-66.56c40.96-40.96 64-94.72 66.56-153.6 0-5.12 2.56-7.68 7.68-7.68h56.32c5.12 0 7.68 2.56 7.68 7.68-2.56 76.8-33.28 148.48-87.04 204.8z m-212.48 87.04c-33.28 0-66.56 12.8-89.6 38.4-25.6 25.6-38.4 56.32-38.4 92.16 0 33.28 12.8 64 35.84 87.04 23.04 25.6 56.32 38.4 89.6 38.4 33.28 0 66.56-12.8 92.16-35.84 25.6-23.04 38.4-56.32 38.4-92.16 0-33.28-12.8-66.56-38.4-89.6s-56.32-38.4-89.6-38.4z m-250.88 102.4c0 7.68-2.56 17.92-2.56 25.6 0 15.36 2.56 30.72 5.12 46.08 0 2.56 0 7.68-5.12 7.68-12.8 5.12-25.6 15.36-35.84 25.6-25.6 25.6-40.96 58.88-38.4 94.72 0 33.28 12.8 61.44 35.84 84.48 25.6 25.6 58.88 38.4 92.16 38.4 30.72 0 61.44-12.8 87.04-33.28 7.68-7.68 15.36-15.36 20.48-25.6 2.56-2.56 5.12-5.12 10.24-2.56 17.92 5.12 35.84 10.24 56.32 12.8 5.12 0 7.68 7.68 5.12 12.8-33.28 64-99.84 107.52-176.64 110.08-110.08 2.56-202.24-89.6-202.24-199.68 0-64 28.16-117.76 74.24-156.16-30.72-15.36-61.44-35.84-87.04-61.44-53.76-53.76-87.04-128-87.04-204.8 0-5.12 2.56-7.68 7.68-7.68h56.32c5.12 0 7.68 2.56 7.68 7.68 2.56 58.88 25.6 112.64 66.56 153.6 28.16 28.16 66.56 48.64 104.96 58.88 2.56 5.12 5.12 7.68 5.12 12.8z"  horiz-adv-x="1024" />

    
    <glyph glyph-name="effective-time" unicode="&#58927;" d="M512 832C263.68 832 64 632.32 64 384S263.68-64 512-64 960 135.68 960 384 760.32 832 512 832z m0-819.2C307.2 12.8 140.8 179.2 140.8 384S307.2 755.2 512 755.2 883.2 588.8 883.2 384 716.8 12.8 512 12.8zM686.08 258.56l-143.36 102.4v248.32c0 5.12-2.56 7.68-7.68 7.68H486.4c-5.12 0-7.68-2.56-7.68-7.68V332.8c0-2.56 0-5.12 2.56-7.68l166.4-120.32c2.56-2.56 7.68-2.56 10.24 2.56l28.16 38.4c5.12 5.12 5.12 10.24 0 12.8z"  horiz-adv-x="1024" />

    
    <glyph glyph-name="calendar" unicode="&#58928;" d="M879.709091 712.145455h-167.563636V774.981818c0 4.654545-4.654545 6.981818-6.981819 6.981818h-55.854545c-4.654545 0-6.981818-4.654545-6.981818-6.981818V709.818182h-256V774.981818c0 4.654545-4.654545 6.981818-6.981818 6.981818h-55.854546c-4.654545 0-6.981818-4.654545-6.981818-6.981818V709.818182H144.290909c-18.618182 0-32.581818-13.963636-32.581818-32.581818v-663.272728c0-18.618182 13.963636-32.581818 32.581818-32.581818h735.418182c18.618182 0 32.581818 13.963636 32.581818 32.581818V679.563636c0 18.618182-13.963636 32.581818-32.581818 32.581819z m-39.563636-656.29091H183.854545V435.2h656.29091v-379.345455zM183.854545 505.018182V640h128v-48.872727c0-4.654545 4.654545-6.981818 6.981819-6.981818h55.854545c4.654545 0 6.981818 4.654545 6.981818 6.981818V640h256v-48.872727c0-4.654545 4.654545-6.981818 6.981818-6.981818h55.854546c4.654545 0 6.981818 4.654545 6.981818 6.981818V640h128v-134.981818h-651.636364z"  horiz-adv-x="1024" />

    
    <glyph glyph-name="possibility" unicode="&#58929;" d="M855.04 606.72L640 821.76c-5.12 5.12-15.36 10.24-23.04 10.24H192c-17.92 0-30.72-15.36-30.72-30.72v-832c0-17.92 15.36-30.72 30.72-30.72h640c17.92 0 30.72 15.36 30.72 30.72v614.4c2.56 10.24-2.56 17.92-7.68 23.04z m-64-35.84h-189.44V757.76l189.44-186.88z m0-563.2H232.96V760.32h302.08v-215.04c0-23.04 17.92-40.96 40.96-40.96h215.04v-496.64zM401.92 348.16c0-5.12 5.12-10.24 10.24-10.24h33.28c5.12 0 10.24 5.12 10.24 10.24 0 28.16 25.6 51.2 58.88 51.2s58.88-23.04 58.88-51.2c0-25.6-20.48-46.08-48.64-51.2-23.04-2.56-38.4-20.48-38.4-40.96v-30.72c0-5.12 5.12-10.24 10.24-10.24h30.72c5.12 0 10.24 5.12 10.24 10.24v12.8c0 5.12 5.12 10.24 10.24 12.8 43.52 15.36 74.24 53.76 74.24 99.84 0 56.32-48.64 99.84-107.52 102.4-61.44-2.56-112.64-48.64-112.64-104.96z m79.36-197.12c0-17.92 15.36-30.72 30.72-30.72s30.72 15.36 30.72 30.72-15.36 30.72-30.72 30.72-30.72-12.8-30.72-30.72z"  horiz-adv-x="1024" />

    
    <glyph glyph-name="business-opportunity" unicode="&#58930;" d="M688.64 583.68v48.64c0 5.12-2.56 7.68-7.68 7.68h-384c-5.12 0-7.68-2.56-7.68-7.68v-48.64c0-5.12 2.56-7.68 7.68-7.68h384c2.56 0 7.68 2.56 7.68 7.68z m-391.68-87.04c-5.12 0-7.68-2.56-7.68-7.68v-48.64c0-5.12 2.56-7.68 7.68-7.68h184.32c5.12 0 7.68 2.56 7.68 7.68v48.64c0 5.12-2.56 7.68-7.68 7.68h-184.32z m373.76-117.76c-120.32 0-215.04-97.28-215.04-215.04s97.28-215.04 215.04-215.04 215.04 97.28 215.04 215.04-94.72 215.04-215.04 215.04z m107.52-322.56c-28.16-28.16-66.56-43.52-107.52-43.52s-79.36 15.36-107.52 43.52-43.52 66.56-43.52 107.52 15.36 79.36 43.52 107.52 66.56 43.52 107.52 43.52 79.36-15.36 107.52-43.52 43.52-66.56 43.52-107.52-12.8-79.36-43.52-107.52z m-17.92 184.32H716.8c-2.56 0-5.12 0-7.68-2.56l-64-87.04-23.04 30.72c-2.56 2.56-5.12 2.56-7.68 2.56h-43.52c-7.68 0-10.24-7.68-7.68-12.8l74.24-102.4c2.56-5.12 10.24-5.12 12.8 0l115.2 158.72c5.12 5.12 2.56 12.8-5.12 12.8z m-320-197.12H207.36V747.52H768v-343.04c0-5.12 2.56-7.68 7.68-7.68h56.32c5.12 0 7.68 2.56 7.68 7.68v384c0 17.92-15.36 30.72-30.72 30.72h-640c-17.92 0-33.28-12.8-33.28-30.72v-783.36c0-17.92 15.36-30.72 30.72-30.72h271.36c5.12 0 7.68 2.56 7.68 7.68v56.32c2.56 2.56 0 5.12-5.12 5.12z"  horiz-adv-x="1024" />

    
    <glyph glyph-name="relation" unicode="&#58931;" d="M573.44 230.4c-2.56 2.56-7.68 2.56-10.24 0l-115.2-115.2c-53.76-53.76-143.36-58.88-204.8 0-58.88 58.88-53.76 151.04 0 204.8L358.4 435.2c2.56 2.56 2.56 7.68 0 10.24L320 486.4c-2.56 2.56-7.68 2.56-10.24 0l-115.2-115.2c-84.48-84.48-84.48-222.72 0-307.2s222.72-84.48 307.2 0L614.4 179.2c2.56 2.56 2.56 7.68 0 10.24L573.44 230.4zM832 704c-84.48 84.48-222.72 84.48-307.2 0L409.6 588.8c-2.56-2.56-2.56-7.68 0-10.24l40.96-40.96c2.56-2.56 7.68-2.56 10.24 0l115.2 115.2c53.76 53.76 143.36 58.88 204.8 0 58.88-58.88 53.76-151.04 0-204.8L665.6 332.8c-2.56-2.56-2.56-7.68 0-10.24l40.96-40.96c2.56-2.56 7.68-2.56 10.24 0l115.2 115.2c84.48 87.04 84.48 222.72 0 307.2z m-222.72-179.2c-2.56 2.56-7.68 2.56-10.24 0l-225.28-225.28c-2.56-2.56-2.56-7.68 0-10.24l38.4-38.4c2.56-2.56 7.68-2.56 10.24 0l225.28 225.28c2.56 2.56 2.56 7.68 0 10.24l-38.4 38.4z"  horiz-adv-x="1024" />

    
    <glyph glyph-name="related-schedule" unicode="&#58932;" d="M880.64 711.68H711.68v64c0 3.84-3.84 7.68-7.68 7.68h-56.32c-3.84 0-7.68-2.56-7.68-7.68v-64H384v64c0 3.84-3.84 7.68-7.68 7.68H320c-3.84 0-7.68-3.84-7.68-7.68v-64H143.36c-17.92 0-32-14.08-32-32v-664.32c0-17.92 14.08-32 32-32h736c17.92 0 32 14.08 32 32V679.68c0 17.92-14.08 32-30.72 32zM695.04 463.36L481.28 170.24c-6.4-8.96-19.2-8.96-25.6 0l-126.72 174.08c-3.84 5.12 0 12.8 6.4 12.8h55.04c5.12 0 10.24-2.56 12.8-6.4l65.28-89.6 151.04 207.36c2.56 3.84 7.68 6.4 12.8 6.4h55.04c7.68 1.28 11.52-6.4 7.68-11.52z"  horiz-adv-x="1024" />

    
    <glyph glyph-name="essential-informatio" unicode="&#58933;" d="M855.04 606.72c5.12-5.12 10.24-15.36 10.24-23.04v-616.96c0-17.92-15.36-30.72-30.72-30.72h-640c-17.92 0-30.72 15.36-30.72 30.72V798.72c0 17.92 15.36 30.72 30.72 30.72h424.96c7.68 0 17.92-2.56 23.04-10.24l212.48-212.48z m-64-35.84l-189.44 189.44v-189.44h189.44z m-471.04-156.16c-5.12 0-7.68-2.56-7.68-7.68V358.4c0-5.12 2.56-7.68 7.68-7.68h384c5.12 0 7.68 2.56 7.68 7.68v48.64c0 5.12-2.56 7.68-7.68 7.68h-384z m0-135.68c-5.12 0-7.68-2.56-7.68-7.68v-48.64c0-5.12 2.56-7.68 7.68-7.68h184.32c5.12 0 7.68 2.56 7.68 7.68v48.64c0 5.12-2.56 7.68-7.68 7.68h-184.32z"  horiz-adv-x="1024" />

    
    <glyph glyph-name="historical-operation" unicode="&#58934;" d="M512 832C263.68 832 64 632.32 64 384S263.68-64 512-64 960 135.68 960 384 760.32 832 512 832z m176.64-586.24l-28.16-38.4c-2.56-2.56-7.68-5.12-10.24-2.56l-166.4 120.32c-2.56 2.56-2.56 5.12-2.56 7.68V609.28c0 5.12 2.56 7.68 7.68 7.68H537.6c5.12 0 7.68-2.56 7.68-7.68v-248.32l143.36-102.4c2.56-2.56 2.56-7.68 0-12.8z"  horiz-adv-x="1024" />

    
    <glyph glyph-name="propulsion-state" unicode="&#58935;" d="M675.84 330.24c-51.2 0-92.16-40.96-92.16-92.16s40.96-92.16 92.16-92.16 92.16 40.96 92.16 92.16-40.96 92.16-92.16 92.16z m0-125.44c-17.92 0-33.28 15.36-33.28 33.28s15.36 33.28 33.28 33.28 33.28-15.36 33.28-33.28-15.36-33.28-33.28-33.28z m204.8 522.24h-212.48c0 30.72-25.6 56.32-56.32 56.32h-79.36c-30.72 0-56.32-25.6-56.32-56.32h-212.48c-17.92 0-30.72-15.36-30.72-30.72v-199.68H143.36c-17.92 0-30.72-15.36-30.72-30.72v-448c0-17.92 15.36-30.72 30.72-30.72h335.36c17.92 0 30.72 15.36 30.72 30.72v15.36h368.64c17.92 0 30.72 15.36 30.72 30.72V696.32c2.56 17.92-10.24 30.72-28.16 30.72zM468.48 663.04h71.68V719.36h64v-56.32h71.68V614.4h-207.36V663.04z m-20.48-614.4H176.64V281.6h271.36v-232.96z m0 294.4H176.64v87.04h271.36v-87.04z m391.68-238.08H512v358.4c0 17.92-15.36 30.72-30.72 30.72h-176.64V655.36h99.84v-104.96h335.36V655.36h99.84v-550.4z m-135.68 384v-97.28c0-5.12 2.56-7.68 7.68-7.68h48.64c5.12 0 7.68 2.56 7.68 7.68v97.28c0 5.12-2.56 7.68-7.68 7.68h-48.64c-5.12 0-7.68-5.12-7.68-7.68zM591.36 384H640c5.12 0 7.68 2.56 7.68 7.68v56.32c0 5.12-2.56 7.68-7.68 7.68h-48.64c-5.12 0-7.68-2.56-7.68-7.68v-56.32c0-5.12 5.12-7.68 7.68-7.68z"  horiz-adv-x="1024" />

    
    <glyph glyph-name="termination-instruct" unicode="&#58936;" d="M688.64 583.68v48.64c0 5.12-2.56 7.68-7.68 7.68h-384c-5.12 0-7.68-2.56-7.68-7.68v-48.64c0-5.12 2.56-7.68 7.68-7.68h384c2.56 0 7.68 2.56 7.68 7.68z m-391.68-87.04c-5.12 0-7.68-2.56-7.68-7.68v-48.64c0-5.12 2.56-7.68 7.68-7.68h184.32c5.12 0 7.68 2.56 7.68 7.68v48.64c0 5.12-2.56 7.68-7.68 7.68h-184.32z m373.76-117.76c-120.32 0-215.04-97.28-215.04-215.04s97.28-215.04 215.04-215.04 215.04 97.28 215.04 215.04-94.72 215.04-215.04 215.04z m107.52-322.56c-28.16-28.16-66.56-43.52-107.52-43.52s-79.36 15.36-107.52 43.52-43.52 66.56-43.52 107.52 15.36 79.36 43.52 107.52 66.56 43.52 107.52 43.52 79.36-15.36 107.52-43.52 43.52-66.56 43.52-107.52-12.8-79.36-43.52-107.52zM640 84.48c0-17.92 15.36-30.72 30.72-30.72s30.72 15.36 30.72 30.72c0 17.92-15.36 30.72-30.72 30.72S640 102.4 640 84.48z m12.8 64H691.2c5.12 0 7.68 2.56 7.68 7.68v112.64c0 5.12-2.56 7.68-7.68 7.68h-40.96c-5.12 0-7.68-2.56-7.68-7.68v-112.64c2.56-5.12 5.12-7.68 10.24-7.68z m-212.48-104.96H207.36V747.52H768v-343.04c0-5.12 2.56-7.68 7.68-7.68h56.32c5.12 0 7.68 2.56 7.68 7.68v384c0 17.92-15.36 30.72-30.72 30.72h-640c-17.92 0-33.28-12.8-33.28-30.72v-783.36c0-17.92 15.36-30.72 30.72-30.72h271.36c5.12 0 7.68 2.56 7.68 7.68v56.32c2.56 2.56 0 5.12-5.12 5.12z"  horiz-adv-x="1024" />

    
    <glyph glyph-name="check_active" unicode="&#58937;" d="M0 384C0 665.6 230.4 896 512 896s512-230.4 512-512-230.4-512-512-512S0 102.4 0 384zM437.527273 216.436364c-6.981818 0-11.636364 2.327273-16.290909 6.981818l-158.254546 158.254545c-9.309091 9.309091-9.309091 23.272727 0 32.581818 9.309091 9.309091 23.272727 9.309091 32.581818 0l141.963637-141.963636 290.909091 290.909091c9.309091 9.309091 23.272727 9.309091 32.581818 0 9.309091-9.309091 9.309091-23.272727 0-32.581818L453.818182 223.418182c-4.654545-4.654545-11.636364-6.981818-16.290909-6.981818z"  horiz-adv-x="1024" />

    
    <glyph glyph-name="check_normal" unicode="&#58939;" d="M512 849.454545C256 849.454545 46.545455 640 46.545455 384s209.454545-465.454545 465.454545-465.454545 465.454545 209.454545 465.454545 465.454545S768 849.454545 512 849.454545m0-977.454545C230.4-128 0 102.4 0 384S230.4 896 512 896s512-230.4 512-512-230.4-512-512-512"  horiz-adv-x="1024" />

    
    <glyph glyph-name="select" unicode="&#58940;" d="M779.636364 663.272727L395.636364 251.345455l-158.254546 165.236363L162.909091 330.472727l232.727273-237.381818 465.454545 491.054546z"  horiz-adv-x="1024" />

    
    <glyph glyph-name="danxuan-xuanzhong" unicode="&#58943;" d="M512 849.454545C255.371636 849.454545 46.545455 640.628364 46.545455 384c0-256.674909 208.826182-465.454545 465.454545-465.454545 256.674909 0 465.454545 208.779636 465.454545 465.454545 0 256.628364-208.779636 465.454545-465.454545 465.454545m0-977.454545C229.701818-128 0 101.701818 0 384.023273 0 666.344727 229.701818 896 512 896s512-229.701818 512-511.976727C1024 101.725091 794.344727-128 512-128M512 384m-349.090909 0a349.090909 349.090909 0 1 1 698.181818 0 349.090909 349.090909 0 1 1-698.181818 0Z"  horiz-adv-x="1024" />

    
    <glyph glyph-name="switch_right" unicode="&#58944;" d="M1024-128H0V896h1024zM365.431467 34.9184l293.649066 293.649067 0.170667-0.136534 62.190933 62.190934-0.136533 0.136533 0.136533 0.136533-62.805333 62.839467-0.136533-0.136533L368.981333 743.082667 306.7904 680.8576l289.4848-289.450667-293.649067-293.6832z"  horiz-adv-x="1024" />

    
    <glyph glyph-name="switch_left" unicode="&#58945;" d="M0-128h1024V896H0zM658.568533 34.9184l-293.649066 293.649067-0.170667-0.136534-62.190933 62.190934 0.136533 0.136533-0.136533 0.136533 62.805333 62.839467 0.136533-0.136533L655.018667 743.082667l62.190933-62.225067-289.4848-289.450667 293.649067-293.6832z"  horiz-adv-x="1024" />

    
    <glyph glyph-name="mechanism" unicode="&#58946;" d="M893.986133 434.005333c30.9248 0 43.8272 39.697067 18.705067 58.026667L530.807467 769.774933a31.812267 31.812267 0 0 1-37.614934 0L111.3088 491.997867c-25.122133-18.193067-12.219733-58.026667 18.773333-58.026667h61.917867v-373.9648h-72.021333a8.021333 8.021333 0 0 1-7.9872-8.021333v-51.985067c0-4.4032 3.618133-7.9872 8.021333-7.9872h783.9744a8.021333 8.021333 0 0 1 8.021333 7.9872v51.985067a8.021333 8.021333 0 0 1-8.021333 8.021333h-71.9872V434.005333h61.986133zM512 699.2896l271.086933-197.188267H240.913067L512 699.2896z m-248.0128-265.284267h117.009067v-373.998933H263.9872V434.005333z m188.996267 0H570.026667v-373.998933h-117.009067V434.005333z m307.029333-373.998933h-117.998933V434.005333h117.998933v-373.998933z"  horiz-adv-x="1024" />

    
    <glyph glyph-name="add" unicode="&#58947;" d="M0 896h1024v-1024H0zM824.250182 438.295273H566.295273V696.250182A13.614545 13.614545 0 0 1 552.727273 709.818182h-81.454546a13.614545 13.614545 0 0 1-13.568-13.568v-257.954909H199.749818A13.614545 13.614545 0 0 1 186.181818 424.727273v-81.454546c0-7.447273 6.120727-13.568 13.568-13.568h257.954909v-257.954909c0-7.447273 6.097455-13.568 13.568-13.568h81.454546c7.447273 0 13.568 6.097455 13.568 13.568V329.704727h257.954909c7.447273 0 13.568 6.097455 13.568 13.568v81.454546a13.614545 13.614545 0 0 1-13.568 13.568z"  horiz-adv-x="1024" />

    
    <glyph glyph-name="richengzhuti" unicode="&#58948;" d="M880 711.9872h-168.0128v64a8.0128 8.0128 0 0 1-7.9872 8.0128h-56.0128a8.0128 8.0128 0 0 1-7.9872-8.0128v-64H384v64a8.0128 8.0128 0 0 1-8.0128 8.0128H320a8.0128 8.0128 0 0 1-8.0128-8.0128v-64H144c-17.6896 0-32-14.2848-32-32v-663.9872c0-17.6896 14.3104-32 32-32h736c17.6896 0 32 14.3104 32 32V680.0128c0 17.664-14.3104 32-32 32z m-40.0128-656H184.0384V640h128v-48c0-4.4032 3.584-8.0128 7.9872-8.0128h56.0128c4.3776 0 7.9872 3.6096 7.9872 8.0128V640h256v-48c0-4.4032 3.584-8.0128 8.0128-8.0128H704c4.4032 0 8.0128 3.6096 8.0128 8.0128V640h128v-584.0128z m-151.9872 420.0192h-55.1936c-5.12 0-9.984-2.5088-13.0048-6.6048l-150.912-207.7952-64.6912 88.9856a16.1024 16.1024 0 0 1-13.0048 6.6048h-55.1936a8.0384 8.0384 0 0 1-6.5024-12.6976l126.4128-174.0032a16.1024 16.1024 0 0 1 25.984 0l212.608 292.7104c3.7888 5.376 0 12.8-6.5024 12.8z"  horiz-adv-x="1024" />

    
    <glyph glyph-name="tianjiafenzu" unicode="&#58949;" d="M695.994182 439.272727h-151.994182v151.994182a8.029091 8.029091 0 0 1-8.005818 8.005818H488.029091a8.029091 8.029091 0 0 1-8.005818-8.005818v-151.994182h-151.994182a8.029091 8.029091 0 0 1-8.005818-8.005818v-47.988364c0-4.421818 3.607273-8.005818 8.005818-8.005818h151.994182v-151.994182c0-4.421818 3.607273-8.005818 8.005818-8.005818h47.988364c4.421818 0 8.005818 3.607273 8.005818 8.005818v151.994182h151.994182c4.421818 0 8.005818 3.607273 8.005818 8.005818V431.243636a8.029091 8.029091 0 0 1-8.005818 8.005819zM512 855.272727C264.610909 855.272727 64 654.661818 64 407.272727S264.610909-40.727273 512-40.727273 960 159.883636 960 407.272727 759.389091 855.272727 512 855.272727z m0-819.991272c-205.405091 0-371.991273 166.586182-371.991273 371.991272S306.594909 779.264 512 779.264 883.991273 612.677818 883.991273 407.272727 717.405091 35.281455 512 35.281455z"  horiz-adv-x="1024" />

    
    <glyph glyph-name="xinjianfenzu" unicode="&#58950;" d="M752.011636 655.988364H143.965091c-17.687273 0-32-14.289455-32-31.976728v-608.023272c0-17.687273 14.312727-31.976727 32-31.976728h608c17.710545 0 32.023273 14.289455 32.023273 31.976728V624.034909c0 17.687273-14.312727 31.976727-32.023273 31.976727z m-272.011636-373.992728v-107.985454c0-4.421818-3.607273-8.005818-8.005818-8.005818H424.029091a8.029091 8.029091 0 0 0-8.005818 8.005818v107.985454h-107.985455a8.029091 8.029091 0 0 0-8.005818 8.005819v47.988363c0 4.421818 3.584 8.005818 7.982545 8.005818h108.008728v107.985455c0 4.421818 3.607273 8.029091 8.005818 8.029091h47.988364c4.421818 0 8.005818-3.607273 8.005818-8.005818v-107.985455h107.985454c4.421818 0 8.005818-3.607273 8.005818-8.029091v-47.988363c0-4.421818-3.584-8.005818-7.982545-8.005819h-108.008727z m400.011636 501.992728h-616.029091a8.029091 8.029091 0 0 1-7.982545-7.982546v-56.017454c0-4.398545 3.607273-7.982545 8.005818-7.982546h576v-576c0-4.421818 3.584-8.005818 7.982546-8.005818h56.017454c4.398545 0 7.982545 3.607273 7.982546 8.005818V751.988364c0 17.710545-14.289455 32-31.976728 32z"  horiz-adv-x="1024" />

    
    <glyph glyph-name="tixing" unicode="&#58951;" d="M816 128h-24.0128V467.9936c0 141.1072-104.2944 257.7152-240 277.0944v38.912a39.9872 39.9872 0 1 1-80 0v-38.912c-135.68-19.3792-240-135.9872-240-277.0944V128h-23.9872c-17.6896 0-32-14.3104-32-32v-32c0-4.4032 3.584-8.0128 8.0128-8.0128h215.9872A112.0768 112.0768 0 0 1 512-55.9872a112.0768 112.0768 0 0 1 112 111.9744h216.0128c4.3776 0 7.9872 3.6096 7.9872 8.0128v32c0 17.6896-14.3104 32-32 32zM512 7.9872a48 48 0 0 0-48 48.0256h96c0-26.5216-21.504-48.0256-48-48.0256zM304 128V467.9936c0 55.6032 21.6064 107.8016 60.9024 147.0976A206.5664 206.5664 0 0 0 512 676.0192c55.6032 0 107.776-21.632 147.0976-60.928a206.5664 206.5664 0 0 0 60.9024-147.0976V128h-416z"  horiz-adv-x="1024" />

    
    <glyph glyph-name="zushijian" unicode="&#58952;" d="M512 832C264.608 832 64 631.392 64 384s200.608-448 448-448 448 200.608 448 448S759.392 832 512 832z m0-820C306.592 12 140 178.592 140 384S306.592 756 512 756 884 589.408 884 384 717.408 12 512 12zM686.72 257.408l-142.624 103.104V608a8 8 0 0 1-8 8H488A8 8 0 0 1 480 608v-275.392c0-2.592 1.184-4.992 3.296-6.496l165.408-120.64a8.064 8.064 0 0 1 11.2 1.728l28.608 39.008a8 8 0 0 1-1.824 11.2z"  horiz-adv-x="1024" />

    
    <glyph glyph-name="zurenshu" unicode="&#58953;" d="M824.192 196.096a301.536 301.536 0 0 1-86.4 60.416 199.552 199.552 0 0 1 74.208 155.488c0 110.816-92.384 201.696-203.2 200a200.096 200.096 0 0 1-196.992-200c0-62.784 28.992-118.784 74.208-155.52a300.96 300.96 0 0 1-86.4-60.384 298.048 298.048 0 0 1-87.616-203.904 8 8 0 0 1 8-8.192h56a7.968 7.968 0 0 1 8 7.68 226.016 226.016 0 0 0 66.688 153.536 226.624 226.624 0 0 0 161.312 66.784c60.896 0 118.208-23.68 161.28-66.784a226.944 226.944 0 0 0 66.72-153.504c0.096-4.32 3.712-7.712 8-7.712h56a8 8 0 0 1 8 8.192 297.376 297.376 0 0 1-87.808 203.904z m-212.192 87.904a126.912 126.912 0 0 0-90.496 37.504 126.848 126.848 0 0 0-37.504 91.808 128.192 128.192 0 0 0 36.288 88 127.488 127.488 0 0 0 90.4 38.688 128.736 128.736 0 0 0 91.008-36.608 127.04 127.04 0 0 0 38.4-91.392 127.072 127.072 0 0 0-37.504-90.496 127.296 127.296 0 0 0-90.592-37.504z m-250.496 101.6a254.528 254.528 0 0 0 2.88 72.896 8.064 8.064 0 0 1-4.48 8.8 126.368 126.368 0 0 0-36.896 25.088 127.552 127.552 0 0 0-38.72 95.424 127.36 127.36 0 0 0 36.32 85.6 127.328 127.328 0 0 0 93.184 38.72 127.84 127.84 0 0 0 106.4-58.816 8 8 0 0 1 9.28-3.2 248.128 248.128 0 0 0 55.328 12.384 8 8 0 0 1 6.304 11.616 200.352 200.352 0 0 1-175.68 109.888c-110.912 1.696-203.328-89.184-203.328-199.904 0-62.784 28.896-118.784 74.208-155.52a300.64 300.64 0 0 1-86.496-60.384A297.408 297.408 0 0 1 112 164.192a8 8 0 0 1 8-8.192h56.096a7.968 7.968 0 0 1 8 7.68 226.016 226.016 0 0 0 66.72 153.536 225.76 225.76 0 0 0 104.672 59.68 8 8 0 0 1 6.016 8.704z"  horiz-adv-x="1024" />

    
    <glyph glyph-name="shengxu" unicode="&#58954;" d="M592 48.085333V743.978667c0 4.437333 3.584 8.021333 8.021333 8.021333h59.989334c4.394667 0 7.978667-3.584 7.978666-8.021333v-605.184l183.04 144.298666a8.064 8.064 0 0 0 12.970667-6.272v-72.533333a16 16 0 0 0-6.101333-12.586667l-214.101334-168.789333a32 32 0 0 0-51.797333 25.173333zM356.010667 23.978667V629.248l-183.04-144.298667a8.064 8.064 0 0 0-12.970667 6.272v72.533334c0 4.906667 2.218667 9.472 6.101333 12.586666l214.101334 168.789334a32 32 0 0 0 51.797333-25.088v-696.021334a8.021333 8.021333 0 0 0-7.978667-7.978666H363.946667a8.021333 8.021333 0 0 0-7.978667 8.021333z"  horiz-adv-x="1024" />

    
    <glyph glyph-name="morenpaixu" unicode="&#58955;" d="M432 719.914667v-695.893334a8.021333 8.021333 0 0 0-8.021333-8.021333H363.989333a8.021333 8.021333 0 0 0-7.978666 8.021333V629.162667l-183.04-144.298667a8.064 8.064 0 0 0-12.970667 6.272v72.533333c0 4.906667 2.218667 9.472 6.101333 12.586667l214.101334 168.789333a32 32 0 0 0 51.797333-25.173333z m235.989333 24.106666v-605.226666l183.04 144.298666a8.064 8.064 0 0 0 12.970667-6.272v-72.533333a16 16 0 0 0-6.101333-12.586667l-214.101334-168.789333a32 32 0 0 0-51.797333 25.088V744.021333c0 4.394667 3.584 7.978667 7.978667 7.978667h60.032c4.394667 0 7.978667-3.584 7.978666-7.978667z"  horiz-adv-x="1024" />

    
    <glyph glyph-name="guanlianshangji" unicode="&#58957;" d="M348.0064 219.904a327.936 327.936 0 0 0-163.9936 284.1088C184.0128 685.0816 330.88 832 512 832c181.0944 0 328.0128-146.8928 328.0128-328.0128a327.936 327.936 0 0 0-164.0192-284.0832v-115.8912c0-17.7152-14.2848-32-32-32H380.0064c-17.7152 0-32 14.2848-32 32V219.904z m44.0064-211.8912h239.9744c4.4032 0 8.0128-3.6096 8.0128-8.0128v-32c0-17.6896-14.3104-32-32-32h-192c-17.6896 0-32 14.3104-32 32V0c0 4.4032 3.584 8.0128 8.0128 8.0128z"  horiz-adv-x="1024" />

    
    <glyph glyph-name="jiangxu" unicode="&#58958;" d="M432 719.914667v-695.893334a8.021333 8.021333 0 0 0-7.978667-8.021333H363.946667a8.021333 8.021333 0 0 0-7.978667 7.978667V629.205333l-183.04-144.298666a8.064 8.064 0 0 0-12.970667 6.272v72.533333c0 4.906667 2.218667 9.472 6.101334 12.586667l214.101333 168.789333a32 32 0 0 0 51.797333-25.173333zM667.989333 743.978667v-605.184l183.04 144.298666a8.064 8.064 0 0 0 12.970667-6.272v-72.533333a16 16 0 0 0-6.101333-12.586667l-214.101334-168.789333a32 32 0 0 0-51.797333 25.088V744.021333c0 4.394667 3.584 7.978667 7.978667 7.978667h60.032c4.394667 0 7.978667-3.584 7.978666-7.978667z"  horiz-adv-x="1024" />

    
    <glyph glyph-name="kehuzutubiao" unicode="&#58959;" d="M512 23.168c-24.384 0-46.3232 4.864-68.2624 17.0624L78.016 230.4l-51.2-26.816c-34.1248-17.0752-34.1248-68.2752 0-85.3376l451.0464-236.4928c9.7536-4.8768 21.952-7.3216 34.1376-7.3216 12.1856 0 24.384 2.4448 34.1376 7.3216l451.0464 236.4928c34.1248 17.0624 34.1248 68.2624 0 85.3376l-51.2 26.816-365.7216-190.1696C558.336 28.032 536.384 23.168 512 23.168zM997.184 427.8912l-51.2 26.816L811.8912 384l-80.4608-41.4464-151.168-80.4608c-21.9392-9.7536-43.8784-17.0624-68.2624-17.0624-24.384 0-46.3232 4.864-68.2624 17.0624l-151.168 80.4608L212.1088 384 78.016 454.7072l-51.2-26.816c-34.1248-17.0752-34.1248-68.2752 0-85.3376l51.2-26.816 78.016-41.4464 319.3984-168.2304c9.7536-4.8768 21.9392-7.3216 34.1376-7.3216 12.1856 0 24.3712 2.432 34.1248 7.3216L863.104 274.2912l78.016 41.4464 51.2 26.816c39.0016 17.0624 39.0016 65.8304 4.864 85.3376zM997.184 649.7536L546.1376 886.2464A118.8608 118.8608 0 0 1 529.0624 893.568C524.1984 896 516.8768 896 512 896s-12.1856 0-17.0624-2.432c-4.8768-2.4448-12.1984-2.4448-17.0752-7.3216L26.816 649.7536c-34.1248-17.0624-34.1248-68.2624 0-85.3376l51.2-26.816 78.016-41.4464 134.1056-70.7072L368.1536 384l107.264-56.0768c9.7664-4.864 21.952-7.3088 34.1504-7.3088 12.1856 0 24.3712 2.432 34.1248 7.3088L650.9696 384l78.016 41.4464 134.1056 70.7072L941.1072 537.6l51.2 26.816c39.0016 17.0752 39.0016 68.2752 4.864 85.3376zM529.0624 887.168c-12.1856 6.4-24.3712 6.4-34.1248 0 4.864 6.4 12.1856 6.4 17.0624 6.4s12.1856 0 17.0624-6.4z"  horiz-adv-x="1024" />

    
    <glyph glyph-name="guanliankehu" unicode="&#58960;" d="M894.0032 433.9968c30.8992 0 43.776 39.68 18.688 58.0096L530.7904 769.792a31.8208 31.8208 0 0 1-37.5808 0L111.3088 492.032c-25.088-18.2016-12.2112-58.0096 18.7904-58.0096H192v-374.016H119.9872a8.0128 8.0128 0 0 1-7.9872-7.9872V0c0-4.4032 3.584-8.0128 8.0128-8.0128h784c4.3776 0 7.9872 3.6096 7.9872 8.0128v51.9936a8.0128 8.0128 0 0 1-8.0128 8.0128H832v374.016h62.0032z m-513.024-374.016h-116.992v374.016h116.992v-374.016z m189.0304 0h-116.992v374.016h116.992v-374.016z m190.0032 0h-118.016v374.016h118.016v-374.016z"  horiz-adv-x="1024" />

    
    <glyph glyph-name="fenzumingcheng" unicode="&#58961;" d="M880 784H144c-17.6896 0-32-14.3104-32-32v-736c0-17.6896 14.3104-32 32-32h736c17.6896 0 32 14.3104 32 32V752c0 17.6896-14.3104 32-32 32z m-40.0128-728.0128H184.0384V712.0384h656v-656zM492.032 496h183.9872c4.4032 0 8.0128 3.584 8.0128 8.0128v47.9744a8.0128 8.0128 0 0 1-8.0128 8.0128H492.032a8.0128 8.0128 0 0 1-8.0128-8.0128v-47.9744c0-4.4032 3.584-8.0128 8.0128-8.0128z m0-144h183.9872c4.4032 0 8.0128 3.584 8.0128 8.0128v48a8.0128 8.0128 0 0 1-8.0128 7.9872H492.032a8.0128 8.0128 0 0 1-8.0128-8.0128v-48c0-4.3776 3.584-7.9872 8.0128-7.9872z m0-144h183.9872c4.4032 0 8.0128 3.584 8.0128 8.0128v48a8.0128 8.0128 0 0 1-8.0128 7.9872H492.032a8.0128 8.0128 0 0 1-8.0128-8.0128v-48c0-4.3776 3.584-7.9872 8.0128-7.9872z m-152.0128 320a40.0128 40.0128 0 1 1 80 0 40.0128 40.0128 0 0 1-80 0z m0-144a40.0128 40.0128 0 1 1 80 0 40.0128 40.0128 0 0 1-80 0z m0-144a40.0128 40.0128 0 1 1 80 0 40.0128 40.0128 0 0 1-80 0z"  horiz-adv-x="1024" />

    
    <glyph glyph-name="fenzu" unicode="&#58962;" d="M880.011636 783.988364H143.965091c-17.687273 0-32-14.289455-32-32v-736c0-17.687273 14.312727-31.976727 32-31.976728h736c17.710545 0 32.023273 14.289455 32.023273 31.976728V752.034909c0 17.687273-14.312727 32-32.023273 32zM379.997091 200.029091a39.982545 39.982545 0 1 0 0 79.965091 39.982545 39.982545 0 0 0 0-79.965091z m0 143.988364a39.982545 39.982545 0 1 0 0 79.988363 39.982545 39.982545 0 0 0 0-79.988363z m0 144.011636a39.982545 39.982545 0 1 0 0 79.965091 39.982545 39.982545 0 0 0 0-79.965091zM684.008727 215.970909c0-4.398545-3.607273-7.982545-8.005818-7.982545H491.985455a8.029091 8.029091 0 0 0-8.005819 7.982545v48.011636c0 4.398545 3.607273 7.982545 8.005819 7.982546h183.994181c4.398545 0 8.005818-3.584 8.005819-7.982546v-48.011636z m0 144.011636c0-4.421818-3.607273-8.005818-8.005818-8.005818H491.985455a8.029091 8.029091 0 0 0-8.005819 8.005818V407.970909c0 4.421818 3.607273 8.005818 8.005819 8.005818h183.994181c4.398545 0 8.005818-3.607273 8.005819-8.005818v-47.988364z m0 143.988364c0-4.398545-3.607273-7.982545-8.005818-7.982545H491.985455a8.029091 8.029091 0 0 0-8.005819 7.982545V552.029091c0 4.398545 3.607273 8.005818 8.005819 8.005818h183.994181c4.398545 0 8.005818-3.607273 8.005819-8.005818v-48.011636z"  horiz-adv-x="1024" />

    
    <glyph glyph-name="dizhi" unicode="&#58963;" d="M854.6048 606.8992a362.496 362.496 0 0 1-79.8976 115.712 370.8416 370.8416 0 0 1-118.1952 77.7984A375.0656 375.0656 0 0 1 512 829.0048a376.832 376.832 0 0 1-144.512-28.4928 372.5056 372.5056 0 0 1-118.1952-77.824 363.5968 363.5968 0 0 1-79.872-115.712 355.1488 355.1488 0 0 1-29.44-141.9776c0-70.6048 16.896-140.9024 50.1248-208.6912 26.7008-54.528 64-107.5968 111.0016-158.1056 80.2816-86.1952 164.48-138.9056 188.416-153.0112 6.8864-4.096 14.6688-6.0928 22.3744-6.0928 7.808 0 15.5136 1.9968 22.4 6.0928 23.9104 14.1056 108.1088 66.816 188.416 153.0112 46.976 50.4064 84.2752 103.6032 110.976 158.1056 33.408 67.6864 50.304 137.8816 50.304 208.5888 0 49.2032-9.8816 97.024-29.3888 142.0032zM512 15.7952C446.1056 57.7024 211.9936 223.5904 211.9936 464.896c0 77.9008 31.104 151.0912 87.6032 206.3104C356.3008 726.5024 431.6928 756.992 512 756.992c80.3072 0 155.6992-30.4896 212.4032-85.888 56.4992-55.0912 87.6032-128.3072 87.6032-206.208 0-241.3056-234.112-407.1936-300.0064-449.1008z m0 617.216a176 176 0 1 1 0-352 176 176 0 0 1 0 352z m79.2064-255.232A111.616 111.616 0 0 0 512 345.0368a111.616 111.616 0 0 0-79.2064 32.768 111.616 111.616 0 0 0-32.7936 79.232 111.616 111.616 0 0 0 32.7936 79.1808A111.1808 111.1808 0 0 0 512 569.0112c29.9008 0 58.0096-11.6224 79.2064-32.8192a111.1808 111.1808 0 0 0 32.7936-79.1808 111.1808 111.1808 0 0 0-32.7936-79.2064z"  horiz-adv-x="1024" />

    
    <glyph glyph-name="morentouxiang" unicode="&#58956;" d="M850.807467 27.630933a365.687467 365.687467 0 0 1-78.813867 116.8384 367.274667 367.274667 0 0 1-116.855467 78.813867c-0.375467 0.187733-0.768 0.290133-1.160533 0.477867a241.9712 241.9712 0 0 1 100.522667 196.539733c0 133.956267-108.544 242.4832-242.500267 242.4832-133.956267 0-242.4832-108.526933-242.4832-242.4832 0-80.861867 39.594667-152.5248 100.522667-196.625067-0.4096-0.2048-0.802133-0.290133-1.194667-0.494933a364.100267 364.100267 0 0 1-116.8384-78.813867 367.274667 367.274667 0 0 1-78.813867-116.8384 363.451733 363.451733 0 0 1-28.842666-135.031466c-0.085333-4.4032 3.413333-8.021333 7.8336-8.021334h58.658133c4.3008 0 7.7312 3.413333 7.8336 7.6288a291.498667 291.498667 0 0 0 85.845333 199.765334A291.396267 291.396267 0 0 0 512 177.8176c78.421333 0 152.046933-30.5152 207.479467-85.947733a291.498667 291.498667 0 0 0 85.845333-199.765334 7.748267 7.748267 0 0 1 7.8336-7.6288h58.658133a7.8336 7.8336 0 0 1 7.8336 8.021334 364.373333 364.373333 0 0 1-28.842666 135.133866zM512 252.125867a167.082667 167.082667 0 0 0-118.903467 49.271466 167.082667 167.082667 0 0 0-49.271466 118.903467 167.082667 167.082667 0 0 0 49.271466 118.903467A167.082667 167.082667 0 0 0 512 588.458667a167.082667 167.082667 0 0 0 118.903467-49.271467 167.082667 167.082667 0 0 0 49.271466-118.903467 167.082667 167.082667 0 0 0-49.271466-118.903466A167.082667 167.082667 0 0 0 512 252.125867z"  horiz-adv-x="1024" />

    
    <glyph glyph-name="zhucezijin" unicode="&#58964;" d="M880 711.978667h-168.021333v64a8.021333 8.021333 0 0 1-7.978667 8.021333h-56.021333a8.021333 8.021333 0 0 1-7.978667-8.021333v-64H384v64a8.021333 8.021333 0 0 1-8.021333 8.021333H320a8.021333 8.021333 0 0 1-8.021333-8.021333v-64H144.042667a32 32 0 0 1-32-32v-663.978667c0-17.706667 14.293333-32 32-32h736a32 32 0 0 1 32 32V680.021333a32 32 0 0 1-32 32z m-231.68-242.773334l-87.722667-161.109333h45.696c5.546667 0 10.026667-4.48 10.026667-9.984v-21.333333a10.026667 10.026667 0 0 0-10.026667-9.984h-63.402666v-29.696h63.402666c5.546667 0 10.026667-4.48 10.026667-9.984v-21.333334a10.026667 10.026667 0 0 0-10.026667-9.984h-63.402666v-51.797333a10.026667 10.026667 0 0 0-9.984-9.984h-41.301334a10.026667 10.026667 0 0 0-10.026666 9.984v51.797333H418.56a10.026667 10.026667 0 0 0-10.026667 9.984v21.333334c0 5.504 4.522667 9.984 10.026667 9.984h63.104v29.696h-63.146667a10.026667 10.026667 0 0 0-9.984 10.026666v21.290667c0 5.504 4.522667 9.984 10.026667 9.984h45.184l-88.021333 161.109333a10.069333 10.069333 0 0 0 8.832 14.805334h45.994666c3.797333 0 7.210667-2.133333 8.874667-5.546667l72.917333-144.256 73.216 144.298667a9.984 9.984 0 0 0 8.874667 5.504h45.013333c5.504 0 9.984-4.522667 9.984-10.026667a8.96 8.96 0 0 0-1.066666-4.778667z"  horiz-adv-x="1024" />

    
    <glyph glyph-name="zhuceriqi" unicode="&#58965;" d="M512 832C264.618667 832 64 631.381333 64 384S264.618667-64 512-64 960 136.618667 960 384 759.381333 832 512 832z m176.512-585.685333l-28.586667-38.997334a7.978667 7.978667 0 0 0-11.221333-1.706666l-165.418667 120.576a7.936 7.936 0 0 0-3.285333 6.528V608c0 4.394667 3.584 8.021333 8.021333 8.021333h48.085334c4.394667 0 7.978667-3.626667 7.978666-8.021333v-247.466667l142.634667-103.125333a7.893333 7.893333 0 0 0 1.792-11.093333z"  horiz-adv-x="1024" />

    
    <glyph glyph-name="qiyedizhi" unicode="&#58966;" d="M512 569.002667c-29.866667 0-58.026667-11.605333-79.189333-32.810667a111.616 111.616 0 0 1-32.810667-79.189333c0-29.866667 11.690667-58.026667 32.810667-79.189334a111.616 111.616 0 0 1 79.189333-32.853333c29.866667 0 58.026667 11.733333 79.189333 32.853333a111.189333 111.189333 0 0 1 32.810667 79.189334c0 29.866667-11.605333 58.026667-32.810667 79.189333A111.189333 111.189333 0 0 1 512 569.002667z m342.613333 37.888a362.496 362.496 0 0 1-79.914666 115.712 370.816 370.816 0 0 1-118.186667 77.781333A375.04 375.04 0 0 1 512 829.013333a376.832 376.832 0 0 1-144.512-28.458666 372.48 372.48 0 0 1-118.186667-77.824A363.605333 363.605333 0 0 1 169.386667 607.018667a355.157333 355.157333 0 0 1-29.397334-142.037334c0-70.570667 16.896-140.885333 50.090667-208.682666 26.709333-54.485333 64-107.605333 111.018667-158.08 80.298667-86.186667 164.48-138.922667 188.416-153.002667a43.904 43.904 0 0 1 44.8 0c23.893333 14.08 108.074667 66.773333 188.373333 153.002667 47.018667 50.346667 84.309333 103.594667 111.018667 158.08 33.408 67.712 50.304 137.898667 50.304 208.64a355.157333 355.157333 0 0 1-29.44 141.952zM512 281.002667a176 176 0 1 0 0 352 176 176 0 0 0 0-352z"  horiz-adv-x="1024" />

    
    <glyph glyph-name="guanlianguanxi-zhong" unicode="&#58967;" d="M880 591.0016h-256V704c0 17.6896-14.3104 32-32 32H183.9872V776.0128a8.0128 8.0128 0 0 1-7.9872 7.9872H119.9872a8.0128 8.0128 0 0 1-7.9872-8.0128v-784c0-4.3776 3.584-7.9872 8.0128-7.9872h55.9872c4.4032 0 8.0128 3.584 8.0128 8.0128V256h247.9872v-112.9984c0-17.6896 14.3104-32 32-32h416c17.6896 0 32 14.3104 32 32v416c0 17.6896-14.3104 32-32 32zM183.9872 327.9872V663.9872h368v-335.9744H184.0128z m656-144.9984H504.0128V256h112c4.3776 0 7.9872 3.584 7.9872 8.0128v254.976h216.0128v-336z"  horiz-adv-x="1024" />

    
    <glyph glyph-name="guanlianguanxi-qi" unicode="&#58968;" d="M880 591.0016h-256V704c0 17.6896-14.3104 32-32 32H183.9872V776.0128a8.0128 8.0128 0 0 1-7.9872 7.9872H119.9872a8.0128 8.0128 0 0 1-7.9872-8.0128v-784c0-4.3776 3.584-7.9872 8.0128-7.9872h55.9872c4.4032 0 8.0128 3.584 8.0128 8.0128V256h247.9872v-112.9984c0-17.6896 14.3104-32 32-32h416c17.6896 0 32 14.3104 32 32v416c0 17.6896-14.3104 32-32 32zM183.9872 327.9872V663.9872h368v-335.9744H184.0128z m656-144.9984H504.0128V256h112c4.3776 0 7.9872 3.584 7.9872 8.0128v254.976h216.0128v-336z"  horiz-adv-x="1024" />

    
    <glyph glyph-name="shoujiyinhang" unicode="&#58969;" d="M725.3376 264.5376c-55.4752-29.8752-128-51.2-213.3376-51.2-85.3376 0-157.8624 21.3248-213.3376 51.2v-51.2C298.6624 166.4 392.5376 128 512 128c119.4624 0 213.3376 38.4 213.3376 85.3376v51.2z m0 119.4624v51.2c-55.4752-29.8624-128-51.2-213.3376-51.2-85.3376 0-157.8624 21.3376-213.3376 51.2v-51.2c0-46.9376 93.8752-85.3376 213.3376-85.3376 119.4624 0 213.3376 38.4 213.3376 85.3376z m85.3248 170.6624v-341.3248C810.6624 119.4624 678.4 42.6624 512 42.6624c-166.4 0-298.6624 76.8-298.6624 170.6752V554.6624C213.3376 648.5376 345.6 725.3376 512 725.3376c166.4 0 298.6624-76.8 298.6624-170.6752zM512 469.3376c119.4624 0 213.3376 38.4 213.3376 85.3248C725.3376 601.6 631.4624 640 512 640c-119.4624 0-213.3376-38.4-213.3376-85.3376 0-46.9248 93.8752-85.3248 213.3376-85.3248z"  horiz-adv-x="1024" />

    
    <glyph glyph-name="wangyin" unicode="&#58970;" d="M661.3376 384l59.7248 59.7376 89.6 89.6L870.4 473.6l-89.6-89.6 89.6-89.6-59.7376-59.7376-89.6 89.6L661.3376 384z m149.3248 170.6624h-85.3248v42.6752H298.6624v-426.6752h426.6752v42.6752h85.3248v-128H213.3376V682.6624h597.3248v-128zM554.6624 384H640v-85.3376h-85.3376v-85.3248h-85.3248v85.3248H384V384h85.3376v25.6L384 494.9376l59.7376 59.7248L512 486.4l64 68.2624 59.7376-59.7248L554.6624 409.6v-25.6z"  horiz-adv-x="1024" />

    
    <glyph glyph-name="xianjinguanlipingtai" unicode="&#58971;" d="M554.6624 204.8l81.0752-81.0624L576 64l-64 64-68.2624-68.2624L384 119.4624 469.3376 204.8v51.2H170.6624V682.6624h298.6752v42.6752h85.3248v-42.6752h298.6752V256H554.6624v-51.2zM256 597.3376v-256h512v256H256z"  horiz-adv-x="1024" />

    
    <glyph glyph-name="zhanghutuishui" unicode="&#58972;" d="M729.6 170.6624L682.6624 217.6 742.4 277.3376 891.7376 128 742.4-21.3376 682.6624 38.4 729.6 85.3376H554.6624v85.3248H729.6z m-166.4 128l-51.2 12.8v-34.1248h-38.4l-25.6 21.3248V576h256v-234.6624h-72.5376L704 320v-21.3376H563.2zM512 256v-64h-64l-42.6624 38.4-38.4-38.4L320 238.9376 362.6624 281.6V439.4624h-46.9248v64h110.9248v-204.8l46.9376-38.4h38.4V256z m298.6624 42.6624h-85.3248V597.3376H298.6624v-426.6752H512v-85.3248H213.3376V682.6624h597.3248v-384zM640 512H512v-21.3376h128V512z m0-85.3376H512v-21.3248h128v21.3248zM328.5376 550.4l46.9248 46.9376L422.4 550.4l-46.9376-46.9376L328.5376 550.4z"  horiz-adv-x="1024" />

    
    <glyph glyph-name="POSji" unicode="&#58973;" d="M682.6624 469.3376H341.3376v85.3248h341.3248v-85.3248z m0-170.6752v-85.3248h-85.3248V426.6624h85.3248v-128zM213.3376 725.3376h597.3248v-682.6752H213.3376V725.3376zM298.6624 640v-512h426.6752V640H298.6624z m42.6752-213.3376h85.3248v-85.3248h-85.3248v85.3248z m128 0h85.3248v-85.3248h-85.3248v85.3248z m-128-128h85.3248v-85.3248h-85.3248v85.3248z m128 0h85.3248v-85.3248h-85.3248v85.3248z m-256 426.6752h597.3248V640H213.3376v85.3376z"  horiz-adv-x="1024" />

    
    <glyph glyph-name="zhifumimaqi" unicode="&#58974;" d="M896 640v-512H128V640h768zM298.6624 426.6624h-85.3248v-85.3248h85.3248v85.3248z m128 0h-85.3248v-85.3248h85.3248v85.3248z m128 0h-85.3248v-85.3248h85.3248v85.3248z m128 0h-85.3248v-85.3248h85.3248v85.3248z m128 0h-85.3248v-85.3248h85.3248v85.3248z m-469.3248 128h-128v-85.3248h128v85.3248z m128 0H384v-85.3248h85.3376v85.3248z m128 0H512v-85.3248h85.3376v85.3248z m213.3248 0H640v-85.3248h170.6624v85.3248z m-469.3248-256h-128v-85.3248h128v85.3248z m298.6624 0H384v-85.3248h256v85.3248z m170.6624 0h-128v-85.3248h128v85.3248z"  horiz-adv-x="1024" />

    
    <glyph glyph-name="duanxin" unicode="&#58975;" d="M298.6624 128l-85.3248-85.3376v640h597.3248V128h-512zM384 213.3376h341.3376v384H298.6624v-384H384z m256 213.3248H384V512h256v-85.3376z m-85.3376-128H384V384h170.6624v-85.3376z"  horiz-adv-x="1024" />

    
    <glyph glyph-name="daikouzhengqifei" unicode="&#58976;" d="M832 128v-85.3376H192V128h640zM601.6 320a89.6 89.6 0 1 0 0 179.2 89.6 89.6 0 0 0 0-179.2z m-281.6-115.2a64 64 0 1 0 0 128 64 64 0 0 0 0-128z m64 307.2a38.4 38.4 0 1 0 0 76.8 38.4 38.4 0 0 0 0-76.8z m38.4-102.4a25.6 25.6 0 1 0 0 51.2 25.6 25.6 0 0 0 0-51.2z m115.2-166.4a38.4 38.4 0 1 0 0 76.8 38.4 38.4 0 0 0 0-76.8z m275.2 115.2a19.2 19.2 0 1 0 0 38.4 19.2 19.2 0 0 0 0-38.4zM678.4 640a38.4 38.4 0 1 0 0 76.8 38.4 38.4 0 0 0 0-76.8z m51.2-473.6a51.2 51.2 0 1 0 0 102.4 51.2 51.2 0 0 0 0-102.4z"  horiz-adv-x="1024" />

    
    <glyph glyph-name="daikouguodishui" unicode="&#58977;" d="M512 430.9376l51.2 51.2L622.9376 422.4l-51.2-51.2-17.0752-17.0624V320H640v-85.3376h-85.3376v-64h-85.3248v64H384V320h85.3376v34.1376L401.0624 422.4 460.8 482.1376l51.2-51.2z m-72.5376 294.4c12.8 25.6 42.6752 42.6624 72.5376 42.6624 29.8624 0 59.7376-17.0624 72.5376-42.6624H768V0H256V725.3376h183.4624z m-12.8-85.3376h-85.3248v-554.6624h341.3248V640h-256z m0 0h170.6752v-42.6624H426.6624V640z"  horiz-adv-x="1024" />

    
    <glyph glyph-name="daijiaoshebao" unicode="&#58978;" d="M712.5376 179.2l-38.4 38.4h-307.2l-38.4-38.4v-46.9376h384V179.2z m85.3248 38.4v-170.6624H243.2V217.6h4.2624L332.8 302.9376h375.4624l89.6-85.3376z m-85.3248 320c0-106.6624-85.3376-192-192-192-106.6752 0-192 85.3376-192 192s85.3248 192 192 192c106.6624 0 192-85.3376 192-192zM627.2 537.6c0 59.7376-46.9376 106.6624-106.6624 106.6624-59.7376 0-106.6752-46.9248-106.6752-106.6624s46.9376-106.6624 106.6752-106.6624C580.2624 430.9376 627.2 477.8624 627.2 537.6z"  horiz-adv-x="1024" />

    
    <glyph glyph-name="daikouranqifei" unicode="&#58979;" d="M729.6 495.36l-42.24 57.6-25.6-66.56c-5.12-14.08-12.8-28.16-23.04-40.96 24.32 145.92-62.72 215.04-107.52 240.64L477.44 716.8l-2.56-64c-1.28-62.72-30.72-80.64-83.2-112.64-39.68-24.32-88.32-53.76-126.72-112.64-46.08-69.12-49.92-160-8.96-236.8C303.36 102.4 396.8 51.2 513.28 51.2c115.2 0 209.92 52.48 254.72 142.08 47.36 90.88 33.28 204.8-38.4 302.08z m-29.44-267.52c-32-64-99.84-99.84-186.88-99.84s-156.16 35.84-189.44 98.56c-28.16 51.2-25.6 112.64 5.12 158.72 29.44 44.8 67.84 67.84 103.68 89.6 39.68 24.32 84.48 51.2 106.24 106.24 37.12-47.36 38.4-115.2 2.56-200.96l-21.76-52.48h57.6c49.92 0 92.16 29.44 122.88 69.12 24.32-58.88 25.6-119.04 0-168.96z"  horiz-adv-x="1024" />

    
    <glyph glyph-name="daifagongzi" unicode="&#58980;" d="M554.6624 298.6624V256h-85.3248v42.6624H384V384h76.8l-68.2624 68.2624 64 59.7376L512 456.5376 567.4624 512 627.2 452.2624 563.2 384h76.8v-85.3376h-85.3376zM896 512v-384H128V640h768v-128z m-85.3376-21.3376v64H213.3376v-64c25.6-21.3248 42.6624-51.2 42.6624-85.3248 0-34.1376-17.0624-64-42.6624-85.3376v-106.6624h597.3248V320c-25.6 21.3376-42.6624 51.2-42.6624 85.3376 0 34.1248 17.0624 64 42.6624 85.3248z"  horiz-adv-x="1024" />

    
    <glyph glyph-name="daikoudianfei" unicode="&#58981;" d="M669.8624 426.6624h140.8L298.6624 0l102.4 341.3376H256l128 384h384l-98.1376-298.6752zM550.4 341.3376L648.5376 640h-204.8L371.2 426.6624h140.8l-55.4624-179.2 115.2 93.8752H550.4z"  horiz-adv-x="1024" />

    
    <glyph glyph-name="daikoushuifei" unicode="&#58982;" d="M640 238.9376c17.0624 12.8 34.1376 17.0624 55.4624 17.0624 25.6 0 46.9376-8.5376 68.2752-21.3376 4.2624 0 8.5248-4.2624 8.5248-8.5248 12.8-8.5376 17.0752-12.8 29.8752-12.8 17.0624-4.2752 38.4 4.2624 68.2624 25.6l55.4624-68.2752c-46.9248-38.4-93.8624-51.2-136.5248-42.6624-21.3376 4.2624-38.4 12.8-59.7376 25.6 0 0-8.5376 4.2624-8.5376 8.5376-17.0624 8.5248-17.0624 8.5248-25.6 8.5248-4.2624 0-8.5248 0-17.0624-8.5248h-4.2624C661.3376 153.6 652.8 145.0624 640 140.8v-55.4624H384v46.9248c-8.5376-4.2624-17.0624-4.2624-29.8624-4.2624-25.6 0-46.9376 8.5376-68.2752 21.3376-4.2624 0-8.5248 4.2624-8.5248 8.5248-12.8 8.5376-17.0752 12.8-29.8752 12.8-17.0624 4.2752-38.4-4.2624-68.2624-25.6l-51.2 68.2752c46.9376 38.4 93.8624 51.2 136.5376 42.6624 21.3248-4.2624 38.4-12.8 59.7248-25.6 0 0 8.5376-4.2624 8.5376-8.5376 12.8-8.5248 17.0624-8.5248 21.3376-8.5248 4.2624 0 8.5248 0 17.0624 8.5248h4.2624c4.2752 0 4.2752 4.2752 8.5376 4.2752v72.5248h-29.8624c-25.6 0-46.9376 8.5376-68.2752 21.3376-4.2624 0-8.5248 4.2624-8.5248 8.5376-12.8 8.5248-17.0752 12.8-29.8752 12.8-17.0624 4.2624-38.4-4.2752-68.2624-25.6L128 384c46.9376 38.4 93.8624 51.2 136.5376 42.6624 21.3248-4.2624 38.4-12.8 59.7248-25.6 0 0 8.5376-4.2624 8.5376-8.5248C345.6 384 349.8624 384 354.1376 384c4.2624 0 8.5248 0 17.0624 8.5376h4.2624c4.2752 0 4.2752 4.2624 8.5376 4.2624v76.8c-8.5376-4.2624-17.0624-4.2624-29.8624-4.2624-25.6 0-46.9376 8.5248-68.2752 21.3248-4.2624 0-8.5248 4.2752-8.5248 8.5376-12.8 8.5376-17.0752 12.8-29.8752 12.8-17.0624 4.2624-38.4-4.2624-64-25.6L128 554.6624c46.9376 38.4 93.8624 51.2 136.5376 42.6752 21.3248-4.2752 38.4-12.8 59.7248-25.6 0 0 8.5376-4.2752 8.5376-8.5376 12.8-8.5376 17.0624-8.5376 21.3376-8.5376 4.2624 0 8.5248 0 17.0624 8.5376h4.2624c4.2752 0 4.2752 4.2624 8.5376 4.2624v115.2h256v-102.4c17.0624 12.8 34.1376 17.0752 55.4624 17.0752 25.6 0 46.9376-8.5376 68.2752-21.3376 4.2624 0 8.5248-4.2624 8.5248-8.5376 12.8-8.5248 21.3376-12.8 29.8752-12.8 17.0624-4.2624 38.4 4.2752 68.2624 25.6L925.8624 512c-46.9248-38.4-93.8624-51.2-136.5248-42.6624-21.3376 4.2624-38.4 12.8-59.7376 25.6 0 0-8.5376 4.2624-8.5376 8.5248C704 512 704 512 695.4624 512c-4.2624 0-8.5248 0-17.0624-8.5376h-4.2624C661.3376 494.9376 652.8 486.4 640 482.1376v-68.2752c17.0624 12.8 34.1376 17.0752 55.4624 17.0752 25.6 0 46.9376-8.5376 68.2752-21.3376 4.2624 0 8.5248-4.2624 8.5248-8.5376 12.8-8.5248 17.0752-12.8 29.8752-12.8 17.0624-4.2624 38.4 4.2752 68.2624 25.6L925.8624 345.6c-46.9248-38.4-93.8624-51.2-136.5248-42.6624-21.3376 4.2624-38.4 12.8-59.7376 25.6 0 0-8.5376 4.2624-8.5376 8.5248-17.0624 4.2752-17.0624 4.2752-25.6 4.2752-4.2624 0-8.5248 0-17.0624-8.5376h-4.2624c-12.8-8.5376-21.3376-17.0624-34.1376-21.3376v-72.5248z m-85.3376 358.4h-85.3248v-42.6752H512v-85.3248h-42.6624v-42.6752H512v-85.3248h-42.6624v-42.6752H512v-85.3248h-42.6624v-42.6752h85.3248V597.3376z"  horiz-adv-x="1024" />

    
    <glyph glyph-name="daijiaogongjijin" unicode="&#58983;" d="M896 341.3376h-42.6624v-298.6752H170.6624V341.3376H128l384 384 384-384z m-640 8.5248V128h512V349.8624l-256 256-256-256z m174.9376 76.8H601.6v-85.3248H430.9376v85.3248z"  horiz-adv-x="1024" />

    
    <glyph glyph-name="waiqindidian" unicode="&#58984;" d="M881.105455 337.454545H779.636364a11.636364 11.636364 0 0 0-11.636364 11.636364v69.818182a11.636364 11.636364 0 0 0 11.636364 11.636364h101.469091C860.113455 598.737455 726.737455 732.113455 558.545455 753.105455v-101.469091a11.636364 11.636364 0 0 0-11.636364-11.636364h-69.818182a11.636364 11.636364 0 0 0-11.636364 11.636364V753.105455C297.262545 732.113455 163.886545 598.737455 142.894545 430.545455h101.469091a11.636364 11.636364 0 0 0 11.636364-11.636364v-69.818182a11.636364 11.636364 0 0 0-11.636364-11.636364H142.894545c20.992-168.192 154.368-301.568 322.56-322.56V116.363636a11.636364 11.636364 0 0 0 11.636364 11.636364h69.818182a11.636364 11.636364 0 0 0 11.636364-11.636364v-101.469091c168.192 20.992 301.568 154.368 322.56 322.56zM512 832c247.389091 0 448-200.610909 448-448S759.389091-64 512-64 64 136.610909 64 384 264.610909 832 512 832z"  horiz-adv-x="1024" />

    
    <glyph glyph-name="fengxianpingji" unicode="&#58985;" d="M754.005333 444.177067a259.754667 259.754667 0 0 1-67.413333 8.874666c-148.923733 0-269.653333-125.8496-269.653333-281.053866 0-71.9872 25.975467-137.6256 68.676266-187.357867H136.533333a34.133333 34.133333 0 0 0-34.133333 34.133333V793.6a34.133333 34.133333 0 0 0 34.133333 34.133333h583.338667a34.133333 34.133333 0 0 0 34.133333-34.133333v-349.422933zM281.6 628.053333a11.093333 11.093333 0 0 1 0-22.186666h293.102933a11.093333 11.093333 0 0 1 0 22.186666H281.634133zM218.589867 428.373333a11.093333 11.093333 0 0 1 0-22.186666h145.954133a11.093333 11.093333 0 0 1 0 22.186666H218.589867z m0-177.493333a11.093333 11.093333 0 0 1 0-22.186667h61.883733a11.093333 11.093333 0 0 1 0 22.186667H218.589867z m461.824-310.613333c-121.856 0-220.706133 104.311467-220.706134 232.96 0 128.682667 98.816 232.96 220.706134 232.96s220.706133-104.311467 220.706133-232.96c0-128.682667-98.816-232.96-220.706133-232.96z m0 156.398933l84.445866-45.4656-16.110933 96.324267 68.266667 68.232533-94.378667 14.0288-42.222933 87.6544-42.222934-87.6544-94.378666-14.0288 68.266666-68.232533-16.110933-96.324267 84.445867 45.4656z"  horiz-adv-x="1024" />

    
    <glyph glyph-name="hezuonianxian" unicode="&#58986;" d="M999.082667 563.8144l-273.237334 273.271467a84.6848 84.6848 0 0 1-119.739733 0l-119.296-119.296-0.580267-0.648534-66.7648 66.798934a90.555733 90.555733 0 0 1-127.931733 0L26.453333 518.826667a90.5216 90.5216 0 0 1 0-127.8976l429.738667-429.738667a90.5216 90.5216 0 0 1 127.8976 0l265.1136 265.1136c24.132267 24.200533 32.597333 59.938133 21.845333 92.433067a30.208 30.208 0 0 1 8.772267 6.007466l119.261867 119.296c33.041067 33.109333 33.041067 86.698667 0 119.773867zM617.608533 21.674667a22.596267 22.596267 0 0 0-31.982933 0l-191.931733 191.965866a22.6304 22.6304 0 0 0 31.982933 32.017067l191.931733-192a22.596267 22.596267 0 0 0 0-31.982933z m82.193067 82.193066a22.596267 22.596267 0 0 0-31.982933 0l-191.965867 191.931734a22.596267 22.596267 0 1 0 31.982933 31.982933l191.965867-191.931733a22.596267 22.596267 0 0 0 0-31.982934zM781.994667 186.026667a22.596267 22.596267 0 0 0-31.982934 0l-191.965866 191.931733a22.596267 22.596267 0 1 0 31.982933 31.982933l191.965867-191.8976a22.596267 22.596267 0 0 0 0-32.017066z m51.5072 139.639466a22.596267 22.596267 0 0 0-31.982934 0l-325.632 325.632a22.596267 22.596267 0 1 0 31.982934 31.9488l325.632-325.597866a22.596267 22.596267 0 0 0 0-31.982934z"  horiz-adv-x="1024" />

    
    <glyph glyph-name="suoshuhangye" unicode="&#58987;" d="M946.517333 390.997333L534.562133 802.6112a31.914667 31.914667 0 0 1-45.192533 0L77.482667 390.997333a64.068267 64.068267 0 0 1 45.192533-109.294933h43.383467v-293.717333c0-17.681067 14.336-31.982933 32.017066-31.982934h249.890134v223.982934h111.991466v-223.982934h265.898667a31.9488 31.9488 0 0 1 32.017067 31.982934v293.717333h43.383466c16.9984 0 33.314133 6.690133 45.294934 18.773333 24.917333 25.019733 24.917333 65.536-0.1024 90.5216z"  horiz-adv-x="1024" />

    
    <glyph glyph-name="xinyongpingji" unicode="&#58988;" d="M908.0832 542.890667l-253.883733 36.898133-113.493334 230.126933a31.812267 31.812267 0 0 1-14.506666 14.472534 32.119467 32.119467 0 0 1-42.9056-14.472534l-113.493334-230.126933-253.883733-36.864a31.9488 31.9488 0 0 1-17.7152-54.613333l183.7056-179.0976-43.4176-252.928a31.9488 31.9488 0 0 1 46.421333-33.6896L512 141.994667l227.089067-119.3984a31.9488 31.9488 0 0 1 46.421333 33.6896l-43.4176 252.928 183.7056 179.0976a31.9488 31.9488 0 0 1 9.3184 18.295466 31.880533 31.880533 0 0 1-27.0336 36.283734z"  horiz-adv-x="1024" />

    
    <glyph glyph-name="zhucexinxi" unicode="&#58989;" d="M832 832H296.004267a8.021333 8.021333 0 0 1-8.004267-8.004267V768c0-4.4032 3.584-8.004267 8.004267-8.004267h495.991466V72.021333c0-4.4032 3.601067-8.004267 8.004267-8.004266h55.995733a8.021333 8.021333 0 0 1 8.004267 8.004266V800A31.965867 31.965867 0 0 1 832 832z m-128-128h-512a31.965867 31.965867 0 0 1-32-32v-530.705067c0-8.4992 3.413333-16.5888 9.386667-22.596266L342.698667-54.596267c2.2016-2.218667 4.693333-4.010667 7.406933-5.495466v-1.911467h4.1984c3.498667-1.297067 7.202133-1.9968 10.990933-1.9968H704a31.965867 31.965867 0 0 1 32 32v704a31.965867 31.965867 0 0 1-32 32zM382.0032 0h-0.2048l-149.794133 149.794133v0.2048h149.998933V0z"  horiz-adv-x="1024" />

    
    <glyph glyph-name="duiwaitouzi" unicode="&#58990;" d="M865.826133 662.664533a116.1216 116.1216 0 0 0 54.715734-98.304v-329.762133a116.1216 116.1216 0 0 0-53.1456-96.3072l-9.386667-5.5296-277.384533-160.085333-2.474667-1.467734-2.423467-1.467733a116.3264 116.3264 0 0 0-111.172266 0l-1.6384 0.955733a59.784533 59.784533 0 0 0-4.266667 2.56L174.08 137.489067c-34.304 21.9136-54.289067 58.4704-54.289067 98.304V564.138667a115.3536 115.3536 0 0 0 55.005867 98.833066l5.905067 3.498667 284.091733 164.010667a116.992 116.992 0 0 0 108.714667 1.1264l8.123733-4.744534 277.162667-160c2.5088-1.194667 4.864-2.6112 7.031466-4.1984zM663.04 404.036267v-218.282667c0-38.263467 40.055467-38.263467 40.055467 0v218.282667c0 38.263467-40.055467 38.263467-40.055467 0z m-164.932267-72.6016v-145.783467c0-38.263467 40.072533-38.263467 40.072534 0V331.434667c0 38.263467-40.072533 38.263467-40.072534 0z m-164.932266-18.688v-127.146667c0-38.2464 40.072533-38.2464 40.072533 0v127.146667c0 38.263467-40.072533 38.263467-40.072533 0z m400.861866 332.663466a29.6448 29.6448 0 0 1-23.074133 11.383467h-98.645333c-38.2976 0-38.2976-59.3408 0-59.3408h35.157333c-75.4176-77.738667-182.101333-128.682667-291.601067-123.511467-38.280533 1.792-38.109867-57.5488 0-59.3408 122.4192-5.7856 239.36 49.425067 325.410134 133.6832v-30.72c0-38.263467 59.3408-38.263467 59.3408 0v102.4c3.498667 9.864533 0.170667 18.9952-6.587734 25.4464z"  horiz-adv-x="1024" />

    
    <glyph glyph-name="zibengoucheng" unicode="&#58991;" d="M512 832C264.6016 832 64 631.3984 64 384S264.6016-64 512-64 960 136.6016 960 384 759.3984 832 512 832z m22.306133-665.207467l0.187734-31.6928c0-4.4032-3.584-8.106667-7.9872-8.106666h-28.398934a8.021333 8.021333 0 0 0-8.021333 8.021333V166.4c-88.7808 6.6048-130.594133 57.207467-135.082667 112.196267a8.021333 8.021333 0 0 0 8.004267 8.704h46.199467c3.8912 0 7.287467-2.798933 7.8848-6.6048 5.12-31.6928 29.815467-55.3984 74.103466-61.303467v142.711467l-24.695466 6.2976c-52.292267 12.4928-102.0928 45.1072-102.0928 112.6912 0 72.9088 55.3984 112.110933 126.190933 119.005866v33.006934a8.021333 8.021333 0 0 0 8.004267 7.9872h28.091733a8.021333 8.021333 0 0 0 8.021333-7.9872v-32.699734c68.488533-6.912 119.876267-46.8992 125.883734-109.2096a7.9872 7.9872 0 0 0-8.004267-8.789333h-44.885333a7.9872 7.9872 0 0 0-7.901867 6.894933c-4.010667 29.184-27.409067 52.992-65.501867 58.197334v-134.314667l25.3952-5.888c64.802133-15.991467 108.885333-47.0016 108.885334-116.394667 0-75.298133-55.978667-117.2992-134.280534-124.1088z m-107.690666 318.907734c0-25.3952 15.684267-45.1072 49.493333-57.2928 4.693333-1.911467 9.386667-3.413333 14.984533-5.000534v123.989334c-36.898133-4.693333-64.494933-25.3952-64.494933-61.696z m116.48-135.202134a141.192533 141.192533 0 0 0-8.789334 2.2016v-133.700266c42.5984 3.805867 71.9872 27.204267 71.9872 66.389333 0 30.72-15.889067 50.705067-63.197866 65.109333z"  horiz-adv-x="1024" />

    
    <glyph glyph-name="lianxiren" unicode="&#58992;" d="M744.004267 833.9968H279.995733a64.0512 64.0512 0 0 1-64-64v-768a64.0512 64.0512 0 0 1 64-64h464.008534a64.0512 64.0512 0 0 1 64 64v768a64.0512 64.0512 0 0 1-64 64zM512 72.021333a39.9872 39.9872 0 1 0-0.017067 79.9744A39.9872 39.9872 0 0 0 512 72.004267z"  horiz-adv-x="1024" />

    
    <glyph glyph-name="qianyueyewu" unicode="&#58993;" d="M866.901333 726.101333L527.104 841.898667A49.186133 49.186133 0 0 1 512 843.997867c-5.495467 0-11.008-0.682667-15.104-2.0992L157.098667 726.101333c-8.2944-2.798933-15.104-12.407467-15.104-21.1968v-482.4064c0-8.8064 5.700267-20.394667 12.612266-25.890133L499.3024-72.021333c3.498667-2.696533 8.004267-4.096 12.5952-4.096 4.608 0 9.216 1.399467 12.5952 4.096L869.205333 196.608c6.894933 5.393067 12.5952 16.9984 12.5952 25.890133V704.904533c0.2048 8.789333-6.6048 18.295467-14.8992 21.1968zM694.493867 555.298133l-212.599467-292.693333a16.110933 16.110933 0 0 0-25.992533 0l-126.395734 173.994667a8.021333 8.021333 0 0 0 6.485334 12.6976h55.210666c5.102933 0 10.001067-2.491733 13.0048-6.6048l64.682667-88.9856L619.810133 561.493333a16.110933 16.110933 0 0 0 13.0048 6.6048h55.1936c6.5024-0.1024 10.308267-7.509333 6.5024-12.8z"  horiz-adv-x="1024" />

    
    <glyph glyph-name="wajueguanxi" unicode="&#58994;" d="M896 640v-32l-384-128-384 128V640L512 768 896 640zM512 416L224 512 128 480v-32l384-128 384 128v32L800 512 512 416z m0-160l-288 96L128 320v-32l384-128 384 128V320l-96 32L512 256z m0-160L224 192 128 160V128L512 0 896 128v32l-96 32L512 96z"  horiz-adv-x="1024" />

    
    <glyph glyph-name="jichuguanxi" unicode="&#58995;" d="M818.363733-12.288c-46.4896-24.610133-103.082667-7.202133-127.7952 37.597867-18.909867 34.696533-13.1072 77.994667 11.605334 105.506133l-36.3008 67.8912c-18.909867-5.802667-37.802667-8.704-58.112-8.704-89.992533 0-164.096 63.607467-178.602667 147.3024h-75.485867a94.446933 94.446933 0 0 0-88.610133-62.1056c-52.292267 0-94.395733 41.915733-94.395733 93.9008 0 52.002133 42.103467 93.9008 94.395733 93.9008 40.704 0 75.502933-24.593067 88.610133-60.689067h76.987734c16.008533 82.295467 90.0096 143.0016 178.602666 143.0016 14.506667 0 29.013333-1.399467 42.103467-4.3008l30.498133 72.192a92.330667 92.330667 0 0 0-23.210666 105.403734c20.309333 47.701333 75.52 70.792533 123.409066 50.602666 47.906133-20.206933 71.202133-75.093333 50.807467-122.811733-16.008533-37.597867-52.309333-59.1872-90.0096-57.787733l-32-75.093334c47.906133-31.812267 79.906133-86.698667 79.906133-147.3024 0-54.903467-26.112-104.004267-65.399466-137.216l36.3008-67.8912c37.802667 5.802667 77.0048-13.0048 97.297066-47.701333 23.296-43.400533 5.905067-101.205333-40.6016-125.696z"  horiz-adv-x="1024" />

    
    <glyph glyph-name="guanxichaxun" unicode="&#58996;" d="M866.901333 726.101333L527.104 841.898667A49.186133 49.186133 0 0 1 512 843.997867c-5.495467 0-11.008-0.682667-15.104-2.0992L157.098667 726.101333c-8.2944-2.798933-15.104-12.407467-15.104-21.1968v-482.4064c0-8.8064 5.700267-20.394667 12.612266-25.890133L499.3024-72.021333c3.498667-2.696533 8.004267-4.096 12.5952-4.096 4.608 0 9.216 1.399467 12.5952 4.096L869.205333 196.608c6.894933 5.393067 12.5952 16.9984 12.5952 25.890133V704.904533c0.2048 8.789333-6.6048 18.295467-14.8992 21.1968zM626.807467 341.998933a144.093867 144.093867 0 0 0-178.602667-20.104533l-77.499733-77.482667a8.021333 8.021333 0 0 0-11.298134 0l-34.013866 33.9968a8.021333 8.021333 0 0 0 0 11.298134l77.499733 77.482666a144.0768 144.0768 0 0 0 20.104533 178.602667 144.059733 144.059733 0 0 0 203.810134 0 144.059733 144.059733 0 0 0 0-203.776z m-158.549334 45.277867a80.093867 80.093867 0 1 1 113.271467 113.271467 80.093867 80.093867 0 0 1-113.271467-113.271467z"  horiz-adv-x="1024" />

    
    <glyph glyph-name="hangneiguanxi" unicode="&#58997;" d="M256 256h-64V448h288v128h64v-128H832V256H768V384H544v-128h-64V384H256v-128zM512 640c52.804267 0 96 43.195733 96 96S564.804267 832 512 832s-96-43.195733-96-96S459.195733 640 512 640z m0-448c-52.804267 0-96-43.195733-96-96S459.195733 0 512 0s96 43.195733 96 96S564.804267 192 512 192z m-288 0c-52.804267 0-96-43.195733-96-96s43.195733-96 96-96 96 43.195733 96 96-43.195733 96-96 96z m576 0c-52.804267 0-96-43.195733-96-96s43.195733-96 96-96 96 43.195733 96 96-43.195733 96-96 96z"  horiz-adv-x="1024" />

    
    <glyph glyph-name="rongzileiyewu" unicode="&#58998;" d="M911.496533 196.3008a8.021333 8.021333 0 0 1-10.2912 4.795733l-61.201066-22.289066V717.0048a67.9424 67.9424 0 0 1-68.010667 67.9936H252.0064a67.9424 67.9424 0 0 1-68.010667-67.9936v-538.197333L122.709333 201.096533a8.567467 8.567467 0 0 1-2.696533 0.512 8.021333 8.021333 0 0 1-7.9872-8.021333v-59.579733c0-3.310933 2.0992-6.314667 5.290667-7.509334l383.6928-139.605333c7.099733-2.594133 14.813867-2.594133 21.9136 0l383.7952 139.502933a8.072533 8.072533 0 0 1 5.290666 7.509334v59.5968a8.669867 8.669867 0 0 1-0.494933 2.798933z m-243.797333 377.002667l-103.697067-191.607467h57.6a8.021333 8.021333 0 0 0 8.004267-8.004267v-27.0848a8.021333 8.021333 0 0 0-8.021333-8.021333h-76.288v-38.980267h76.288a8.021333 8.021333 0 0 0 8.021333-8.021333v-27.0848a8.021333 8.021333 0 0 0-8.021333-8.004267h-76.288v-63.488a8.021333 8.021333 0 0 0-8.004267-8.021333H487.424a8.021333 8.021333 0 0 0-8.021333 8.021333v63.3856h-75.9808a8.021333 8.021333 0 0 0-8.004267 8.021334V291.498667a8.021333 8.021333 0 0 0 8.004267 8.004266h75.997866v38.997334h-75.997866a8.021333 8.021333 0 0 0-8.004267 8.004266V373.589333a8.021333 8.021333 0 0 0 8.004267 7.9872h57.002666l-103.901866 191.607467a7.953067 7.953067 0 0 0 3.191466 10.8032 7.458133 7.458133 0 0 0 3.805867 0.989867h55.7056c2.986667 0 5.6832-1.706667 7.099733-4.386134l84.6848-168.8064h3.310934l84.701866 168.789334a7.8848 7.8848 0 0 0 7.099734 4.4032h54.493866c4.4032 0 8.004267-3.584 8.106667-7.901867a8.6016 8.6016 0 0 0-1.006933-3.7888z"  horiz-adv-x="1024" />

    
    <glyph glyph-name="waibuxinxi" unicode="&#58999;" d="M832 783.991467h-107.997867V823.995733a8.021333 8.021333 0 0 1-8.004266 8.004267h-55.995734a8.021333 8.021333 0 0 1-8.004266-8.004267v-39.9872h-151.995734V823.978667a8.021333 8.021333 0 0 1-8.004266 8.004266h-55.995734a8.021333 8.021333 0 0 1-8.004266-8.004266v-39.9872H320a31.965867 31.965867 0 0 1-32-32v-120.0128H192a31.965867 31.965867 0 0 1-32-32v-631.995734c0-17.698133 14.301867-32 32-32h512a31.965867 31.965867 0 0 1 32 32V64h96a31.965867 31.965867 0 0 1 32 32V752.008533a31.965867 31.965867 0 0 1-32 31.982934z m-168.004267-373.998934h-149.998933v150.016h0.2048l149.794133-149.8112v-0.2048z m128-273.988266h-55.995733V439.978667l-192 192H360.004267V712.021333h67.9936v-32c0-4.4032 3.601067-8.004267 8.004266-8.004266h55.995734a8.021333 8.021333 0 0 1 8.004266 8.004266v32h151.995734v-32c0-4.4032 3.601067-8.004267 8.004266-8.004266h55.995734a8.021333 8.021333 0 0 1 8.004266 8.004266v32h67.9936v-576z"  horiz-adv-x="1024" />

    
    <glyph glyph-name="gaoguanxinxi" unicode="&#59000;" d="M504.200533 278.016C631.808 278.186667 716.8 445.2864 716.8 535.210667c0 89.890133-0.392533 249.787733-212.599467 249.787733-212.206933 0-212.599467-159.8976-212.599466-249.8048 0-89.890133 84.992-257.399467 212.599466-257.194667z m361.898667-126.805333c-54.101333 41.489067-210.295467 110.4896-210.295467 110.4896l-101.410133-183.6032-15.0016 43.690666 27.716267 55.210667-55.5008 55.1936-55.5008-55.1936 27.8016-55.1936-17.92-44.8-98.594134 184.593067s-156.091733-69.000533-210.295466-110.4896c-54.203733-41.403733-78.097067-167.424-78.097067-167.424h866.696533s-15.803733 118.613333-79.598933 167.509333z"  horiz-adv-x="1024" />

    
    <glyph glyph-name="zhanghuzonglan" unicode="&#59001;" d="M832 832h-640a31.965867 31.965867 0 0 1-32-32v-528.9984c0 0.597333 0.392533 1.006933 1.006933 1.006933h219.306667l5.188267-24.712533c12.100267-59.8016 65.297067-103.304533 126.498133-103.304533s114.397867 43.52 126.395733 103.304533l5.205334 24.695467h219.392c0.6144 0 1.006933-0.392533 1.006933-0.989867V800A31.965867 31.965867 0 0 1 832 832z m-119.995733-429.0048a8.021333 8.021333 0 0 0-8.004267-7.9872h-384a8.021333 8.021333 0 0 0-8.004267 7.9872v48.008533a8.021333 8.021333 0 0 0 8.004267 8.004267h384a8.021333 8.021333 0 0 0 8.004267-8.021333v-47.991467z m0 160a8.021333 8.021333 0 0 0-8.004267-7.9872h-384a8.021333 8.021333 0 0 0-8.004267 7.9872v48.008533a8.021333 8.021333 0 0 0 8.004267 8.004267h384a8.021333 8.021333 0 0 0 8.004267-8.021333v-47.991467z m150.9888-353.9968H694.101333A193.109333 193.109333 0 0 0 512 79.991467c-44.8 0-88.507733 15.803733-122.999467 44.305066a194.013867 194.013867 0 0 0-59.101866 84.701867H161.006933c-0.6144 0-1.006933 0.4096-1.006933 1.006933v-242.005333c0-17.698133 14.301867-32 32-32h640a31.965867 31.965867 0 0 1 32 32v242.005333c0-0.597333-0.392533-1.006933-1.006933-1.006933z"  horiz-adv-x="1024" />

    
    <glyph glyph-name="huifu" unicode="&#59002;" d="M464 384a48 48 0 1 1 96 0 48 48 0 0 1-96 0z m200 0a48 48 0 1 1 96 0 48 48 0 0 1-96 0z m-400 0a48 48 0 1 1 96 0 48 48 0 0 1-96 0z m661.216 173.6a448.128 448.128 0 0 1-96.32 143.296 444.352 444.352 0 0 1-143.296 96.32A445.856 445.856 0 0 1 512 832h-2.016a446.944 446.944 0 0 1-316.48-132.416A443.936 443.936 0 0 1 98.304 556.8 448.16 448.16 0 0 1 64 381.888c0.32-69.376 16.896-138.304 48-199.904v-152c0-25.376 20.608-45.984 46.016-45.984H310.08a449.408 449.408 0 0 1 199.872-48h2.112a448.32 448.32 0 0 1 172.704 34.304 444.48 444.48 0 0 1 142.816 95.2A446.944 446.944 0 0 1 960 381.984c0.32 60.928-11.52 120-34.784 175.616zM774.08 119.584A370.048 370.048 0 0 0 512 12.032h-1.696a373.312 373.312 0 0 0-173.12 43.52l-8.384 4.48h-140.8v140.8l-4.48 8.416a373.312 373.312 0 0 0-43.52 173.088A369.696 369.696 0 0 0 247.584 646.08a369.216 369.216 0 0 0 262.816 109.888h1.696c50.016 0 98.496-9.696 144.192-28.896a369.6 369.6 0 0 0 119.04-80 370.496 370.496 0 0 0 108.896-264.8 370.56 370.56 0 0 0-110.112-262.72z"  horiz-adv-x="1024" />

    
    <glyph glyph-name="fujian" unicode="&#59003;" d="M779.2896 699.392C685.0816 793.6 531.712 793.6 437.6064 699.392L176.5888 438.6048a8.9856 8.9856 0 0 1-2.5856-6.4c0-2.4064 0.896-4.7104 2.5856-6.4L213.504 388.864c3.5072-3.4816 9.216-3.4816 12.6976 0L487.168 649.728a170.4192 170.4192 0 0 0 121.3184 50.176c45.7984 0 88.8832-17.7664 121.1904-50.176a170.368 170.368 0 0 0 50.176-121.1904c0-45.824-17.7664-88.832-50.176-121.216l-265.984-265.9072-43.1104-43.0848a103.3984 103.3984 0 0 0-146.0992 0 102.4768 102.4768 0 0 0-30.208 72.9856c0 27.6224 10.7008 53.504 30.208 73.0112L538.368 508.1088c6.7072 6.5792 15.5136 10.2912 24.9088 10.2912h0.1024c9.3952 0 18.0992-3.712 24.704-10.2912 6.6816-6.7072 10.2912-15.5136 10.2912-24.9088 0-9.2928-3.712-18.0992-10.2912-24.704l-215.7056-215.5008a8.9856 8.9856 0 0 1-2.6112-6.4c0-2.4064 0.896-4.6848 2.6112-6.4l36.8896-36.8896c3.5072-3.5072 9.216-3.5072 12.6976 0l215.6032 215.6032a104.448 104.448 0 0 1 30.7968 74.3936 104.704 104.704 0 0 1-30.7968 74.3936 105.5232 105.5232 0 0 1-148.992 0l-25.6-25.7024-238.208-238.08a172.2112 172.2112 0 0 1-50.7904-122.7264c0-46.2848 18.0992-89.7792 50.7904-122.496a173.2352 173.2352 0 0 1 122.7008-50.688c44.416 0 88.8064 16.896 122.624 50.688l309.1712 308.992a240.4352 240.4352 0 0 1 70.7072 170.8288 239.6672 239.6672 0 0 1-70.7072 170.88z"  horiz-adv-x="1024" />

    
    <glyph glyph-name="xiazai" unicode="&#59004;" d="M505.716364 235.008a7.982545 7.982545 0 0 1 12.567272 0l112.011637 141.684364a7.982545 7.982545 0 0 1-6.283637 12.916363h-74.100363V727.970909a8.029091 8.029091 0 0 1-8.005818 8.005818h-59.997091a8.029091 8.029091 0 0 1-8.005819-8.005818v-338.292364h-73.890909a7.982545 7.982545 0 0 1-6.306909-12.89309l111.988364-141.800728z m372.293818 35.002182h-60.020364a8.029091 8.029091 0 0 1-7.982545-8.005818v-153.995637H213.992727v153.995637a8.029091 8.029091 0 0 1-7.982545 8.005818H145.989818a8.029091 8.029091 0 0 1-7.982545-8.005818v-198.004364c0-17.687273 14.289455-32 32-32h683.985454c17.687273 0 32 14.289455 32 32v198.004364a8.029091 8.029091 0 0 1-7.982545 8.005818z"  horiz-adv-x="1024" />

    
    <glyph glyph-name="zhuanfa" unicode="&#59005;" d="M880.011636-16.011636H143.965091c-17.687273 0-32 14.312727-32 32.023272V751.965091c0 17.710545 14.312727 32 32 32h360.029091c4.375273 0 7.982545-3.584 7.982545-7.982546v-56.017454c0-4.398545-3.607273-7.982545-8.005818-7.982546H183.994182v-656.011636h656.011636v320c0 4.421818 3.584 8.005818 7.982546 8.005818h56.017454c4.398545 0 7.982545-3.607273 7.982546-8.005818v-359.982545c0-17.710545-14.289455-32.023273-31.976728-32.023273z m-109.149091 712.890181L718.661818 749.079273a8.005818 8.005818 0 0 0 4.701091 13.591272l179.409455 20.992a8.029091 8.029091 0 0 0 8.890181-8.890181l-20.992-179.409455a8.005818 8.005818 0 0 0-13.591272-4.701091l-52.410182 52.410182-256.209455-256.209455a8.029091 8.029091 0 0 0-11.287272 0l-42.402909 42.40291a8.029091 8.029091 0 0 0 0 11.310545L770.862545 696.878545z"  horiz-adv-x="1024" />

    
    <glyph glyph-name="chenggongtishi" unicode="&#59006;" d="M698.993778 543.004444h-46.890667c-10.197333 0-19.911111-4.906667-25.898667-13.297777L469.006222 311.694222l-71.210666 98.801778a31.985778 31.985778 0 0 1-25.884445 13.297778h-46.904889a8.035556 8.035556 0 0 1-6.499555-12.700445l124.586666-172.8a31.800889 31.800889 0 0 1 51.712 0l210.588445 292.010667a7.964444 7.964444 0 0 1-6.4 12.700444zM512 832C264.604444 832 64 631.395556 64 384S264.604444-64 512-64 960 136.604444 960 384 759.395556 832 512 832z m0-819.996444C306.602667 12.003556 140.003556 178.602667 140.003556 384 140.003556 589.397333 306.602667 755.996444 512 755.996444c205.397333 0 371.996444-166.599111 371.996444-371.996444 0-205.397333-166.599111-371.996444-371.996444-371.996444z"  horiz-adv-x="1024" />

    
    <glyph glyph-name="chuliyijian" unicode="&#59007;" d="M795.5968 48.2304a12.6208 12.6208 0 0 0-12.6208-12.6208h-234.752a12.6208 12.6208 0 0 0-12.6208 12.6208v67.1488c0 6.9888 5.632 12.6208 12.6208 12.6208h87.3728v57.856a71.0912 71.0912 0 0 0-41.984 64.512c0 39.3472 32.256 71.2448 71.9872 71.2448 39.7568 0 71.9872-31.8976 71.9872-71.2192 0-28.672-17.2544-53.248-41.984-64.5376V128h87.3728c6.9632 0 12.6208-5.632 12.6208-12.6208v-67.1488z m-560.384 360.96V457.216c0 4.4032 3.584 7.9872 7.9872 7.9872h384c4.4288 0 7.9872-3.584 7.9872-7.9872v-48a7.9872 7.9872 0 0 0-7.9872-8.0128h-384a8.0128 8.0128 0 0 0-8.0128 8.0128z m0 193.6128c0 4.4288 3.584 8.0128 7.9872 8.0128h183.9872c4.4288 0 8.0128-3.584 8.0128-8.0128v-48c0-4.4032-3.584-7.9872-8.0128-7.9872H243.2a8.0128 8.0128 0 0 0-8.0128 7.9872v48z m366.7968 155.392l188.1856-188.1856h-188.16v188.16z m252.5952-150.8864l-215.2192 215.296a32.1536 32.1536 0 0 1-22.6816 9.3952H192c-17.7152 0-32-14.2848-32-32v-832c0-17.6896 14.2848-32 32-32h640a32 32 0 0 1 32 32V584.704a32 32 0 0 1-9.3952 22.6048z"  horiz-adv-x="1024" />

    
    <glyph glyph-name="chanpin" unicode="&#59008;" d="M342.016 424.004267h342.016c0.341333 0 0.853333 0 1.262933 0.1024a7.953067 7.953067 0 0 1 6.621867 9.216L651.707733 681.301333a7.953067 7.953067 0 0 1-7.918933 6.690134h-261.597867a7.953067 7.953067 0 0 1-7.8848-6.690134l-40.209066-248.0128c-0.1024-0.375467-0.1024-0.887467-0.1024-1.297066 0-4.4032 3.618133-7.9872 8.021333-7.9872z m91.170133 195.9936h159.505067l20.718933-128h-201.0112l20.821334 128z m2.525867-282.692267a7.953067 7.953067 0 0 1-7.918933 6.690133H166.229333a7.953067 7.953067 0 0 1-7.8848-6.690133L118.101333 89.2928c-0.1024-0.4096-0.1024-0.887467-0.1024-1.297067 0-4.4032 3.618133-7.9872 7.9872-7.9872h342.016c0.4096 0 0.887467 0 1.297067 0.1024a7.953067 7.953067 0 0 1 6.587733 9.216l-40.174933 247.978667z m-239.2064-189.303467l20.6848 128h159.505067l20.718933-128H196.5056z m709.393067-58.709333l-40.209067 248.0128a7.953067 7.953067 0 0 1-7.8848 6.690133h-261.597867a7.953067 7.953067 0 0 1-7.918933-6.690133l-40.174933-248.0128c-0.1024-0.4096-0.1024-0.887467-0.1024-1.297067 0-4.4032 3.584-7.9872 7.9872-7.9872h342.016c0.375467 0 0.887467 0 1.297066 0.1024a8.021333 8.021333 0 0 1 6.587734 9.216z m-279.415467 58.709333l20.718933 128h159.505067l20.6848-128h-200.9088z"  horiz-adv-x="1024" />

    
    <glyph glyph-name="zhanghuleixing" unicode="&#59010;" d="M879.991467 784.008533H144.042667a31.9488 31.9488 0 0 1-32.017067-32.017066V16.042667c0-17.7152 14.336-32.017067 32.017067-32.017067H879.957333a31.9488 31.9488 0 0 1 32.017067 32.017067V751.957333a31.9488 31.9488 0 0 1-32.017067 32.017067zM840.021333 320h-311.978666v128h311.978666v-128z m0-263.9872H184.0128V711.9872h655.9744v-199.9872H495.991467a31.9488 31.9488 0 0 1-31.982934-32.017067v-191.965866c0-17.749333 14.301867-32.017067 31.982934-32.017067H840.021333v-200.021333zM579.9936 384a40.004267 40.004267 0 1 1 80.008533 0 40.004267 40.004267 0 0 1-80.008533 0z"  horiz-adv-x="1024" />

    
    <glyph glyph-name="zhanghuyue" unicode="&#59011;" d="M879.991467 712.021333H712.021333V775.953067a8.021333 8.021333 0 0 1-7.9872 8.021333h-55.978666a8.021333 8.021333 0 0 1-8.021334-8.021333V712.021333h-256V775.9872a8.021333 8.021333 0 0 1-7.9872 8.021333H320a8.021333 8.021333 0 0 1-7.9872-8.021333V712.021333H144.008533a31.9488 31.9488 0 0 1-32.017066-31.982933v-663.995733c0-17.7152 14.336-32.017067 32.017066-32.017067H879.957333a31.9488 31.9488 0 0 1 32.017067 32.017067V680.004267a31.9488 31.9488 0 0 1-32.017067 31.982933zM840.021333 55.978667H184.0128V640h128v-47.991467c0-4.437333 3.584-8.021333 7.9872-8.021333h55.978667a8.021333 8.021333 0 0 1 8.021333 8.021333V640h256v-47.991467c0-4.437333 3.584-8.021333 7.9872-8.021333h56.0128a8.021333 8.021333 0 0 1 7.9872 8.021333V640h128v-584.021333z m-200.4992 426.018133h-44.987733c-3.003733 0-5.802667-1.706667-7.099733-4.4032l-73.386667-145.408h-2.798933l-73.386667 145.408a7.9872 7.9872 0 0 1-7.133867 4.437333h-45.9776a8.055467 8.055467 0 0 1-6.997333-11.912533l89.2928-164.010667h-48.605867a8.021333 8.021333 0 0 1-8.021333-8.021333v-21.2992c0-4.4032 3.618133-7.9872 8.021333-7.9872h65.092267v-33.6896h-65.092267a8.021333 8.021333 0 0 1-8.021333-8.021333v-21.2992c0-4.4032 3.618133-7.9872 8.021333-7.9872h65.092267v-53.794134c0-4.437333 3.618133-8.021333 7.9872-8.021333h41.301333a8.021333 8.021333 0 0 1 8.021334 8.021333v53.794134h65.399466a8.021333 8.021333 0 0 1 7.9872 7.9872v21.2992a8.021333 8.021333 0 0 1-7.9872 8.021333h-65.399466v33.6896h65.399466a8.021333 8.021333 0 0 1 7.9872 7.9872v21.2992a8.021333 8.021333 0 0 1-7.9872 8.021333H557.056l89.2928 164.078934a8.6016 8.6016 0 0 1 1.024 3.822933 7.816533 7.816533 0 0 1-7.918933 7.9872z"  horiz-adv-x="1024" />

    
    <glyph glyph-name="kehuzhanghu" unicode="&#59013;" d="M928.017067 735.982933H96.017067a31.9488 31.9488 0 0 1-32.017067-31.982933v-640c0-17.7152 14.301867-32.017067 32.017067-32.017067h832a31.9488 31.9488 0 0 1 31.982933 32.017067V704a31.9488 31.9488 0 0 1-32.017067 32.017067zM135.953067 664.029867h752.0256v-120.0128H135.9872V664.029867z m752.0256-559.991467H135.9872V455.9872h752.0256v-351.982933z m-237.021867 64h165.000533a8.021333 8.021333 0 0 1 8.021334 7.9872v72.021333a8.021333 8.021333 0 0 1-8.021334 7.9872h-165.000533a8.021333 8.021333 0 0 1-7.9872-7.9872v-72.021333c0-4.4032 3.584-7.9872 7.9872-7.9872z"  horiz-adv-x="1024" />

    
    <glyph glyph-name="huibaoleixing" unicode="&#59012;" d="M928 451.9936h-108.0064v113.6128c0 17.6896-14.2848 32-32 32H473.0112l-117.2992 112.2048a8.1408 8.1408 0 0 1-5.504 2.176H96c-17.6896 0-32-14.2848-32-32v-591.9744c0-17.7152 14.3104-32 32-32h698.0096c12.9792 0 24.7808 7.8848 29.696 19.968l133.9904 332.032a31.9744 31.9744 0 0 1-29.696 44.0064zM135.9872 640h188.5184l119.6032-114.4064h303.872v-73.6H238.0288c-13.0048 0-24.8064-7.8848-29.696-19.9936l-72.32-179.2V640zM771.328 128H158.976l103.296 256h612.4032l-103.424-256z"  horiz-adv-x="1024" />

    
    <glyph glyph-name="guanlianwaiqin" unicode="&#59009;" d="M928 672H768V728.0128a8.0128 8.0128 0 0 1-8.0128 7.9872H704a8.0128 8.0128 0 0 1-8.0128-8.0128V672h-147.968V728.0128a8.0128 8.0128 0 0 1-8.0128 7.9872h-56.0128a8.0128 8.0128 0 0 1-7.9872-8.0128V672h-148.0192V728.0128a8.0128 8.0128 0 0 1-7.9872 7.9872h-56.0128a8.0128 8.0128 0 0 1-7.9872-8.0128V672H96c-17.6896 0-32-14.3104-32-32v-576c0-17.6896 14.3104-32 32-32h832c17.6896 0 32 14.3104 32 32V640c0 17.6896-14.3104 32-32 32zM423.9872 208c0-4.4032-3.584-8.0128-7.9872-8.0128H231.9872a8.0128 8.0128 0 0 0-7.9872 8.0128V256c0 4.4032 3.584 8.0128 8.0128 8.0128h183.9872c4.4032 0 8.0128-3.6096 8.0128-8.0128v-48z m0 136.0128c0-4.4032-3.584-8.0128-7.9872-8.0128H231.9872a8.0128 8.0128 0 0 0-7.9872 8.0128v48c0 4.3776 3.584 7.9872 8.0128 7.9872h183.9872c4.4032 0 8.0128-3.584 8.0128-8.0128v-48z m374.528 91.2896l-165.0176-228.7104a15.8976 15.8976 0 0 0-25.8048 0l-114.176 158.208a8.0384 8.0384 0 0 0 6.4768 12.6976h54.912c5.0944 0 9.9072-2.5088 12.9024-6.6048l52.7872-73.088 103.7056 143.6928a15.7952 15.7952 0 0 0 12.9024 6.6048h54.784a8.1152 8.1152 0 0 0 6.5024-12.8z"  horiz-adv-x="1024" />

    
    <glyph glyph-name="wodeyouxiang" unicode="&#59014;" d="M136.843636 624.686545V104.494545h750.312728V624.686545L546.280727 359.982545a55.970909 55.970909 0 0 0-68.677818 0L136.820364 624.686545z m54.411637 38.632728L512 414.021818 832.744727 663.272727H191.255273z m735.813818 72.029091c17.524364-0.209455 31.604364-14.452364 31.604364-31.976728v-638.743272c0-17.664-14.312727-31.976727-31.953455-31.976728H96.930909a31.953455 31.953455 0 0 0-31.604364 31.976728V703.371636c0 17.664 14.312727 31.976727 31.953455 31.976728h829.789091z"  horiz-adv-x="1024" />

    
    <glyph glyph-name="shoujihaoma" unicode="&#59015;" d="M743.470545 831.022545a63.906909 63.906909 0 0 0 63.90691-63.720727v-766.603636a63.906909 63.906909 0 0 0-63.90691-63.720727H280.529455a63.906909 63.906909 0 0 0-63.90691 63.720727V767.301818a63.906909 63.906909 0 0 0 63.90691 63.720727h462.94109z m-7.959272-822.202181V759.179636H288.488727v-750.359272h447.022546z m-263.400728 101.701818a39.889455 39.889455 0 1 0 79.77891 0 39.889455 39.889455 0 0 0-79.77891 0z"  horiz-adv-x="1024" />

    
    <glyph glyph-name="suoshujigou" unicode="&#59016;" d="M831.371636 433.966545V60.741818h71.866182a7.936 7.936 0 0 0 7.936-7.959273v-51.898181c0-4.421818-3.514182-8.029091-7.936-8.122182H120.762182a8.122182 8.122182 0 0 0-7.936 8.122182v51.898181a7.936 7.936 0 0 0 7.936 7.959273h71.866182V433.966545h-68.189091a11.636364 11.636364 0 0 0-11.636364 11.636364v44.683636a11.636364 11.636364 0 0 0 11.636364 11.636364h775.098182a11.636364 11.636364 0 0 0 11.636363-11.636364v-44.683636a11.636364 11.636364 0 0 0-11.636363-11.636364h-68.165819z m-72.192 0h-117.410909V60.741818h117.410909V433.966545z m-189.277091 0h-116.689454V60.741818h116.689454V433.966545z m-188.555636 0H264.843636V60.741818h116.526546V433.966545z m-137.890909 204.613819h537.088a11.636364 11.636364 0 0 0 11.636364-11.636364v-44.683636a11.636364 11.636364 0 0 0-11.636364-11.636364H243.456a11.636364 11.636364 0 0 0-11.636364 11.636364v44.683636a11.636364 11.636364 0 0 0 11.636364 11.636364z m123.764364 136.657454H656.756364a11.636364 11.636364 0 0 0 11.636363-11.636363v-44.683637a11.636364 11.636364 0 0 0-11.636363-11.636363H367.243636a11.636364 11.636364 0 0 0-11.636363 11.636363V763.578182a11.636364 11.636364 0 0 0 11.636363 11.636363z"  horiz-adv-x="1024" />

    
    <glyph glyph-name="wodegonghao" unicode="&#59017;" d="M927.069091 671.418182c17.524364-0.186182 31.604364-14.429091 31.604364-31.953455v-574.836363c0-17.664-14.312727-31.976727-31.953455-31.976728H96.930909a31.953455 31.953455 0 0 0-30.906182 31.976728v574.836363c0 17.664 14.312727 31.953455 31.953455 31.953455h158.906182V727.226182c0 4.421818 3.537455 8.005818 7.936 8.122182h55.621818c4.421818-0.116364 7.936-3.723636 7.936-8.145455V671.418182h367.243636V727.226182c0 4.421818 3.514182 8.005818 7.936 8.122182h55.621818a8.122182 8.122182 0 0 0 9.006546-8.145455V671.418182h158.882909z m-39.889455-566.900364l-0.349091 495.057455h-119.714909v-56.669091a7.936 7.936 0 0 0-7.936-7.959273h-55.621818a7.936 7.936 0 0 0-7.936 7.959273v56.669091H328.378182v-56.669091a7.936 7.936 0 0 0-7.936-7.959273h-55.970909a7.936 7.936 0 0 0-7.936 7.959273v55.947636H136.820364v-494.336h750.359272zM337.896727 477.928727h37.469091a11.636364 11.636364 0 0 0 11.636364-11.636363v-293.282909a11.636364 11.636364 0 0 0-11.636364-11.636364h-37.469091a11.636364 11.636364 0 0 0-11.636363 11.636364V466.292364a11.636364 11.636364 0 0 0 11.636363 11.636363z m333.009455-42.914909a161.536 161.536 0 0 0 37.585454-115.456 163.304727 163.304727 0 0 0-38.306909-115.456c-26.647273-28.439273-65.861818-42.728727-116.689454-42.728727h-108.218182a8.843636 8.843636 0 0 0-8.843636 8.843636V468.898909a8.843636 8.843636 0 0 0 8.843636 9.006546h108.916364c50.850909 0 90.065455-14.475636 116.712727-42.91491z m-43.264-198.981818a116.875636 116.875636 0 0 1 25.6 83.525818c0 38.656-8.122182 66.373818-25.6 84.037818-17.477818 17.664-45.381818 26.135273-83.502546 26.135273h-43.450181a8.843636 8.843636 0 0 1-8.820364-8.843636v-202.658909c0-4.887273 3.956364-8.843636 8.843636-8.843637h43.426909c38.120727 0 65.861818 9.006545 83.502546 26.670546z"  horiz-adv-x="1024" />

    
    <glyph glyph-name="waiqindingwei" unicode="&#59018;" d="M512 569.002667c-29.866667 0-58.026667-11.605333-79.189333-32.810667a111.616 111.616 0 0 1-32.810667-79.189333c0-29.866667 11.690667-58.026667 32.810667-79.189334a111.616 111.616 0 0 1 79.189333-32.853333c29.866667 0 58.026667 11.733333 79.189333 32.853333a111.189333 111.189333 0 0 1 32.810667 79.189334c0 29.866667-11.605333 58.026667-32.810667 79.189333A111.189333 111.189333 0 0 1 512 569.002667z m342.613333 37.888a362.496 362.496 0 0 1-79.914666 115.712 370.816 370.816 0 0 1-118.186667 77.781333A375.04 375.04 0 0 1 512 829.013333a376.832 376.832 0 0 1-144.512-28.458666 372.48 372.48 0 0 1-118.186667-77.824A363.605333 363.605333 0 0 1 169.386667 607.018667a355.157333 355.157333 0 0 1-29.397334-142.037334c0-70.570667 16.896-140.885333 50.090667-208.682666 26.709333-54.485333 64-107.605333 111.018667-158.08 80.298667-86.186667 164.48-138.922667 188.416-153.002667a43.904 43.904 0 0 1 44.8 0c23.893333 14.08 108.074667 66.773333 188.373333 153.002667 47.018667 50.346667 84.309333 103.594667 111.018667 158.08 33.408 67.712 50.304 137.898667 50.304 208.64a355.157333 355.157333 0 0 1-29.44 141.952zM512 281.002667a176 176 0 1 0 0 352 176 176 0 0 0 0-352z"  horiz-adv-x="1024" />

    


  </font>
</defs>
</svg>
